<svg width="580" height="149" viewBox="0 0 580 149" fill="none" xmlns="http://www.w3.org/2000/svg">
<rect width="580" height="149" fill="white"/>
<g clip-path="url(#clip0_251_1102)">
<path d="M59.2003 34.0659L46.4004 42.3292L59.2003 50.471L72.0003 42.3292L59.2003 34.0659ZM84.8002 34.0659L72.0003 42.3292L84.8002 50.471L97.6002 42.3292L84.8002 34.0659ZM46.4004 58.7343L59.2003 66.9976L72.0003 58.7343L59.2003 50.471L46.4004 58.7343ZM84.8002 50.471L72.0003 58.7343L84.8002 66.9976L97.6002 58.7343L84.8002 50.471ZM59.2003 69.671L72.0003 77.9343L84.8002 69.671L72.0003 61.5293L59.2003 69.671Z" fill="#0062FF"/>
</g>
<path d="M134.81 27.25C135.797 27.25 136.617 27.39 137.27 27.67C137.923 27.9433 138.413 28.3433 138.74 28.87C139.073 29.3967 139.24 30.04 139.24 30.8C139.24 31.5333 139.09 32.1567 138.79 32.67C138.497 33.1767 138.123 33.5667 137.67 33.84C137.217 34.1133 136.75 34.2667 136.27 34.3C136.777 34.3133 137.283 34.4367 137.79 34.67C138.303 34.9033 138.73 35.2767 139.07 35.79C139.41 36.3033 139.58 36.9933 139.58 37.86C139.58 38.68 139.417 39.4033 139.09 40.03C138.763 40.65 138.243 41.1333 137.53 41.48C136.823 41.8267 135.9 42 134.76 42H129.29V27.25H134.81ZM131.81 34.1L130.94 33.33H133.91C134.79 33.33 135.457 33.1467 135.91 32.78C136.37 32.4067 136.6 31.89 136.6 31.23C136.6 30.7833 136.503 30.4233 136.31 30.15C136.123 29.8767 135.843 29.6767 135.47 29.55C135.103 29.4167 134.66 29.35 134.14 29.35H130.62L131.81 28.04V34.1ZM134.24 39.9C135.093 39.9 135.75 39.7067 136.21 39.32C136.67 38.9333 136.9 38.3933 136.9 37.7C136.9 37.3 136.827 36.9567 136.68 36.67C136.54 36.3767 136.34 36.14 136.08 35.96C135.827 35.7733 135.527 35.6367 135.18 35.55C134.84 35.4633 134.467 35.42 134.06 35.42H130.94L131.81 34.64V41.21L130.62 39.9H134.24ZM141.918 42V31.38H144.548V34.91L143.938 34.57C144.004 34.11 144.128 33.6767 144.308 33.27C144.488 32.8567 144.728 32.4967 145.028 32.19C145.328 31.8767 145.691 31.6333 146.118 31.46C146.544 31.2867 147.031 31.2 147.578 31.2C148.011 31.2 148.351 31.2333 148.598 31.3C148.851 31.36 149.008 31.41 149.068 31.45L148.588 33.86C148.521 33.8133 148.384 33.7567 148.178 33.69C147.978 33.6167 147.708 33.58 147.368 33.58C146.828 33.58 146.374 33.6733 146.008 33.86C145.648 34.04 145.361 34.2867 145.148 34.6C144.934 34.9067 144.781 35.2467 144.688 35.62C144.594 35.9867 144.548 36.3533 144.548 36.72V42H141.918ZM154.171 42.22C153.378 42.22 152.681 42.0967 152.081 41.85C151.481 41.5967 151.011 41.2333 150.671 40.76C150.331 40.2867 150.161 39.7167 150.161 39.05C150.161 38.3233 150.358 37.7267 150.751 37.26C151.151 36.7867 151.688 36.4233 152.361 36.17C153.034 35.91 153.781 35.7433 154.601 35.67C155.814 35.55 156.661 35.4367 157.141 35.33C157.628 35.2167 157.871 35.0367 157.871 34.79C157.871 34.7833 157.871 34.78 157.871 34.78C157.871 34.7733 157.871 34.77 157.871 34.77C157.871 34.3033 157.661 33.9433 157.241 33.69C156.821 33.4367 156.228 33.31 155.461 33.31C154.654 33.31 154.034 33.4533 153.601 33.74C153.174 34.02 152.961 34.4667 152.961 35.08H150.361C150.361 34.2467 150.581 33.5433 151.021 32.97C151.468 32.39 152.078 31.95 152.851 31.65C153.624 31.35 154.501 31.2 155.481 31.2C156.394 31.2 157.231 31.3367 157.991 31.61C158.751 31.8833 159.361 32.2967 159.821 32.85C160.281 33.4033 160.511 34.0933 160.511 34.92C160.511 35.06 160.511 35.2 160.511 35.34C160.511 35.48 160.511 35.62 160.511 35.76V39.76C160.511 40.0133 160.518 40.2633 160.531 40.51C160.551 40.75 160.588 40.9667 160.641 41.16C160.708 41.3733 160.788 41.5533 160.881 41.7C160.974 41.8467 161.048 41.9467 161.101 42H158.501C158.454 41.9533 158.388 41.8633 158.301 41.73C158.221 41.59 158.148 41.43 158.081 41.25C158.014 41.05 157.964 40.8367 157.931 40.61C157.898 40.3767 157.881 40.12 157.881 39.84L158.401 40.2C158.201 40.6067 157.894 40.9633 157.481 41.27C157.074 41.57 156.588 41.8033 156.021 41.97C155.454 42.1367 154.838 42.22 154.171 42.22ZM154.811 40.15C155.358 40.15 155.864 40.0567 156.331 39.87C156.798 39.6833 157.174 39.3967 157.461 39.01C157.748 38.6167 157.891 38.1133 157.891 37.5V36.08L158.531 36.8C158.104 36.96 157.591 37.0933 156.991 37.2C156.391 37.3 155.784 37.38 155.171 37.44C154.384 37.5133 153.791 37.65 153.391 37.85C152.998 38.05 152.801 38.3767 152.801 38.83C152.801 39.27 152.968 39.6 153.301 39.82C153.634 40.04 154.138 40.15 154.811 40.15ZM170.463 42V37.29C170.463 37.0233 170.463 36.79 170.463 36.59C170.463 36.3833 170.463 36.1967 170.463 36.03C170.463 35.55 170.393 35.12 170.253 34.74C170.119 34.3533 169.886 34.05 169.553 33.83C169.226 33.61 168.773 33.5 168.193 33.5C167.686 33.5 167.236 33.6233 166.843 33.87C166.449 34.11 166.139 34.4433 165.913 34.87C165.693 35.29 165.583 35.7767 165.583 36.33L164.693 35.78C164.693 34.8933 164.893 34.1067 165.293 33.42C165.699 32.7267 166.243 32.1833 166.923 31.79C167.603 31.3967 168.356 31.2 169.183 31.2C170.036 31.2 170.753 31.3667 171.333 31.7C171.919 32.0333 172.359 32.5067 172.653 33.12C172.953 33.7333 173.103 34.4533 173.103 35.28C173.103 35.6 173.103 35.96 173.103 36.36C173.103 36.76 173.103 37.1533 173.103 37.54V42H170.463ZM162.953 42V31.38H165.583V42H162.953ZM180.039 42.22C179.165 42.22 178.355 42.01 177.609 41.59C176.869 41.1633 176.275 40.5367 175.829 39.71C175.382 38.8833 175.159 37.8667 175.159 36.66C175.159 35.4867 175.385 34.4933 175.839 33.68C176.299 32.8667 176.899 32.25 177.639 31.83C178.385 31.41 179.185 31.2 180.039 31.2C180.872 31.2 181.642 31.4067 182.349 31.82C183.055 32.2267 183.622 32.7933 184.049 33.52C184.475 34.2467 184.689 35.08 184.689 36.02C184.689 36.0467 184.689 36.0733 184.689 36.1C184.689 36.1267 184.689 36.1533 184.689 36.18L183.389 36.21C183.389 36.19 183.389 36.17 183.389 36.15C183.389 36.1233 183.389 36.1 183.389 36.08C183.389 35.5533 183.255 35.0933 182.989 34.7C182.729 34.3067 182.389 34 181.969 33.78C181.555 33.5533 181.115 33.44 180.649 33.44C179.882 33.44 179.229 33.7 178.689 34.22C178.149 34.7333 177.879 35.5467 177.879 36.66C177.879 37.7667 178.149 38.5833 178.689 39.11C179.229 39.6367 179.882 39.9 180.649 39.9C181.135 39.9 181.585 39.7833 181.999 39.55C182.412 39.3167 182.745 38.9967 182.999 38.59C183.259 38.1767 183.389 37.7033 183.389 37.17L184.689 37.23C184.689 38.1633 184.479 39.01 184.059 39.77C183.645 40.5233 183.089 41.12 182.389 41.56C181.689 42 180.905 42.22 180.039 42.22ZM183.389 42V26.37H186.029V42H183.389ZM193.587 42V27.25H197.997C198.977 27.25 199.867 27.4267 200.667 27.78C201.467 28.1267 202.154 28.6233 202.727 29.27C203.3 29.9167 203.744 30.6933 204.057 31.6C204.37 32.5 204.527 33.5033 204.527 34.61C204.527 35.7167 204.37 36.7233 204.057 37.63C203.744 38.53 203.3 39.3067 202.727 39.96C202.154 40.6133 201.467 41.1167 200.667 41.47C199.867 41.8233 198.977 42 197.997 42H193.587ZM196.227 41.21L195.037 39.9H197.657C198.457 39.9 199.17 39.6867 199.797 39.26C200.43 38.8267 200.93 38.2167 201.297 37.43C201.664 36.6367 201.847 35.6967 201.847 34.61C201.847 33.5167 201.664 32.5767 201.297 31.79C200.93 31.0033 200.43 30.4 199.797 29.98C199.17 29.56 198.457 29.35 197.657 29.35H195.037L196.227 28.04V41.21ZM207.702 37.54V35.67H215.132L214.832 36.17C214.832 36.13 214.832 36.0867 214.832 36.04C214.832 35.9867 214.832 35.9433 214.832 35.91C214.832 35.45 214.729 35.02 214.522 34.62C214.316 34.2133 214.002 33.8867 213.582 33.64C213.162 33.3867 212.629 33.26 211.982 33.26C211.342 33.26 210.786 33.3967 210.312 33.67C209.846 33.9367 209.482 34.3233 209.222 34.83C208.969 35.3367 208.842 35.9433 208.842 36.65C208.842 37.3767 208.966 38.0033 209.212 38.53C209.459 39.05 209.819 39.45 210.292 39.73C210.772 40.0033 211.356 40.14 212.042 40.14C212.509 40.14 212.912 40.0967 213.252 40.01C213.592 39.9233 213.869 39.8067 214.082 39.66C214.302 39.5067 214.466 39.3433 214.572 39.17C214.686 38.9967 214.752 38.8233 214.772 38.65H217.392C217.352 39.0967 217.202 39.5333 216.942 39.96C216.689 40.38 216.332 40.7633 215.872 41.11C215.412 41.45 214.852 41.7233 214.192 41.93C213.539 42.13 212.792 42.23 211.952 42.23C210.812 42.23 209.816 41.9967 208.962 41.53C208.109 41.0633 207.442 40.4133 206.962 39.58C206.489 38.7467 206.252 37.7933 206.252 36.72C206.252 35.62 206.492 34.6567 206.972 33.83C207.459 33.0033 208.132 32.36 208.992 31.9C209.852 31.4333 210.839 31.2 211.952 31.2C213.099 31.2 214.089 31.4333 214.922 31.9C215.762 32.3667 216.409 33.0167 216.862 33.85C217.316 34.6767 217.542 35.64 217.542 36.74C217.542 36.88 217.539 37.03 217.532 37.19C217.526 37.35 217.516 37.4667 217.502 37.54H207.702ZM224.001 42.22C223.367 42.22 222.764 42.15 222.191 42.01C221.624 41.87 221.117 41.66 220.671 41.38C220.231 41.1 219.881 40.7533 219.621 40.34C219.367 39.92 219.241 39.4367 219.241 38.89C219.241 38.85 219.241 38.81 219.241 38.77C219.241 38.73 219.241 38.6933 219.241 38.66H221.861C221.861 38.6933 221.861 38.7233 221.861 38.75C221.861 38.77 221.861 38.8 221.861 38.84C221.861 39.2733 222.057 39.6 222.451 39.82C222.851 40.0333 223.394 40.14 224.081 40.14C224.454 40.14 224.804 40.1 225.131 40.02C225.464 39.94 225.731 39.8167 225.931 39.65C226.137 39.4833 226.241 39.27 226.241 39.01C226.241 38.59 226.024 38.29 225.591 38.11C225.164 37.93 224.491 37.7667 223.571 37.62C223.064 37.5333 222.564 37.4167 222.071 37.27C221.577 37.1233 221.127 36.9267 220.721 36.68C220.321 36.4333 219.997 36.1267 219.751 35.76C219.511 35.3933 219.391 34.9467 219.391 34.42C219.391 33.72 219.597 33.1333 220.011 32.66C220.431 32.18 220.991 31.8167 221.691 31.57C222.397 31.3233 223.174 31.2 224.021 31.2C224.834 31.2 225.591 31.3333 226.291 31.6C226.991 31.8667 227.554 32.25 227.981 32.75C228.414 33.25 228.631 33.8533 228.631 34.56C228.631 34.5867 228.631 34.6167 228.631 34.65C228.631 34.6767 228.631 34.7 228.631 34.72H226.031C226.031 34.7 226.031 34.68 226.031 34.66C226.031 34.64 226.031 34.6167 226.031 34.59C226.031 34.2833 225.934 34.0333 225.741 33.84C225.547 33.6467 225.297 33.5033 224.991 33.41C224.684 33.3167 224.361 33.27 224.021 33.27C223.721 33.27 223.411 33.3033 223.091 33.37C222.771 33.43 222.504 33.54 222.291 33.7C222.077 33.8533 221.971 34.07 221.971 34.35C221.971 34.6167 222.081 34.8333 222.301 35C222.521 35.1667 222.827 35.3067 223.221 35.42C223.614 35.5267 224.067 35.6233 224.581 35.71C225.067 35.79 225.557 35.9 226.051 36.04C226.551 36.18 227.007 36.3667 227.421 36.6C227.834 36.8333 228.167 37.14 228.421 37.52C228.681 37.8933 228.811 38.3567 228.811 38.91C228.811 39.4967 228.677 39.9967 228.411 40.41C228.144 40.8233 227.781 41.1667 227.321 41.44C226.867 41.7067 226.354 41.9033 225.781 42.03C225.207 42.1567 224.614 42.22 224.001 42.22ZM230.93 42V31.38H233.53V42H230.93ZM232.24 29.42C231.813 29.42 231.44 29.3067 231.12 29.08C230.807 28.8467 230.65 28.5233 230.65 28.11C230.65 27.7033 230.807 27.3867 231.12 27.16C231.44 26.9333 231.813 26.82 232.24 26.82C232.66 26.82 233.027 26.9333 233.34 27.16C233.653 27.3867 233.81 27.7033 233.81 28.11C233.81 28.5233 233.653 28.8467 233.34 29.08C233.027 29.3067 232.66 29.42 232.24 29.42ZM243.276 40.95C243.903 41.01 244.453 41.1267 244.926 41.3C245.4 41.4733 245.77 41.73 246.036 42.07C246.303 42.4167 246.436 42.8767 246.436 43.45C246.436 44.09 246.22 44.6433 245.786 45.11C245.353 45.5767 244.716 45.9367 243.876 46.19C243.043 46.4433 242.016 46.57 240.796 46.57C239.023 46.57 237.66 46.3133 236.706 45.8C235.753 45.2933 235.276 44.6033 235.276 43.73C235.276 43.4833 235.306 43.26 235.366 43.06C235.426 42.86 235.5 42.6933 235.586 42.56L237.996 42.91C237.956 42.9633 237.916 43.0467 237.876 43.16C237.836 43.28 237.816 43.4233 237.816 43.59C237.816 44.0033 238.093 44.3 238.646 44.48C239.206 44.6667 239.95 44.76 240.876 44.76C241.556 44.76 242.123 44.7133 242.576 44.62C243.036 44.5267 243.383 44.3933 243.616 44.22C243.856 44.0467 243.976 43.8433 243.976 43.61C243.976 43.2633 243.82 43.04 243.506 42.94C243.193 42.84 242.82 42.7733 242.386 42.74L238.356 42.37C237.636 42.2967 237.043 42.0833 236.576 41.73C236.116 41.3767 235.886 40.91 235.886 40.33C235.886 39.9767 235.98 39.65 236.166 39.35C236.36 39.05 236.58 38.8 236.826 38.6C237.073 38.3933 237.283 38.2667 237.456 38.22L238.956 38.96C238.816 38.98 238.65 39.07 238.456 39.23C238.27 39.39 238.176 39.58 238.176 39.8C238.176 40.0067 238.27 40.18 238.456 40.32C238.643 40.4533 239.003 40.5467 239.536 40.6L243.276 40.95ZM244.466 31.38H246.826L245.866 35.5C245.686 36.2733 245.396 36.9667 244.996 37.58C244.596 38.1933 244.063 38.6767 243.396 39.03C242.73 39.3833 241.89 39.56 240.876 39.56C239.823 39.56 238.913 39.39 238.146 39.05C237.386 38.7033 236.8 38.22 236.386 37.6C235.973 36.9733 235.766 36.2533 235.766 35.44C235.766 34.6067 235.976 33.8733 236.396 33.24C236.823 32.6 237.406 32.1 238.146 31.74C238.893 31.38 239.736 31.2 240.676 31.2C241.436 31.2 242.12 31.3267 242.726 31.58C243.333 31.8267 243.816 32.15 244.176 32.55C244.543 32.95 244.74 33.3767 244.766 33.83L244.176 33.94L244.466 31.38ZM240.866 37.53C241.38 37.53 241.823 37.4467 242.196 37.28C242.57 37.1133 242.86 36.8733 243.066 36.56C243.273 36.24 243.376 35.8533 243.376 35.4C243.376 34.9533 243.273 34.57 243.066 34.25C242.86 33.93 242.57 33.6867 242.196 33.52C241.823 33.3467 241.383 33.26 240.876 33.26C240.383 33.26 239.946 33.3467 239.566 33.52C239.186 33.6933 238.886 33.9433 238.666 34.27C238.453 34.59 238.346 34.9733 238.346 35.42C238.346 35.8667 238.45 36.25 238.656 36.57C238.87 36.8833 239.163 37.1233 239.536 37.29C239.916 37.45 240.36 37.53 240.866 37.53ZM256.107 42V37.29C256.107 37.0233 256.107 36.79 256.107 36.59C256.107 36.3833 256.107 36.1967 256.107 36.03C256.107 35.55 256.037 35.12 255.897 34.74C255.764 34.3533 255.531 34.05 255.197 33.83C254.871 33.61 254.417 33.5 253.837 33.5C253.331 33.5 252.881 33.6233 252.487 33.87C252.094 34.11 251.784 34.4433 251.557 34.87C251.337 35.29 251.227 35.7767 251.227 36.33L250.337 35.78C250.337 34.8933 250.537 34.1067 250.937 33.42C251.344 32.7267 251.887 32.1833 252.567 31.79C253.247 31.3967 254.001 31.2 254.827 31.2C255.681 31.2 256.397 31.3667 256.977 31.7C257.564 32.0333 258.004 32.5067 258.297 33.12C258.597 33.7333 258.747 34.4533 258.747 35.28C258.747 35.6 258.747 35.96 258.747 36.36C258.747 36.76 258.747 37.1533 258.747 37.54V42H256.107ZM248.597 42V31.38H251.227V42H248.597ZM262.253 37.54V35.67H269.683L269.383 36.17C269.383 36.13 269.383 36.0867 269.383 36.04C269.383 35.9867 269.383 35.9433 269.383 35.91C269.383 35.45 269.28 35.02 269.073 34.62C268.866 34.2133 268.553 33.8867 268.133 33.64C267.713 33.3867 267.18 33.26 266.533 33.26C265.893 33.26 265.336 33.3967 264.863 33.67C264.396 33.9367 264.033 34.3233 263.773 34.83C263.52 35.3367 263.393 35.9433 263.393 36.65C263.393 37.3767 263.516 38.0033 263.763 38.53C264.01 39.05 264.37 39.45 264.843 39.73C265.323 40.0033 265.906 40.14 266.593 40.14C267.06 40.14 267.463 40.0967 267.803 40.01C268.143 39.9233 268.42 39.8067 268.633 39.66C268.853 39.5067 269.016 39.3433 269.123 39.17C269.236 38.9967 269.303 38.8233 269.323 38.65H271.943C271.903 39.0967 271.753 39.5333 271.493 39.96C271.24 40.38 270.883 40.7633 270.423 41.11C269.963 41.45 269.403 41.7233 268.743 41.93C268.09 42.13 267.343 42.23 266.503 42.23C265.363 42.23 264.366 41.9967 263.513 41.53C262.66 41.0633 261.993 40.4133 261.513 39.58C261.04 38.7467 260.803 37.7933 260.803 36.72C260.803 35.62 261.043 34.6567 261.523 33.83C262.01 33.0033 262.683 32.36 263.543 31.9C264.403 31.4333 265.39 31.2 266.503 31.2C267.65 31.2 268.64 31.4333 269.473 31.9C270.313 32.3667 270.96 33.0167 271.413 33.85C271.866 34.6767 272.093 35.64 272.093 36.74C272.093 36.88 272.09 37.03 272.083 37.19C272.076 37.35 272.066 37.4667 272.053 37.54H262.253ZM274.261 42V31.38H276.891V34.91L276.281 34.57C276.348 34.11 276.471 33.6767 276.651 33.27C276.831 32.8567 277.071 32.4967 277.371 32.19C277.671 31.8767 278.035 31.6333 278.461 31.46C278.888 31.2867 279.375 31.2 279.921 31.2C280.355 31.2 280.695 31.2333 280.941 31.3C281.195 31.36 281.351 31.41 281.411 31.45L280.931 33.86C280.865 33.8133 280.728 33.7567 280.521 33.69C280.321 33.6167 280.051 33.58 279.711 33.58C279.171 33.58 278.718 33.6733 278.351 33.86C277.991 34.04 277.705 34.2867 277.491 34.6C277.278 34.9067 277.125 35.2467 277.031 35.62C276.938 35.9867 276.891 36.3533 276.891 36.72V42H274.261Z" fill="#25324B"/>
<path d="M129.128 73.5V61.7H132.088C132.867 61.7 133.568 61.836 134.192 62.108C134.821 62.38 135.357 62.772 135.8 63.284C136.248 63.7907 136.592 64.4093 136.832 65.14C137.072 65.8653 137.192 66.684 137.192 67.596C137.192 68.508 137.072 69.3293 136.832 70.06C136.592 70.7853 136.248 71.404 135.8 71.916C135.357 72.428 134.821 72.82 134.192 73.092C133.568 73.364 132.867 73.5 132.088 73.5H129.128ZM130.504 73.076L129.888 72.3H131.928C132.685 72.3 133.355 72.1107 133.936 71.732C134.523 71.348 134.981 70.804 135.312 70.1C135.643 69.396 135.808 68.5613 135.808 67.596C135.808 66.6253 135.643 65.7907 135.312 65.092C134.981 64.388 134.523 63.8467 133.936 63.468C133.355 63.0893 132.685 62.9 131.928 62.9H129.888L130.504 62.124V73.076ZM139.224 73.5V65.004H140.584V67.612L140.136 67.452C140.168 67.1373 140.248 66.828 140.376 66.524C140.504 66.2147 140.68 65.9373 140.904 65.692C141.133 65.4413 141.419 65.244 141.76 65.1C142.101 64.9507 142.501 64.876 142.96 64.876C143.301 64.876 143.579 64.9053 143.792 64.964C144.011 65.0173 144.147 65.06 144.2 65.092L143.848 66.428C143.795 66.3907 143.685 66.3427 143.52 66.284C143.36 66.2253 143.131 66.196 142.832 66.196C142.389 66.196 142.021 66.276 141.728 66.436C141.44 66.596 141.211 66.8093 141.04 67.076C140.875 67.3373 140.757 67.6227 140.688 67.932C140.619 68.2413 140.584 68.548 140.584 68.852V73.5H139.224ZM149.529 73.652C148.676 73.652 147.921 73.4627 147.265 73.084C146.615 72.7 146.103 72.1773 145.729 71.516C145.361 70.8493 145.177 70.092 145.177 69.244C145.177 68.396 145.361 67.644 145.729 66.988C146.103 66.332 146.615 65.8173 147.265 65.444C147.921 65.0707 148.676 64.884 149.529 64.884C150.383 64.884 151.135 65.0707 151.785 65.444C152.441 65.8173 152.953 66.332 153.321 66.988C153.695 67.644 153.881 68.396 153.881 69.244C153.881 70.092 153.695 70.8493 153.321 71.516C152.953 72.1773 152.441 72.7 151.785 73.084C151.135 73.4627 150.383 73.652 149.529 73.652ZM149.529 72.404C150.116 72.404 150.633 72.2733 151.081 72.012C151.529 71.7507 151.879 71.3827 152.129 70.908C152.385 70.4333 152.513 69.8787 152.513 69.244C152.513 68.6093 152.385 68.06 152.129 67.596C151.879 67.1267 151.529 66.7667 151.081 66.516C150.633 66.26 150.116 66.132 149.529 66.132C148.948 66.132 148.431 66.26 147.977 66.516C147.529 66.7667 147.177 67.1267 146.921 67.596C146.671 68.06 146.545 68.6093 146.545 69.244C146.545 69.8787 146.671 70.4333 146.921 70.908C147.177 71.3827 147.529 71.7507 147.977 72.012C148.431 72.2733 148.948 72.404 149.529 72.404ZM156.005 76.996V65.004H157.365V76.996H156.005ZM160.157 73.66C159.501 73.66 158.888 73.5 158.317 73.18C157.747 72.8547 157.283 72.4093 156.925 71.844C156.573 71.2787 156.397 70.6333 156.397 69.908C156.397 69.892 156.397 69.8787 156.397 69.868C156.397 69.8573 156.397 69.844 156.397 69.828L157.373 69.804C157.373 69.8147 157.373 69.828 157.373 69.844C157.373 69.8547 157.373 69.8653 157.373 69.876C157.373 70.3347 157.493 70.7533 157.733 71.132C157.979 71.5107 158.299 71.812 158.693 72.036C159.088 72.26 159.512 72.372 159.965 72.372C160.717 72.372 161.341 72.116 161.837 71.604C162.339 71.0867 162.589 70.3 162.589 69.244C162.589 68.1827 162.341 67.3987 161.845 66.892C161.349 66.38 160.723 66.124 159.965 66.124C159.512 66.124 159.088 66.236 158.693 66.46C158.299 66.6787 157.979 66.9747 157.733 67.348C157.493 67.7213 157.373 68.14 157.373 68.604L156.397 68.572C156.397 67.8413 156.573 67.1987 156.925 66.644C157.283 66.0893 157.747 65.6573 158.317 65.348C158.888 65.0333 159.501 64.876 160.157 64.876C160.845 64.876 161.48 65.0467 162.061 65.388C162.643 65.724 163.109 66.2173 163.461 66.868C163.813 67.5187 163.989 68.3107 163.989 69.244C163.989 70.1933 163.816 70.9987 163.469 71.66C163.123 72.316 162.659 72.8147 162.077 73.156C161.496 73.492 160.856 73.66 160.157 73.66ZM170.267 73.66C169.611 73.66 168.997 73.5 168.427 73.18C167.856 72.8547 167.392 72.4093 167.035 71.844C166.683 71.2787 166.507 70.6333 166.507 69.908C166.507 69.892 166.507 69.8787 166.507 69.868C166.507 69.8573 166.507 69.844 166.507 69.828L167.483 69.804C167.483 69.8147 167.483 69.828 167.483 69.844C167.483 69.8547 167.483 69.8653 167.483 69.876C167.483 70.3347 167.603 70.7533 167.843 71.132C168.088 71.5107 168.408 71.812 168.803 72.036C169.197 72.26 169.621 72.372 170.075 72.372C170.827 72.372 171.451 72.116 171.947 71.604C172.448 71.0867 172.699 70.3 172.699 69.244C172.699 68.1827 172.451 67.3987 171.955 66.892C171.459 66.38 170.832 66.124 170.075 66.124C169.621 66.124 169.197 66.236 168.803 66.46C168.408 66.6787 168.088 66.9747 167.843 67.348C167.603 67.7213 167.483 68.14 167.483 68.604L166.507 68.572C166.507 67.8413 166.683 67.1987 167.035 66.644C167.392 66.0893 167.856 65.6573 168.427 65.348C168.997 65.0333 169.611 64.876 170.267 64.876C170.955 64.876 171.589 65.0467 172.171 65.388C172.752 65.724 173.219 66.2173 173.571 66.868C173.923 67.5187 174.099 68.3107 174.099 69.244C174.099 70.1933 173.925 70.9987 173.579 71.66C173.232 72.316 172.768 72.8147 172.187 73.156C171.605 73.492 170.965 73.66 170.267 73.66ZM166.115 73.5V60.996H167.483V73.5H166.115ZM180.248 73.652C179.395 73.652 178.64 73.4627 177.984 73.084C177.333 72.7 176.821 72.1773 176.448 71.516C176.08 70.8493 175.896 70.092 175.896 69.244C175.896 68.396 176.08 67.644 176.448 66.988C176.821 66.332 177.333 65.8173 177.984 65.444C178.64 65.0707 179.395 64.884 180.248 64.884C181.101 64.884 181.853 65.0707 182.504 65.444C183.16 65.8173 183.672 66.332 184.04 66.988C184.413 67.644 184.6 68.396 184.6 69.244C184.6 70.092 184.413 70.8493 184.04 71.516C183.672 72.1773 183.16 72.7 182.504 73.084C181.853 73.4627 181.101 73.652 180.248 73.652ZM180.248 72.404C180.835 72.404 181.352 72.2733 181.8 72.012C182.248 71.7507 182.597 71.3827 182.848 70.908C183.104 70.4333 183.232 69.8787 183.232 69.244C183.232 68.6093 183.104 68.06 182.848 67.596C182.597 67.1267 182.248 66.7667 181.8 66.516C181.352 66.26 180.835 66.132 180.248 66.132C179.667 66.132 179.149 66.26 178.696 66.516C178.248 66.7667 177.896 67.1267 177.64 67.596C177.389 68.06 177.264 68.6093 177.264 69.244C177.264 69.8787 177.389 70.4333 177.64 70.908C177.896 71.3827 178.248 71.7507 178.696 72.012C179.149 72.2733 179.667 72.404 180.248 72.404ZM188.826 68.98L188.81 69.628L185.506 65.004H186.993L189.754 68.82L188.938 68.796L191.602 65.004H193.066L189.866 69.42L189.954 69.028L193.13 73.5H191.634L188.89 69.74L189.786 69.532L186.858 73.5H185.394L188.826 68.98Z" fill="#515B6F"/>
<circle cx="204" cy="69.5" r="2" fill="#515B6F"/>
<path d="M218.696 73.66C217.88 73.66 217.181 73.532 216.6 73.276C216.024 73.0147 215.581 72.6227 215.272 72.1C214.963 71.5773 214.808 70.9267 214.808 70.148C214.808 70.0413 214.808 69.9507 214.808 69.876C214.808 69.8013 214.808 69.7107 214.808 69.604H216.176C216.176 69.7053 216.176 69.7907 216.176 69.86C216.176 69.9293 216.176 70.0173 216.176 70.124C216.176 70.94 216.389 71.5293 216.816 71.892C217.243 72.2493 217.864 72.428 218.68 72.428C219.523 72.428 220.16 72.284 220.592 71.996C221.024 71.708 221.24 71.2413 221.24 70.596C221.24 70.1427 221.115 69.7667 220.864 69.468C220.619 69.164 220.277 68.908 219.84 68.7C219.403 68.4867 218.893 68.292 218.312 68.116C217.656 67.9133 217.069 67.6573 216.552 67.348C216.04 67.0387 215.635 66.6573 215.336 66.204C215.043 65.7453 214.896 65.188 214.896 64.532C214.896 63.892 215.051 63.3507 215.36 62.908C215.675 62.4653 216.112 62.1293 216.672 61.9C217.232 61.6707 217.883 61.556 218.624 61.556C219.408 61.556 220.088 61.6787 220.664 61.924C221.245 62.164 221.693 62.532 222.008 63.028C222.328 63.5187 222.488 64.1373 222.488 64.884C222.488 65.0013 222.488 65.1027 222.488 65.188C222.488 65.268 222.488 65.3667 222.488 65.484H221.12C221.12 65.3827 221.12 65.292 221.12 65.212C221.12 65.132 221.12 65.0413 221.12 64.94C221.12 64.1613 220.909 63.6093 220.488 63.284C220.067 62.9533 219.453 62.788 218.648 62.788C217.875 62.788 217.277 62.924 216.856 63.196C216.435 63.468 216.224 63.9133 216.224 64.532C216.224 64.996 216.352 65.38 216.608 65.684C216.869 65.9827 217.224 66.2387 217.672 66.452C218.12 66.66 218.632 66.86 219.208 67.052C219.907 67.2813 220.507 67.5427 221.008 67.836C221.515 68.124 221.901 68.484 222.168 68.916C222.44 69.348 222.576 69.892 222.576 70.548C222.576 71.204 222.419 71.764 222.104 72.228C221.795 72.692 221.349 73.0467 220.768 73.292C220.192 73.5373 219.501 73.66 218.696 73.66ZM227.583 73.66C226.937 73.66 226.372 73.5587 225.887 73.356C225.407 73.1533 225.033 72.8627 224.767 72.484C224.5 72.1 224.367 71.6413 224.367 71.108C224.367 70.5533 224.511 70.092 224.799 69.724C225.087 69.3507 225.492 69.06 226.015 68.852C226.537 68.644 227.145 68.5053 227.839 68.436C228.884 68.3293 229.628 68.2253 230.071 68.124C230.513 68.0173 230.735 67.8467 230.735 67.612C230.735 67.6067 230.735 67.604 230.735 67.604C230.735 67.5987 230.735 67.5933 230.735 67.588C230.735 67.0973 230.535 66.732 230.135 66.492C229.735 66.2467 229.156 66.124 228.399 66.124C227.609 66.124 226.996 66.2627 226.559 66.54C226.121 66.812 225.903 67.2547 225.903 67.868H224.559C224.559 67.2333 224.721 66.6947 225.047 66.252C225.372 65.804 225.823 65.4627 226.399 65.228C226.98 64.9933 227.649 64.876 228.407 64.876C229.1 64.876 229.724 64.9827 230.279 65.196C230.839 65.404 231.281 65.716 231.607 66.132C231.937 66.5427 232.103 67.052 232.103 67.66C232.103 67.772 232.103 67.884 232.103 67.996C232.103 68.1027 232.103 68.212 232.103 68.324V71.9C232.103 72.0867 232.111 72.268 232.127 72.444C232.143 72.62 232.169 72.7747 232.207 72.908C232.255 73.068 232.308 73.1987 232.367 73.3C232.425 73.396 232.473 73.4627 232.511 73.5H231.143C231.116 73.4733 231.076 73.412 231.023 73.316C230.969 73.2147 230.919 73.0973 230.871 72.964C230.833 72.8573 230.804 72.724 230.783 72.564C230.761 72.3987 230.751 72.228 230.751 72.052L230.975 72.204C230.809 72.492 230.567 72.7453 230.247 72.964C229.932 73.1827 229.551 73.3533 229.103 73.476C228.655 73.5987 228.148 73.66 227.583 73.66ZM227.799 72.436C228.348 72.436 228.844 72.3533 229.287 72.188C229.729 72.0173 230.081 71.7667 230.343 71.436C230.604 71.1053 230.735 70.6947 230.735 70.204V68.516L231.039 69.028C230.697 69.1613 230.271 69.2707 229.759 69.356C229.252 69.436 228.721 69.5027 228.167 69.556C227.361 69.6307 226.753 69.772 226.343 69.98C225.937 70.188 225.735 70.5373 225.735 71.028C225.735 71.492 225.903 71.844 226.239 72.084C226.575 72.3187 227.095 72.436 227.799 72.436ZM240.445 73.5V69.428C240.445 69.1827 240.445 68.9827 240.445 68.828C240.445 68.668 240.445 68.516 240.445 68.372C240.445 67.9293 240.37 67.5427 240.221 67.212C240.071 66.8813 239.837 66.6253 239.517 66.444C239.197 66.2627 238.778 66.172 238.261 66.172C237.807 66.172 237.386 66.2893 236.997 66.524C236.613 66.7533 236.303 67.0653 236.069 67.46C235.839 67.8493 235.725 68.2867 235.725 68.772L234.949 68.476C234.949 67.8093 235.111 67.204 235.437 66.66C235.767 66.116 236.205 65.684 236.749 65.364C237.298 65.0387 237.895 64.876 238.541 64.876C239.197 64.876 239.77 65.0013 240.261 65.252C240.751 65.5027 241.13 65.8627 241.397 66.332C241.669 66.796 241.805 67.356 241.805 68.012C241.805 68.2467 241.805 68.5027 241.805 68.78C241.805 69.0573 241.805 69.316 241.805 69.556V73.5H240.445ZM234.365 73.5V65.004H235.725V73.5H234.365ZM248.825 62.9L249.441 62.124V67.516L249.001 67.084H253.777V68.284H249.001L249.441 67.828V73.5H248.081V61.7H254.489V62.9H248.825ZM256.021 73.5V65.004H257.381V67.612L256.933 67.452C256.965 67.1373 257.045 66.828 257.173 66.524C257.301 66.2147 257.477 65.9373 257.701 65.692C257.93 65.4413 258.216 65.244 258.557 65.1C258.898 64.9507 259.298 64.876 259.757 64.876C260.098 64.876 260.376 64.9053 260.589 64.964C260.808 65.0173 260.944 65.06 260.997 65.092L260.645 66.428C260.592 66.3907 260.482 66.3427 260.317 66.284C260.157 66.2253 259.928 66.196 259.629 66.196C259.186 66.196 258.818 66.276 258.525 66.436C258.237 66.596 258.008 66.8093 257.837 67.076C257.672 67.3373 257.554 67.6227 257.485 67.932C257.416 68.2413 257.381 68.548 257.381 68.852V73.5H256.021ZM265.27 73.66C264.625 73.66 264.059 73.5587 263.574 73.356C263.094 73.1533 262.721 72.8627 262.454 72.484C262.187 72.1 262.054 71.6413 262.054 71.108C262.054 70.5533 262.198 70.092 262.486 69.724C262.774 69.3507 263.179 69.06 263.702 68.852C264.225 68.644 264.833 68.5053 265.526 68.436C266.571 68.3293 267.315 68.2253 267.758 68.124C268.201 68.0173 268.422 67.8467 268.422 67.612C268.422 67.6067 268.422 67.604 268.422 67.604C268.422 67.5987 268.422 67.5933 268.422 67.588C268.422 67.0973 268.222 66.732 267.822 66.492C267.422 66.2467 266.843 66.124 266.086 66.124C265.297 66.124 264.683 66.2627 264.246 66.54C263.809 66.812 263.59 67.2547 263.59 67.868H262.246C262.246 67.2333 262.409 66.6947 262.734 66.252C263.059 65.804 263.51 65.4627 264.086 65.228C264.667 64.9933 265.337 64.876 266.094 64.876C266.787 64.876 267.411 64.9827 267.966 65.196C268.526 65.404 268.969 65.716 269.294 66.132C269.625 66.5427 269.79 67.052 269.79 67.66C269.79 67.772 269.79 67.884 269.79 67.996C269.79 68.1027 269.79 68.212 269.79 68.324V71.9C269.79 72.0867 269.798 72.268 269.814 72.444C269.83 72.62 269.857 72.7747 269.894 72.908C269.942 73.068 269.995 73.1987 270.054 73.3C270.113 73.396 270.161 73.4627 270.198 73.5H268.83C268.803 73.4733 268.763 73.412 268.71 73.316C268.657 73.2147 268.606 73.0973 268.558 72.964C268.521 72.8573 268.491 72.724 268.47 72.564C268.449 72.3987 268.438 72.228 268.438 72.052L268.662 72.204C268.497 72.492 268.254 72.7453 267.934 72.964C267.619 73.1827 267.238 73.3533 266.79 73.476C266.342 73.5987 265.835 73.66 265.27 73.66ZM265.486 72.436C266.035 72.436 266.531 72.3533 266.974 72.188C267.417 72.0173 267.769 71.7667 268.03 71.436C268.291 71.1053 268.422 70.6947 268.422 70.204V68.516L268.726 69.028C268.385 69.1613 267.958 69.2707 267.446 69.356C266.939 69.436 266.409 69.5027 265.854 69.556C265.049 69.6307 264.441 69.772 264.03 69.98C263.625 70.188 263.422 70.5373 263.422 71.028C263.422 71.492 263.59 71.844 263.926 72.084C264.262 72.3187 264.782 72.436 265.486 72.436ZM278.132 73.5V69.428C278.132 69.1827 278.132 68.9827 278.132 68.828C278.132 68.668 278.132 68.516 278.132 68.372C278.132 67.9293 278.057 67.5427 277.908 67.212C277.759 66.8813 277.524 66.6253 277.204 66.444C276.884 66.2627 276.465 66.172 275.948 66.172C275.495 66.172 275.073 66.2893 274.684 66.524C274.3 66.7533 273.991 67.0653 273.756 67.46C273.527 67.8493 273.412 68.2867 273.412 68.772L272.636 68.476C272.636 67.8093 272.799 67.204 273.124 66.66C273.455 66.116 273.892 65.684 274.436 65.364C274.985 65.0387 275.583 64.876 276.228 64.876C276.884 64.876 277.457 65.0013 277.948 65.252C278.439 65.5027 278.817 65.8627 279.084 66.332C279.356 66.796 279.492 67.356 279.492 68.012C279.492 68.2467 279.492 68.5027 279.492 68.78C279.492 69.0573 279.492 69.316 279.492 69.556V73.5H278.132ZM272.052 73.5V65.004H273.412V73.5H272.052ZM285.113 73.66C284.601 73.66 284.126 73.6067 283.689 73.5C283.257 73.388 282.878 73.228 282.553 73.02C282.233 72.8067 281.982 72.5453 281.801 72.236C281.625 71.9267 281.537 71.572 281.537 71.172C281.537 71.1293 281.537 71.0867 281.537 71.044C281.537 70.996 281.537 70.956 281.537 70.924H282.905C282.905 70.956 282.905 70.9827 282.905 71.004C282.905 71.0253 282.905 71.0573 282.905 71.1C282.905 71.532 283.105 71.8627 283.505 72.092C283.905 72.316 284.451 72.428 285.145 72.428C285.571 72.428 285.953 72.3853 286.289 72.3C286.625 72.2147 286.889 72.084 287.081 71.908C287.278 71.732 287.377 71.5107 287.377 71.244C287.377 70.8013 287.169 70.4867 286.753 70.3C286.342 70.108 285.726 69.9427 284.905 69.804C284.473 69.7293 284.062 69.6333 283.673 69.516C283.283 69.3933 282.937 69.236 282.633 69.044C282.334 68.852 282.097 68.6147 281.921 68.332C281.75 68.044 281.665 67.7 281.665 67.3C281.665 66.7827 281.817 66.3453 282.121 65.988C282.43 65.6253 282.846 65.3507 283.369 65.164C283.891 64.972 284.473 64.876 285.113 64.876C285.731 64.876 286.302 64.9747 286.825 65.172C287.347 65.3693 287.766 65.6573 288.081 66.036C288.401 66.4093 288.561 66.8707 288.561 67.42C288.561 67.4413 288.561 67.468 288.561 67.5C288.561 67.5267 288.561 67.5533 288.561 67.58H287.201C287.201 67.5533 287.201 67.532 287.201 67.516C287.201 67.5 287.201 67.4813 287.201 67.46C287.201 67.1507 287.102 66.8973 286.905 66.7C286.707 66.4973 286.451 66.348 286.137 66.252C285.822 66.1507 285.486 66.1 285.129 66.1C284.793 66.1 284.462 66.1373 284.137 66.212C283.811 66.2813 283.542 66.3987 283.329 66.564C283.115 66.7293 283.009 66.956 283.009 67.244C283.009 67.532 283.107 67.764 283.305 67.94C283.507 68.1107 283.79 68.252 284.153 68.364C284.521 68.4707 284.953 68.5693 285.449 68.66C285.891 68.74 286.31 68.8413 286.705 68.964C287.099 69.0813 287.446 69.2333 287.745 69.42C288.049 69.6067 288.286 69.844 288.457 70.132C288.633 70.4147 288.721 70.7613 288.721 71.172C288.721 71.588 288.625 71.9507 288.433 72.26C288.246 72.5693 287.985 72.828 287.649 73.036C287.318 73.244 286.934 73.3987 286.497 73.5C286.065 73.6067 285.603 73.66 285.113 73.66ZM290.913 73.5V65.004H292.257V73.5H290.913ZM291.593 63.052C291.343 63.052 291.124 62.9827 290.937 62.844C290.756 62.7 290.665 62.5053 290.665 62.26C290.665 62.02 290.756 61.8307 290.937 61.692C291.124 61.548 291.343 61.476 291.593 61.476C291.844 61.476 292.06 61.548 292.241 61.692C292.423 61.8307 292.513 62.02 292.513 62.26C292.513 62.5053 292.423 62.7 292.241 62.844C292.06 62.9827 291.844 63.052 291.593 63.052ZM298.035 73.66C297.523 73.66 297.048 73.6067 296.611 73.5C296.179 73.388 295.8 73.228 295.475 73.02C295.155 72.8067 294.904 72.5453 294.723 72.236C294.547 71.9267 294.459 71.572 294.459 71.172C294.459 71.1293 294.459 71.0867 294.459 71.044C294.459 70.996 294.459 70.956 294.459 70.924H295.827C295.827 70.956 295.827 70.9827 295.827 71.004C295.827 71.0253 295.827 71.0573 295.827 71.1C295.827 71.532 296.027 71.8627 296.427 72.092C296.827 72.316 297.373 72.428 298.067 72.428C298.493 72.428 298.875 72.3853 299.211 72.3C299.547 72.2147 299.811 72.084 300.003 71.908C300.2 71.732 300.299 71.5107 300.299 71.244C300.299 70.8013 300.091 70.4867 299.675 70.3C299.264 70.108 298.648 69.9427 297.827 69.804C297.395 69.7293 296.984 69.6333 296.595 69.516C296.205 69.3933 295.859 69.236 295.555 69.044C295.256 68.852 295.019 68.6147 294.843 68.332C294.672 68.044 294.587 67.7 294.587 67.3C294.587 66.7827 294.739 66.3453 295.043 65.988C295.352 65.6253 295.768 65.3507 296.291 65.164C296.813 64.972 297.395 64.876 298.035 64.876C298.653 64.876 299.224 64.9747 299.747 65.172C300.269 65.3693 300.688 65.6573 301.003 66.036C301.323 66.4093 301.483 66.8707 301.483 67.42C301.483 67.4413 301.483 67.468 301.483 67.5C301.483 67.5267 301.483 67.5533 301.483 67.58H300.123C300.123 67.5533 300.123 67.532 300.123 67.516C300.123 67.5 300.123 67.4813 300.123 67.46C300.123 67.1507 300.024 66.8973 299.827 66.7C299.629 66.4973 299.373 66.348 299.059 66.252C298.744 66.1507 298.408 66.1 298.051 66.1C297.715 66.1 297.384 66.1373 297.059 66.212C296.733 66.2813 296.464 66.3987 296.251 66.564C296.037 66.7293 295.931 66.956 295.931 67.244C295.931 67.532 296.029 67.764 296.227 67.94C296.429 68.1107 296.712 68.252 297.075 68.364C297.443 68.4707 297.875 68.5693 298.371 68.66C298.813 68.74 299.232 68.8413 299.627 68.964C300.021 69.0813 300.368 69.2333 300.667 69.42C300.971 69.6067 301.208 69.844 301.379 70.132C301.555 70.4147 301.642 70.7613 301.642 71.172C301.642 71.588 301.547 71.9507 301.355 72.26C301.168 72.5693 300.907 72.828 300.571 73.036C300.24 73.244 299.856 73.3987 299.419 73.5C298.987 73.6067 298.525 73.66 298.035 73.66ZM307.787 73.66C306.977 73.66 306.241 73.484 305.579 73.132C304.918 72.7747 304.393 72.2653 304.003 71.604C303.619 70.9427 303.427 70.156 303.427 69.244C303.427 68.332 303.619 67.5507 304.003 66.9C304.393 66.244 304.918 65.7427 305.579 65.396C306.241 65.0493 306.977 64.876 307.787 64.876C308.406 64.876 308.958 64.972 309.443 65.164C309.929 65.3507 310.339 65.6013 310.675 65.916C311.011 66.2307 311.267 66.5773 311.443 66.956C311.625 67.3293 311.715 67.7027 311.715 68.076C311.715 68.0813 311.715 68.0893 311.715 68.1C311.715 68.1107 311.715 68.1213 311.715 68.132H310.363C310.363 68.1053 310.361 68.076 310.355 68.044C310.35 68.0067 310.345 67.9693 310.339 67.932C310.297 67.5747 310.161 67.2627 309.931 66.996C309.702 66.724 309.403 66.5107 309.035 66.356C308.667 66.2013 308.249 66.124 307.779 66.124C307.251 66.124 306.761 66.2387 306.307 66.468C305.859 66.692 305.497 67.036 305.219 67.5C304.947 67.9587 304.811 68.54 304.811 69.244C304.811 69.9427 304.947 70.5267 305.219 70.996C305.491 71.4653 305.851 71.82 306.299 72.06C306.753 72.2947 307.246 72.412 307.779 72.412C308.355 72.412 308.83 72.3213 309.203 72.14C309.577 71.9587 309.857 71.7187 310.043 71.42C310.235 71.116 310.342 70.7907 310.363 70.444H311.715C311.715 70.828 311.63 71.212 311.459 71.596C311.289 71.9747 311.038 72.3213 310.707 72.636C310.377 72.9453 309.966 73.1933 309.475 73.38C308.99 73.5667 308.427 73.66 307.787 73.66ZM317.857 73.652C317.004 73.652 316.249 73.4627 315.593 73.084C314.943 72.7 314.431 72.1773 314.057 71.516C313.689 70.8493 313.505 70.092 313.505 69.244C313.505 68.396 313.689 67.644 314.057 66.988C314.431 66.332 314.943 65.8173 315.593 65.444C316.249 65.0707 317.004 64.884 317.857 64.884C318.711 64.884 319.463 65.0707 320.113 65.444C320.769 65.8173 321.281 66.332 321.649 66.988C322.023 67.644 322.209 68.396 322.209 69.244C322.209 70.092 322.023 70.8493 321.649 71.516C321.281 72.1773 320.769 72.7 320.113 73.084C319.463 73.4627 318.711 73.652 317.857 73.652ZM317.857 72.404C318.444 72.404 318.961 72.2733 319.409 72.012C319.857 71.7507 320.207 71.3827 320.457 70.908C320.713 70.4333 320.841 69.8787 320.841 69.244C320.841 68.6093 320.713 68.06 320.457 67.596C320.207 67.1267 319.857 66.7667 319.409 66.516C318.961 66.26 318.444 66.132 317.857 66.132C317.276 66.132 316.759 66.26 316.305 66.516C315.857 66.7667 315.505 67.1267 315.249 67.596C314.999 68.06 314.873 68.6093 314.873 69.244C314.873 69.8787 314.999 70.4333 315.249 70.908C315.505 71.3827 315.857 71.7507 316.305 72.012C316.759 72.2733 317.276 72.404 317.857 72.404ZM324.485 75.66L324.277 75.276C324.459 75.196 324.653 75.0573 324.861 74.86C325.069 74.6627 325.248 74.4413 325.397 74.196C325.547 73.956 325.621 73.7293 325.621 73.516C325.621 73.4573 325.613 73.4013 325.597 73.348C325.587 73.2947 325.568 73.244 325.541 73.196H325.917C325.843 73.3773 325.72 73.508 325.549 73.588C325.379 73.668 325.216 73.708 325.061 73.708C324.795 73.708 324.568 73.6307 324.381 73.476C324.195 73.3213 324.101 73.1 324.101 72.812C324.101 72.524 324.203 72.2947 324.405 72.124C324.613 71.9533 324.88 71.868 325.205 71.868C325.552 71.868 325.824 71.972 326.021 72.18C326.224 72.388 326.325 72.6813 326.325 73.06C326.325 73.4333 326.229 73.7987 326.037 74.156C325.845 74.5133 325.608 74.8253 325.325 75.092C325.043 75.3587 324.763 75.548 324.485 75.66ZM340.685 69.148C340.685 70.6787 340.328 71.8147 339.613 72.556C338.898 73.292 337.904 73.66 336.629 73.66C335.36 73.66 334.368 73.292 333.653 72.556C332.938 71.8147 332.581 70.6787 332.581 69.148C332.581 68.9133 332.581 68.6653 332.581 68.404C332.581 68.1373 332.581 67.8573 332.581 67.564V61.7H333.949V67.684C333.949 67.9613 333.949 68.22 333.949 68.46C333.949 68.7 333.949 68.9213 333.949 69.124C333.949 70.308 334.176 71.156 334.629 71.668C335.082 72.1747 335.749 72.428 336.629 72.428C337.514 72.428 338.184 72.1747 338.637 71.668C339.096 71.156 339.325 70.308 339.325 69.124V61.7H340.685V69.148ZM346.509 73.66C345.693 73.66 344.994 73.532 344.413 73.276C343.837 73.0147 343.394 72.6227 343.085 72.1C342.775 71.5773 342.621 70.9267 342.621 70.148C342.621 70.0413 342.621 69.9507 342.621 69.876C342.621 69.8013 342.621 69.7107 342.621 69.604H343.989C343.989 69.7053 343.989 69.7907 343.989 69.86C343.989 69.9293 343.989 70.0173 343.989 70.124C343.989 70.94 344.202 71.5293 344.629 71.892C345.055 72.2493 345.677 72.428 346.493 72.428C347.335 72.428 347.973 72.284 348.405 71.996C348.837 71.708 349.053 71.2413 349.053 70.596C349.053 70.1427 348.927 69.7667 348.677 69.468C348.431 69.164 348.09 68.908 347.653 68.7C347.215 68.4867 346.706 68.292 346.125 68.116C345.469 67.9133 344.882 67.6573 344.365 67.348C343.853 67.0387 343.447 66.6573 343.149 66.204C342.855 65.7453 342.709 65.188 342.709 64.532C342.709 63.892 342.863 63.3507 343.173 62.908C343.487 62.4653 343.925 62.1293 344.485 61.9C345.045 61.6707 345.695 61.556 346.437 61.556C347.221 61.556 347.901 61.6787 348.477 61.924C349.058 62.164 349.506 62.532 349.821 63.028C350.141 63.5187 350.301 64.1373 350.301 64.884C350.301 65.0013 350.301 65.1027 350.301 65.188C350.301 65.268 350.301 65.3667 350.301 65.484H348.933C348.933 65.3827 348.933 65.292 348.933 65.212C348.933 65.132 348.933 65.0413 348.933 64.94C348.933 64.1613 348.722 63.6093 348.301 63.284C347.879 62.9533 347.266 62.788 346.461 62.788C345.687 62.788 345.09 62.924 344.669 63.196C344.247 63.468 344.037 63.9133 344.037 64.532C344.037 64.996 344.165 65.38 344.421 65.684C344.682 65.9827 345.037 66.2387 345.485 66.452C345.933 66.66 346.445 66.86 347.021 67.052C347.719 67.2813 348.319 67.5427 348.821 67.836C349.327 68.124 349.714 68.484 349.981 68.916C350.253 69.348 350.389 69.892 350.389 70.548C350.389 71.204 350.231 71.764 349.917 72.228C349.607 72.692 349.162 73.0467 348.581 73.292C348.005 73.5373 347.314 73.66 346.509 73.66ZM351.827 73.5L355.075 61.668H357.203L360.427 73.5H359.019L356.131 62.556H356.147L353.235 73.5H351.827ZM353.507 70.372V69.172H358.771V70.372H353.507Z" fill="#515B6F"/>
<rect x="128" y="91" width="83" height="34" rx="17" fill="#56CDAD" fill-opacity="0.1"/>
<path d="M139.904 103.145L140.737 102.228V106.701L140.163 106.204H144.377V107.681H140.163L140.737 107.149V112H138.903V101.675H145V103.145H139.904ZM148.83 112.14C148.303 112.14 147.864 112.051 147.514 111.874C147.169 111.697 146.896 111.463 146.695 111.174C146.499 110.885 146.359 110.565 146.275 110.215C146.196 109.865 146.156 109.515 146.156 109.165C146.156 108.992 146.156 108.813 146.156 108.626C146.156 108.439 146.156 108.25 146.156 108.059V104.566H148.004V107.772C148.004 107.94 148.004 108.101 148.004 108.255C148.004 108.409 148.004 108.554 148.004 108.689C148.004 109.02 148.044 109.328 148.123 109.613C148.203 109.893 148.347 110.119 148.557 110.292C148.772 110.465 149.073 110.551 149.46 110.551C149.829 110.551 150.146 110.444 150.412 110.229C150.678 110.01 150.884 109.734 151.028 109.403C151.178 109.072 151.252 108.736 151.252 108.395L151.882 108.815C151.882 109.268 151.812 109.695 151.672 110.096C151.532 110.493 151.329 110.845 151.063 111.153C150.797 111.461 150.475 111.704 150.097 111.881C149.724 112.054 149.302 112.14 148.83 112.14ZM151.252 112V104.566H153.093V112H151.252ZM156.783 101.059V112H154.97V101.059H156.783ZM160.584 101.059V112H158.771V101.059H160.584ZM162.103 108.605V107.464H167.122V108.605H162.103ZM174.393 103.145H171.124L171.803 102.228V112H169.955V102.228L170.669 103.145H167.372V101.675H174.393V103.145ZM175.776 112V104.566H177.596V112H175.776ZM176.693 103.194C176.394 103.194 176.133 103.115 175.909 102.956C175.689 102.793 175.58 102.566 175.58 102.277C175.58 101.992 175.689 101.771 175.909 101.612C176.133 101.453 176.394 101.374 176.693 101.374C176.987 101.374 177.243 101.453 177.463 101.612C177.682 101.771 177.792 101.992 177.792 102.277C177.792 102.566 177.682 102.793 177.463 102.956C177.243 103.115 176.987 103.194 176.693 103.194ZM184.04 112V108.983C184.04 108.708 184.04 108.467 184.04 108.262C184.04 108.052 184.04 107.877 184.04 107.737C184.04 107.555 184.028 107.366 184.005 107.17C183.982 106.969 183.93 106.785 183.851 106.617C183.772 106.449 183.648 106.314 183.48 106.211C183.317 106.104 183.09 106.05 182.801 106.05C182.521 106.05 182.283 106.108 182.087 106.225C181.896 106.337 181.737 106.489 181.611 106.68C181.49 106.867 181.401 107.081 181.345 107.324C181.289 107.562 181.261 107.807 181.261 108.059L180.645 107.646C180.645 107.035 180.759 106.489 180.988 106.008C181.217 105.527 181.541 105.147 181.961 104.867C182.386 104.582 182.887 104.44 183.466 104.44C184.063 104.44 184.537 104.566 184.887 104.818C185.237 105.065 185.487 105.401 185.636 105.826C185.79 106.251 185.867 106.727 185.867 107.254C185.867 107.45 185.867 107.711 185.867 108.038C185.867 108.36 185.867 108.74 185.867 109.179V112H184.04ZM179.42 112V104.566H181.261V112H179.42ZM188.632 112V108.99C188.632 108.696 188.632 108.446 188.632 108.241C188.632 108.036 188.632 107.863 188.632 107.723C188.632 107.527 188.62 107.331 188.597 107.135C188.574 106.934 188.522 106.755 188.443 106.596C188.364 106.433 188.24 106.302 188.072 106.204C187.904 106.101 187.675 106.05 187.386 106.05C187.101 106.05 186.861 106.106 186.665 106.218C186.474 106.33 186.32 106.479 186.203 106.666C186.086 106.853 186 107.063 185.944 107.296C185.893 107.529 185.867 107.763 185.867 107.996L185.251 107.59C185.251 106.997 185.363 106.463 185.587 105.987C185.811 105.511 186.133 105.135 186.553 104.86C186.973 104.58 187.472 104.44 188.051 104.44C188.634 104.44 189.103 104.559 189.458 104.797C189.813 105.035 190.069 105.362 190.228 105.777C190.391 106.188 190.473 106.657 190.473 107.184C190.473 107.389 190.473 107.651 190.473 107.968C190.473 108.285 190.473 108.661 190.473 109.095V112H188.632ZM192.93 108.878V107.569H198.131L197.921 107.919C197.921 107.891 197.921 107.861 197.921 107.828C197.921 107.791 197.921 107.76 197.921 107.737C197.921 107.415 197.849 107.114 197.704 106.834C197.56 106.549 197.34 106.321 197.046 106.148C196.752 105.971 196.379 105.882 195.926 105.882C195.478 105.882 195.089 105.978 194.757 106.169C194.431 106.356 194.176 106.626 193.994 106.981C193.817 107.336 193.728 107.76 193.728 108.255C193.728 108.764 193.815 109.202 193.987 109.571C194.16 109.935 194.412 110.215 194.743 110.411C195.079 110.602 195.488 110.698 195.968 110.698C196.295 110.698 196.577 110.668 196.815 110.607C197.053 110.546 197.247 110.465 197.396 110.362C197.55 110.255 197.665 110.14 197.739 110.019C197.819 109.898 197.865 109.776 197.879 109.655H199.713C199.685 109.968 199.58 110.273 199.398 110.572C199.221 110.866 198.971 111.134 198.649 111.377C198.327 111.615 197.935 111.806 197.473 111.951C197.016 112.091 196.493 112.161 195.905 112.161C195.107 112.161 194.41 111.998 193.812 111.671C193.215 111.344 192.748 110.889 192.412 110.306C192.081 109.723 191.915 109.055 191.915 108.304C191.915 107.534 192.083 106.86 192.419 106.281C192.76 105.702 193.231 105.252 193.833 104.93C194.435 104.603 195.126 104.44 195.905 104.44C196.708 104.44 197.401 104.603 197.984 104.93C198.572 105.257 199.025 105.712 199.342 106.295C199.66 106.874 199.818 107.548 199.818 108.318C199.818 108.416 199.816 108.521 199.811 108.633C199.807 108.745 199.8 108.827 199.79 108.878H192.93Z" fill="#56CDAD"/>
<rect x="219" y="91" width="1" height="34" fill="#D6DDEB"/>
<rect x="228.5" y="91.5" width="91" height="33" rx="16.5" stroke="#FFB836"/>
<path d="M246.225 101.675H249.361V112H247.604V102.851L247.646 102.865L245.427 112H242.963L240.716 102.858L240.758 102.837V112H239.001V101.675H242.137L244.23 110.992H244.111L246.225 101.675ZM253.831 112.154C253.276 112.154 252.788 112.068 252.368 111.895C251.948 111.718 251.619 111.463 251.381 111.132C251.143 110.801 251.024 110.402 251.024 109.935C251.024 109.426 251.162 109.009 251.437 108.682C251.717 108.351 252.093 108.096 252.564 107.919C253.036 107.737 253.558 107.62 254.132 107.569C254.982 107.485 255.574 107.406 255.91 107.331C256.251 107.252 256.421 107.126 256.421 106.953C256.421 106.948 256.421 106.946 256.421 106.946C256.421 106.941 256.421 106.939 256.421 106.939C256.421 106.612 256.274 106.36 255.98 106.183C255.686 106.006 255.271 105.917 254.734 105.917C254.17 105.917 253.736 106.017 253.432 106.218C253.134 106.414 252.984 106.727 252.984 107.156H251.164C251.164 106.573 251.318 106.08 251.626 105.679C251.939 105.273 252.366 104.965 252.907 104.755C253.449 104.545 254.062 104.44 254.748 104.44C255.388 104.44 255.973 104.536 256.505 104.727C257.037 104.918 257.464 105.208 257.786 105.595C258.108 105.982 258.269 106.465 258.269 107.044C258.269 107.142 258.269 107.24 258.269 107.338C258.269 107.436 258.269 107.534 258.269 107.632V110.432C258.269 110.609 258.274 110.784 258.283 110.957C258.297 111.125 258.323 111.277 258.36 111.412C258.407 111.561 258.463 111.687 258.528 111.79C258.594 111.893 258.645 111.963 258.682 112H256.862C256.83 111.967 256.783 111.904 256.722 111.811C256.666 111.713 256.615 111.601 256.568 111.475C256.522 111.335 256.487 111.186 256.463 111.027C256.44 110.864 256.428 110.684 256.428 110.488L256.792 110.74C256.652 111.025 256.438 111.274 256.148 111.489C255.864 111.699 255.523 111.862 255.126 111.979C254.73 112.096 254.298 112.154 253.831 112.154ZM254.279 110.705C254.662 110.705 255.017 110.64 255.343 110.509C255.67 110.378 255.934 110.178 256.134 109.907C256.335 109.632 256.435 109.279 256.435 108.85V107.856L256.883 108.36C256.585 108.472 256.225 108.565 255.805 108.64C255.385 108.71 254.961 108.766 254.531 108.808C253.981 108.859 253.565 108.955 253.285 109.095C253.01 109.235 252.872 109.464 252.872 109.781C252.872 110.089 252.989 110.32 253.222 110.474C253.456 110.628 253.808 110.705 254.279 110.705ZM259.979 112V104.566H261.82V107.037L261.393 106.799C261.439 106.477 261.526 106.174 261.652 105.889C261.778 105.6 261.946 105.348 262.156 105.133C262.366 104.914 262.62 104.743 262.919 104.622C263.217 104.501 263.558 104.44 263.941 104.44C264.244 104.44 264.482 104.463 264.655 104.51C264.832 104.552 264.942 104.587 264.984 104.615L264.648 106.302C264.601 106.269 264.505 106.23 264.361 106.183C264.221 106.132 264.032 106.106 263.794 106.106C263.416 106.106 263.098 106.171 262.842 106.302C262.59 106.428 262.389 106.601 262.24 106.82C262.09 107.035 261.983 107.273 261.918 107.534C261.852 107.791 261.82 108.047 261.82 108.304V112H259.979ZM266.145 112V101.059H267.895V107.471L267.496 107.275L270.569 104.566H272.858L269.218 107.807L269.631 107.051L272.823 112H270.877L268.427 108.031L268.875 108.108L267.685 109.172L267.895 108.353V112H266.145ZM274.186 108.878V107.569H279.387L279.177 107.919C279.177 107.891 279.177 107.861 279.177 107.828C279.177 107.791 279.177 107.76 279.177 107.737C279.177 107.415 279.105 107.114 278.96 106.834C278.816 106.549 278.596 106.321 278.302 106.148C278.008 105.971 277.635 105.882 277.182 105.882C276.734 105.882 276.345 105.978 276.013 106.169C275.687 106.356 275.432 106.626 275.25 106.981C275.073 107.336 274.984 107.76 274.984 108.255C274.984 108.764 275.071 109.202 275.243 109.571C275.416 109.935 275.668 110.215 275.999 110.411C276.335 110.602 276.744 110.698 277.224 110.698C277.551 110.698 277.833 110.668 278.071 110.607C278.309 110.546 278.503 110.465 278.652 110.362C278.806 110.255 278.921 110.14 278.995 110.019C279.075 109.898 279.121 109.776 279.135 109.655H280.969C280.941 109.968 280.836 110.273 280.654 110.572C280.477 110.866 280.227 111.134 279.905 111.377C279.583 111.615 279.191 111.806 278.729 111.951C278.272 112.091 277.749 112.161 277.161 112.161C276.363 112.161 275.666 111.998 275.068 111.671C274.471 111.344 274.004 110.889 273.668 110.306C273.337 109.723 273.171 109.055 273.171 108.304C273.171 107.534 273.339 106.86 273.675 106.281C274.016 105.702 274.487 105.252 275.089 104.93C275.691 104.603 276.382 104.44 277.161 104.44C277.964 104.44 278.657 104.603 279.24 104.93C279.828 105.257 280.281 105.712 280.598 106.295C280.916 106.874 281.074 107.548 281.074 108.318C281.074 108.416 281.072 108.521 281.067 108.633C281.063 108.745 281.056 108.827 281.046 108.878H274.186ZM285.926 112.14C285.66 112.14 285.389 112.114 285.114 112.063C284.839 112.012 284.587 111.916 284.358 111.776C284.129 111.636 283.945 111.431 283.805 111.16C283.665 110.889 283.595 110.532 283.595 110.089C283.595 109.986 283.595 109.884 283.595 109.781C283.595 109.674 283.595 109.564 283.595 109.452V106.036H281.838V104.566H282.552C282.795 104.566 282.986 104.557 283.126 104.538C283.266 104.515 283.369 104.463 283.434 104.384C283.499 104.305 283.541 104.181 283.56 104.013C283.583 103.84 283.595 103.602 283.595 103.299V102.116H285.443V104.566H287.655V106.036H285.443V109.018C285.443 109.107 285.443 109.195 285.443 109.284C285.443 109.368 285.443 109.45 285.443 109.529C285.443 109.874 285.485 110.152 285.569 110.362C285.653 110.572 285.851 110.677 286.164 110.677C286.313 110.677 286.453 110.663 286.584 110.635C286.719 110.607 286.82 110.579 286.885 110.551V111.993C286.796 112.026 286.668 112.058 286.5 112.091C286.332 112.124 286.141 112.14 285.926 112.14ZM289.01 112V104.566H290.83V112H289.01ZM289.927 103.194C289.628 103.194 289.367 103.115 289.143 102.956C288.924 102.793 288.814 102.566 288.814 102.277C288.814 101.992 288.924 101.771 289.143 101.612C289.367 101.453 289.628 101.374 289.927 101.374C290.221 101.374 290.478 101.453 290.697 101.612C290.916 101.771 291.026 101.992 291.026 102.277C291.026 102.566 290.916 102.793 290.697 102.956C290.478 103.115 290.221 103.194 289.927 103.194ZM297.911 112V108.703C297.911 108.516 297.911 108.353 297.911 108.213C297.911 108.068 297.911 107.938 297.911 107.821C297.911 107.485 297.862 107.184 297.764 106.918C297.671 106.647 297.508 106.435 297.274 106.281C297.046 106.127 296.728 106.05 296.322 106.05C295.968 106.05 295.653 106.136 295.377 106.309C295.102 106.477 294.885 106.71 294.726 107.009C294.572 107.303 294.495 107.644 294.495 108.031L293.872 107.646C293.872 107.025 294.012 106.475 294.292 105.994C294.577 105.509 294.957 105.128 295.433 104.853C295.909 104.578 296.437 104.44 297.015 104.44C297.613 104.44 298.114 104.557 298.52 104.79C298.931 105.023 299.239 105.355 299.444 105.784C299.654 106.213 299.759 106.717 299.759 107.296C299.759 107.52 299.759 107.772 299.759 108.052C299.759 108.332 299.759 108.607 299.759 108.878V112H297.911ZM292.654 112V104.566H294.495V112H292.654ZM306.526 111.265C306.964 111.307 307.349 111.389 307.681 111.51C308.012 111.631 308.271 111.811 308.458 112.049C308.644 112.292 308.738 112.614 308.738 113.015C308.738 113.463 308.586 113.85 308.283 114.177C307.979 114.504 307.534 114.756 306.946 114.933C306.362 115.11 305.644 115.199 304.79 115.199C303.548 115.199 302.594 115.019 301.927 114.66C301.259 114.305 300.926 113.822 300.926 113.211C300.926 113.038 300.947 112.882 300.989 112.742C301.031 112.602 301.082 112.485 301.143 112.392L302.83 112.637C302.802 112.674 302.774 112.733 302.746 112.812C302.718 112.896 302.704 112.996 302.704 113.113C302.704 113.402 302.897 113.61 303.285 113.736C303.677 113.867 304.197 113.932 304.846 113.932C305.322 113.932 305.718 113.899 306.036 113.834C306.358 113.769 306.6 113.675 306.764 113.554C306.932 113.433 307.016 113.29 307.016 113.127C307.016 112.884 306.906 112.728 306.687 112.658C306.467 112.588 306.206 112.541 305.903 112.518L303.082 112.259C302.578 112.208 302.162 112.058 301.836 111.811C301.514 111.564 301.353 111.237 301.353 110.831C301.353 110.584 301.418 110.355 301.549 110.145C301.684 109.935 301.838 109.76 302.011 109.62C302.183 109.475 302.33 109.387 302.452 109.354L303.502 109.872C303.404 109.886 303.287 109.949 303.152 110.061C303.021 110.173 302.956 110.306 302.956 110.46C302.956 110.605 303.021 110.726 303.152 110.824C303.282 110.917 303.534 110.983 303.908 111.02L306.526 111.265ZM307.359 104.566H309.011L308.339 107.45C308.213 107.991 308.01 108.477 307.73 108.906C307.45 109.335 307.076 109.674 306.61 109.921C306.143 110.168 305.555 110.292 304.846 110.292C304.108 110.292 303.471 110.173 302.935 109.935C302.403 109.692 301.992 109.354 301.703 108.92C301.413 108.481 301.269 107.977 301.269 107.408C301.269 106.825 301.416 106.311 301.71 105.868C302.008 105.42 302.417 105.07 302.935 104.818C303.457 104.566 304.048 104.44 304.706 104.44C305.238 104.44 305.716 104.529 306.141 104.706C306.565 104.879 306.904 105.105 307.156 105.385C307.412 105.665 307.55 105.964 307.569 106.281L307.156 106.358L307.359 104.566ZM304.839 108.871C305.198 108.871 305.508 108.813 305.77 108.696C306.031 108.579 306.234 108.411 306.379 108.192C306.523 107.968 306.596 107.697 306.596 107.38C306.596 107.067 306.523 106.799 306.379 106.575C306.234 106.351 306.031 106.181 305.77 106.064C305.508 105.943 305.2 105.882 304.846 105.882C304.5 105.882 304.195 105.943 303.929 106.064C303.663 106.185 303.453 106.36 303.299 106.589C303.149 106.813 303.075 107.081 303.075 107.394C303.075 107.707 303.147 107.975 303.292 108.199C303.441 108.418 303.646 108.586 303.908 108.703C304.174 108.815 304.484 108.871 304.839 108.871Z" fill="#FFB836"/>
<rect x="328.5" y="91.5" width="67" height="33" rx="16.5" stroke="#4640DE"/>
<path d="M338.903 112V101.675H341.99C342.676 101.675 343.299 101.799 343.859 102.046C344.419 102.289 344.9 102.636 345.301 103.089C345.702 103.542 346.013 104.085 346.232 104.72C346.451 105.35 346.561 106.052 346.561 106.827C346.561 107.602 346.451 108.306 346.232 108.941C346.013 109.571 345.702 110.115 345.301 110.572C344.9 111.029 344.419 111.382 343.859 111.629C343.299 111.876 342.676 112 341.99 112H338.903ZM340.751 111.447L339.918 110.53H341.752C342.312 110.53 342.811 110.381 343.25 110.082C343.693 109.779 344.043 109.352 344.3 108.801C344.557 108.246 344.685 107.588 344.685 106.827C344.685 106.062 344.557 105.404 344.3 104.853C344.043 104.302 343.693 103.88 343.25 103.586C342.811 103.292 342.312 103.145 341.752 103.145H339.918L340.751 102.228V111.447ZM348.784 108.878V107.569H353.985L353.775 107.919C353.775 107.891 353.775 107.861 353.775 107.828C353.775 107.791 353.775 107.76 353.775 107.737C353.775 107.415 353.702 107.114 353.558 106.834C353.413 106.549 353.194 106.321 352.9 106.148C352.606 105.971 352.232 105.882 351.78 105.882C351.332 105.882 350.942 105.978 350.611 106.169C350.284 106.356 350.03 106.626 349.848 106.981C349.67 107.336 349.582 107.76 349.582 108.255C349.582 108.764 349.668 109.202 349.841 109.571C350.013 109.935 350.265 110.215 350.597 110.411C350.933 110.602 351.341 110.698 351.822 110.698C352.148 110.698 352.431 110.668 352.669 110.607C352.907 110.546 353.1 110.465 353.25 110.362C353.404 110.255 353.518 110.14 353.593 110.019C353.672 109.898 353.719 109.776 353.733 109.655H355.567C355.539 109.968 355.434 110.273 355.252 110.572C355.074 110.866 354.825 111.134 354.503 111.377C354.181 111.615 353.789 111.806 353.327 111.951C352.869 112.091 352.347 112.161 351.759 112.161C350.961 112.161 350.263 111.998 349.666 111.671C349.068 111.344 348.602 110.889 348.266 110.306C347.934 109.723 347.769 109.055 347.769 108.304C347.769 107.534 347.937 106.86 348.273 106.281C348.613 105.702 349.085 105.252 349.687 104.93C350.289 104.603 350.979 104.44 351.759 104.44C352.561 104.44 353.254 104.603 353.838 104.93C354.426 105.257 354.878 105.712 355.196 106.295C355.513 106.874 355.672 107.548 355.672 108.318C355.672 108.416 355.669 108.521 355.665 108.633C355.66 108.745 355.653 108.827 355.644 108.878H348.784ZM360.193 112.154C359.749 112.154 359.327 112.105 358.926 112.007C358.529 111.909 358.174 111.762 357.862 111.566C357.554 111.37 357.309 111.127 357.127 110.838C356.949 110.544 356.861 110.206 356.861 109.823C356.861 109.795 356.861 109.767 356.861 109.739C356.861 109.711 356.861 109.685 356.861 109.662H358.695C358.695 109.685 358.695 109.706 358.695 109.725C358.695 109.739 358.695 109.76 358.695 109.788C358.695 110.091 358.832 110.32 359.108 110.474C359.388 110.623 359.768 110.698 360.249 110.698C360.51 110.698 360.755 110.67 360.984 110.614C361.217 110.558 361.404 110.472 361.544 110.355C361.688 110.238 361.761 110.089 361.761 109.907C361.761 109.613 361.609 109.403 361.306 109.277C361.007 109.151 360.536 109.037 359.892 108.934C359.537 108.873 359.187 108.792 358.842 108.689C358.496 108.586 358.181 108.449 357.897 108.276C357.617 108.103 357.39 107.889 357.218 107.632C357.05 107.375 356.966 107.063 356.966 106.694C356.966 106.204 357.11 105.793 357.4 105.462C357.694 105.126 358.086 104.872 358.576 104.699C359.07 104.526 359.614 104.44 360.207 104.44C360.776 104.44 361.306 104.533 361.796 104.72C362.286 104.907 362.68 105.175 362.979 105.525C363.282 105.875 363.434 106.297 363.434 106.792C363.434 106.811 363.434 106.832 363.434 106.855C363.434 106.874 363.434 106.89 363.434 106.904H361.614C361.614 106.89 361.614 106.876 361.614 106.862C361.614 106.848 361.614 106.832 361.614 106.813C361.614 106.598 361.546 106.423 361.411 106.288C361.275 106.153 361.1 106.052 360.886 105.987C360.671 105.922 360.445 105.889 360.207 105.889C359.997 105.889 359.78 105.912 359.556 105.959C359.332 106.001 359.145 106.078 358.996 106.19C358.846 106.297 358.772 106.449 358.772 106.645C358.772 106.832 358.849 106.983 359.003 107.1C359.157 107.217 359.371 107.315 359.647 107.394C359.922 107.469 360.239 107.536 360.599 107.597C360.939 107.653 361.282 107.73 361.628 107.828C361.978 107.926 362.297 108.057 362.587 108.22C362.876 108.383 363.109 108.598 363.287 108.864C363.469 109.125 363.56 109.45 363.56 109.837C363.56 110.248 363.466 110.598 363.28 110.887C363.093 111.176 362.839 111.417 362.517 111.608C362.199 111.795 361.84 111.932 361.439 112.021C361.037 112.11 360.622 112.154 360.193 112.154ZM365.043 112V104.566H366.863V112H365.043ZM365.96 103.194C365.662 103.194 365.4 103.115 365.176 102.956C364.957 102.793 364.847 102.566 364.847 102.277C364.847 101.992 364.957 101.771 365.176 101.612C365.4 101.453 365.662 101.374 365.96 101.374C366.254 101.374 366.511 101.453 366.73 101.612C366.95 101.771 367.059 101.992 367.059 102.277C367.059 102.566 366.95 102.793 366.73 102.956C366.511 103.115 366.254 103.194 365.96 103.194ZM373.686 111.265C374.124 111.307 374.509 111.389 374.841 111.51C375.172 111.631 375.431 111.811 375.618 112.049C375.804 112.292 375.898 112.614 375.898 113.015C375.898 113.463 375.746 113.85 375.443 114.177C375.139 114.504 374.694 114.756 374.106 114.933C373.522 115.11 372.804 115.199 371.95 115.199C370.708 115.199 369.754 115.019 369.087 114.66C368.419 114.305 368.086 113.822 368.086 113.211C368.086 113.038 368.107 112.882 368.149 112.742C368.191 112.602 368.242 112.485 368.303 112.392L369.99 112.637C369.962 112.674 369.934 112.733 369.906 112.812C369.878 112.896 369.864 112.996 369.864 113.113C369.864 113.402 370.057 113.61 370.445 113.736C370.837 113.867 371.357 113.932 372.006 113.932C372.482 113.932 372.878 113.899 373.196 113.834C373.518 113.769 373.76 113.675 373.924 113.554C374.092 113.433 374.176 113.29 374.176 113.127C374.176 112.884 374.066 112.728 373.847 112.658C373.627 112.588 373.366 112.541 373.063 112.518L370.242 112.259C369.738 112.208 369.322 112.058 368.996 111.811C368.674 111.564 368.513 111.237 368.513 110.831C368.513 110.584 368.578 110.355 368.709 110.145C368.844 109.935 368.998 109.76 369.171 109.62C369.343 109.475 369.49 109.387 369.612 109.354L370.662 109.872C370.564 109.886 370.447 109.949 370.312 110.061C370.181 110.173 370.116 110.306 370.116 110.46C370.116 110.605 370.181 110.726 370.312 110.824C370.442 110.917 370.694 110.983 371.068 111.02L373.686 111.265ZM374.519 104.566H376.171L375.499 107.45C375.373 107.991 375.17 108.477 374.89 108.906C374.61 109.335 374.236 109.674 373.77 109.921C373.303 110.168 372.715 110.292 372.006 110.292C371.268 110.292 370.631 110.173 370.095 109.935C369.563 109.692 369.152 109.354 368.863 108.92C368.573 108.481 368.429 107.977 368.429 107.408C368.429 106.825 368.576 106.311 368.87 105.868C369.168 105.42 369.577 105.07 370.095 104.818C370.617 104.566 371.208 104.44 371.866 104.44C372.398 104.44 372.876 104.529 373.301 104.706C373.725 104.879 374.064 105.105 374.316 105.385C374.572 105.665 374.71 105.964 374.729 106.281L374.316 106.358L374.519 104.566ZM371.999 108.871C372.358 108.871 372.668 108.813 372.93 108.696C373.191 108.579 373.394 108.411 373.539 108.192C373.683 107.968 373.756 107.697 373.756 107.38C373.756 107.067 373.683 106.799 373.539 106.575C373.394 106.351 373.191 106.181 372.93 106.064C372.668 105.943 372.36 105.882 372.006 105.882C371.66 105.882 371.355 105.943 371.089 106.064C370.823 106.185 370.613 106.36 370.459 106.589C370.309 106.813 370.235 107.081 370.235 107.394C370.235 107.707 370.307 107.975 370.452 108.199C370.601 108.418 370.806 108.586 371.068 108.703C371.334 108.815 371.644 108.871 371.999 108.871ZM382.667 112V108.703C382.667 108.516 382.667 108.353 382.667 108.213C382.667 108.068 382.667 107.938 382.667 107.821C382.667 107.485 382.618 107.184 382.52 106.918C382.427 106.647 382.264 106.435 382.03 106.281C381.802 106.127 381.484 106.05 381.078 106.05C380.724 106.05 380.409 106.136 380.133 106.309C379.858 106.477 379.641 106.71 379.482 107.009C379.328 107.303 379.251 107.644 379.251 108.031L378.628 107.646C378.628 107.025 378.768 106.475 379.048 105.994C379.333 105.509 379.713 105.128 380.189 104.853C380.665 104.578 381.193 104.44 381.771 104.44C382.369 104.44 382.87 104.557 383.276 104.79C383.687 105.023 383.995 105.355 384.2 105.784C384.41 106.213 384.515 106.717 384.515 107.296C384.515 107.52 384.515 107.772 384.515 108.052C384.515 108.332 384.515 108.607 384.515 108.878V112H382.667ZM377.41 112V104.566H379.251V112H377.41Z" fill="#4640DE"/>
<defs>
<clipPath id="clip0_251_1102">
<rect width="51.2" height="48" fill="white" transform="translate(46.4004 32)"/>
</clipPath>
</defs>
</svg>
