<svg width="580" height="149" viewBox="0 0 580 149" fill="none" xmlns="http://www.w3.org/2000/svg">
<rect width="580" height="149" fill="white"/>
<g clip-path="url(#clip0_251_1124)">
<path d="M65.6875 39.4614L79.2391 47.3189V62.9704L65.6875 55.1129V39.4614Z" fill="#21D4EF"/>
<path d="M81.6455 47.3189L95.1972 39.4614V55.1129L81.6455 62.9704V47.3189Z" fill="#21D4EF"/>
<path d="M49.6025 30.3999L63.1542 38.2573V53.9088L49.6025 46.0514V30.3999Z" fill="#21D4EF"/>
<path d="M65.6875 58.0911L79.2391 65.8852V81.6001L65.6875 73.7426V58.0911Z" fill="#21D4EF"/>
</g>
<path d="M129.31 42V27.25H131.91V42H129.31ZM142.045 42V37.29C142.045 37.0233 142.045 36.79 142.045 36.59C142.045 36.3833 142.045 36.1967 142.045 36.03C142.045 35.55 141.975 35.12 141.835 34.74C141.702 34.3533 141.468 34.05 141.135 33.83C140.808 33.61 140.355 33.5 139.775 33.5C139.268 33.5 138.818 33.6233 138.425 33.87C138.032 34.11 137.722 34.4433 137.495 34.87C137.275 35.29 137.165 35.7767 137.165 36.33L136.275 35.78C136.275 34.8933 136.475 34.1067 136.875 33.42C137.282 32.7267 137.825 32.1833 138.505 31.79C139.185 31.3967 139.938 31.2 140.765 31.2C141.618 31.2 142.335 31.3667 142.915 31.7C143.502 32.0333 143.942 32.5067 144.235 33.12C144.535 33.7333 144.685 34.4533 144.685 35.28C144.685 35.6 144.685 35.96 144.685 36.36C144.685 36.76 144.685 37.1533 144.685 37.54V42H142.045ZM134.535 42V31.38H137.165V42H134.535ZM151.837 42.2C151.457 42.2 151.07 42.1633 150.677 42.09C150.283 42.0167 149.923 41.88 149.597 41.68C149.27 41.48 149.007 41.1867 148.807 40.8C148.607 40.4133 148.507 39.9033 148.507 39.27C148.507 39.1233 148.507 38.9767 148.507 38.83C148.507 38.6767 148.507 38.52 148.507 38.36V33.48H145.997V31.38H147.017C147.363 31.38 147.637 31.3667 147.837 31.34C148.037 31.3067 148.183 31.2333 148.277 31.12C148.37 31.0067 148.43 30.83 148.457 30.59C148.49 30.3433 148.507 30.0033 148.507 29.57V27.88H151.147V31.38H154.307V33.48H151.147V37.74C151.147 37.8667 151.147 37.9933 151.147 38.12C151.147 38.24 151.147 38.3567 151.147 38.47C151.147 38.9633 151.207 39.36 151.327 39.66C151.447 39.96 151.73 40.11 152.177 40.11C152.39 40.11 152.59 40.09 152.777 40.05C152.97 40.01 153.113 39.97 153.207 39.93V41.99C153.08 42.0367 152.897 42.0833 152.657 42.13C152.417 42.1767 152.143 42.2 151.837 42.2ZM156.98 37.54V35.67H164.41L164.11 36.17C164.11 36.13 164.11 36.0867 164.11 36.04C164.11 35.9867 164.11 35.9433 164.11 35.91C164.11 35.45 164.006 35.02 163.8 34.62C163.593 34.2133 163.28 33.8867 162.86 33.64C162.44 33.3867 161.906 33.26 161.26 33.26C160.62 33.26 160.063 33.3967 159.59 33.67C159.123 33.9367 158.76 34.3233 158.5 34.83C158.246 35.3367 158.12 35.9433 158.12 36.65C158.12 37.3767 158.243 38.0033 158.49 38.53C158.736 39.05 159.096 39.45 159.57 39.73C160.05 40.0033 160.633 40.14 161.32 40.14C161.786 40.14 162.19 40.0967 162.53 40.01C162.87 39.9233 163.146 39.8067 163.36 39.66C163.58 39.5067 163.743 39.3433 163.85 39.17C163.963 38.9967 164.03 38.8233 164.05 38.65H166.67C166.63 39.0967 166.48 39.5333 166.22 39.96C165.966 40.38 165.61 40.7633 165.15 41.11C164.69 41.45 164.13 41.7233 163.47 41.93C162.816 42.13 162.07 42.23 161.23 42.23C160.09 42.23 159.093 41.9967 158.24 41.53C157.386 41.0633 156.72 40.4133 156.24 39.58C155.766 38.7467 155.53 37.7933 155.53 36.72C155.53 35.62 155.77 34.6567 156.25 33.83C156.736 33.0033 157.41 32.36 158.27 31.9C159.13 31.4333 160.116 31.2 161.23 31.2C162.376 31.2 163.366 31.4333 164.2 31.9C165.04 32.3667 165.686 33.0167 166.14 33.85C166.593 34.6767 166.82 35.64 166.82 36.74C166.82 36.88 166.816 37.03 166.81 37.19C166.803 37.35 166.793 37.4667 166.78 37.54H156.98ZM168.988 42V31.38H171.618V34.91L171.008 34.57C171.075 34.11 171.198 33.6767 171.378 33.27C171.558 32.8567 171.798 32.4967 172.098 32.19C172.398 31.8767 172.761 31.6333 173.188 31.46C173.615 31.2867 174.101 31.2 174.648 31.2C175.081 31.2 175.421 31.2333 175.668 31.3C175.921 31.36 176.078 31.41 176.138 31.45L175.658 33.86C175.591 33.8133 175.455 33.7567 175.248 33.69C175.048 33.6167 174.778 33.58 174.438 33.58C173.898 33.58 173.445 33.6733 173.078 33.86C172.718 34.04 172.431 34.2867 172.218 34.6C172.005 34.9067 171.851 35.2467 171.758 35.62C171.665 35.9867 171.618 36.3533 171.618 36.72V42H168.988ZM181.241 42.22C180.448 42.22 179.751 42.0967 179.151 41.85C178.551 41.5967 178.081 41.2333 177.741 40.76C177.401 40.2867 177.231 39.7167 177.231 39.05C177.231 38.3233 177.428 37.7267 177.821 37.26C178.221 36.7867 178.758 36.4233 179.431 36.17C180.105 35.91 180.851 35.7433 181.671 35.67C182.885 35.55 183.731 35.4367 184.211 35.33C184.698 35.2167 184.941 35.0367 184.941 34.79C184.941 34.7833 184.941 34.78 184.941 34.78C184.941 34.7733 184.941 34.77 184.941 34.77C184.941 34.3033 184.731 33.9433 184.311 33.69C183.891 33.4367 183.298 33.31 182.531 33.31C181.725 33.31 181.105 33.4533 180.671 33.74C180.245 34.02 180.031 34.4667 180.031 35.08H177.431C177.431 34.2467 177.651 33.5433 178.091 32.97C178.538 32.39 179.148 31.95 179.921 31.65C180.695 31.35 181.571 31.2 182.551 31.2C183.465 31.2 184.301 31.3367 185.061 31.61C185.821 31.8833 186.431 32.2967 186.891 32.85C187.351 33.4033 187.581 34.0933 187.581 34.92C187.581 35.06 187.581 35.2 187.581 35.34C187.581 35.48 187.581 35.62 187.581 35.76V39.76C187.581 40.0133 187.588 40.2633 187.601 40.51C187.621 40.75 187.658 40.9667 187.711 41.16C187.778 41.3733 187.858 41.5533 187.951 41.7C188.045 41.8467 188.118 41.9467 188.171 42H185.571C185.525 41.9533 185.458 41.8633 185.371 41.73C185.291 41.59 185.218 41.43 185.151 41.25C185.085 41.05 185.035 40.8367 185.001 40.61C184.968 40.3767 184.951 40.12 184.951 39.84L185.471 40.2C185.271 40.6067 184.965 40.9633 184.551 41.27C184.145 41.57 183.658 41.8033 183.091 41.97C182.525 42.1367 181.908 42.22 181.241 42.22ZM181.881 40.15C182.428 40.15 182.935 40.0567 183.401 39.87C183.868 39.6833 184.245 39.3967 184.531 39.01C184.818 38.6167 184.961 38.1133 184.961 37.5V36.08L185.601 36.8C185.175 36.96 184.661 37.0933 184.061 37.2C183.461 37.3 182.855 37.38 182.241 37.44C181.455 37.5133 180.861 37.65 180.461 37.85C180.068 38.05 179.871 38.3767 179.871 38.83C179.871 39.27 180.038 39.6 180.371 39.82C180.705 40.04 181.208 40.15 181.881 40.15ZM195.273 42.22C194.153 42.22 193.163 41.99 192.303 41.53C191.443 41.07 190.77 40.4233 190.283 39.59C189.796 38.7567 189.553 37.78 189.553 36.66C189.553 35.5467 189.796 34.58 190.283 33.76C190.77 32.94 191.443 32.31 192.303 31.87C193.163 31.4233 194.153 31.2 195.273 31.2C196.113 31.2 196.856 31.3233 197.503 31.57C198.15 31.8167 198.693 32.1467 199.133 32.56C199.58 32.9667 199.92 33.4167 200.153 33.91C200.386 34.3967 200.503 34.8833 200.503 35.37C200.503 35.3833 200.503 35.3967 200.503 35.41C200.503 35.4233 200.503 35.4367 200.503 35.45H197.893C197.893 35.4167 197.89 35.38 197.883 35.34C197.876 35.3 197.87 35.26 197.863 35.22C197.81 34.88 197.673 34.5733 197.453 34.3C197.233 34.02 196.94 33.7967 196.573 33.63C196.206 33.4633 195.763 33.38 195.243 33.38C194.69 33.38 194.183 33.5033 193.723 33.75C193.27 33.99 192.906 34.3533 192.633 34.84C192.366 35.3267 192.233 35.9333 192.233 36.66C192.233 37.38 192.366 37.9933 192.633 38.5C192.9 39 193.26 39.3833 193.713 39.65C194.173 39.91 194.683 40.04 195.243 40.04C195.836 40.04 196.32 39.95 196.693 39.77C197.073 39.5833 197.36 39.3367 197.553 39.03C197.746 38.7167 197.856 38.3767 197.883 38.01H200.503C200.503 38.5033 200.39 39 200.163 39.5C199.936 39.9933 199.603 40.4467 199.163 40.86C198.723 41.2733 198.176 41.6033 197.523 41.85C196.876 42.0967 196.126 42.22 195.273 42.22ZM207.442 42.2C207.062 42.2 206.676 42.1633 206.282 42.09C205.889 42.0167 205.529 41.88 205.202 41.68C204.876 41.48 204.612 41.1867 204.412 40.8C204.212 40.4133 204.112 39.9033 204.112 39.27C204.112 39.1233 204.112 38.9767 204.112 38.83C204.112 38.6767 204.112 38.52 204.112 38.36V33.48H201.602V31.38H202.622C202.969 31.38 203.242 31.3667 203.442 31.34C203.642 31.3067 203.789 31.2333 203.882 31.12C203.976 31.0067 204.036 30.83 204.062 30.59C204.096 30.3433 204.112 30.0033 204.112 29.57V27.88H206.752V31.38H209.912V33.48H206.752V37.74C206.752 37.8667 206.752 37.9933 206.752 38.12C206.752 38.24 206.752 38.3567 206.752 38.47C206.752 38.9633 206.812 39.36 206.932 39.66C207.052 39.96 207.336 40.11 207.782 40.11C207.996 40.11 208.196 40.09 208.382 40.05C208.576 40.01 208.719 39.97 208.812 39.93V41.99C208.686 42.0367 208.502 42.0833 208.262 42.13C208.022 42.1767 207.749 42.2 207.442 42.2ZM211.848 42V31.38H214.448V42H211.848ZM213.158 29.42C212.731 29.42 212.358 29.3067 212.038 29.08C211.725 28.8467 211.568 28.5233 211.568 28.11C211.568 27.7033 211.725 27.3867 212.038 27.16C212.358 26.9333 212.731 26.82 213.158 26.82C213.578 26.82 213.945 26.9333 214.258 27.16C214.571 27.3867 214.728 27.7033 214.728 28.11C214.728 28.5233 214.571 28.8467 214.258 29.08C213.945 29.3067 213.578 29.42 213.158 29.42ZM226.374 31.38L223.044 42H219.514L216.104 31.38H218.824L221.494 41.08H221.074L223.654 31.38H226.374ZM228.562 37.54V35.67H235.992L235.692 36.17C235.692 36.13 235.692 36.0867 235.692 36.04C235.692 35.9867 235.692 35.9433 235.692 35.91C235.692 35.45 235.588 35.02 235.382 34.62C235.175 34.2133 234.862 33.8867 234.442 33.64C234.022 33.3867 233.488 33.26 232.842 33.26C232.202 33.26 231.645 33.3967 231.172 33.67C230.705 33.9367 230.342 34.3233 230.082 34.83C229.828 35.3367 229.702 35.9433 229.702 36.65C229.702 37.3767 229.825 38.0033 230.072 38.53C230.318 39.05 230.678 39.45 231.152 39.73C231.632 40.0033 232.215 40.14 232.902 40.14C233.368 40.14 233.772 40.0967 234.112 40.01C234.452 39.9233 234.728 39.8067 234.942 39.66C235.162 39.5067 235.325 39.3433 235.432 39.17C235.545 38.9967 235.612 38.8233 235.632 38.65H238.252C238.212 39.0967 238.062 39.5333 237.802 39.96C237.548 40.38 237.192 40.7633 236.732 41.11C236.272 41.45 235.712 41.7233 235.052 41.93C234.398 42.13 233.652 42.23 232.812 42.23C231.672 42.23 230.675 41.9967 229.822 41.53C228.968 41.0633 228.302 40.4133 227.822 39.58C227.348 38.7467 227.112 37.7933 227.112 36.72C227.112 35.62 227.352 34.6567 227.832 33.83C228.318 33.0033 228.992 32.36 229.852 31.9C230.712 31.4333 231.698 31.2 232.812 31.2C233.958 31.2 234.948 31.4333 235.782 31.9C236.622 32.3667 237.268 33.0167 237.722 33.85C238.175 34.6767 238.402 35.64 238.402 36.74C238.402 36.88 238.398 37.03 238.392 37.19C238.385 37.35 238.375 37.4667 238.362 37.54H228.562ZM245.54 42V27.25H249.95C250.93 27.25 251.82 27.4267 252.62 27.78C253.42 28.1267 254.107 28.6233 254.68 29.27C255.253 29.9167 255.697 30.6933 256.01 31.6C256.323 32.5 256.48 33.5033 256.48 34.61C256.48 35.7167 256.323 36.7233 256.01 37.63C255.697 38.53 255.253 39.3067 254.68 39.96C254.107 40.6133 253.42 41.1167 252.62 41.47C251.82 41.8233 250.93 42 249.95 42H245.54ZM248.18 41.21L246.99 39.9H249.61C250.41 39.9 251.123 39.6867 251.75 39.26C252.383 38.8267 252.883 38.2167 253.25 37.43C253.617 36.6367 253.8 35.6967 253.8 34.61C253.8 33.5167 253.617 32.5767 253.25 31.79C252.883 31.0033 252.383 30.4 251.75 29.98C251.123 29.56 250.41 29.35 249.61 29.35H246.99L248.18 28.04V41.21ZM259.655 37.54V35.67H267.085L266.785 36.17C266.785 36.13 266.785 36.0867 266.785 36.04C266.785 35.9867 266.785 35.9433 266.785 35.91C266.785 35.45 266.682 35.02 266.475 34.62C266.269 34.2133 265.955 33.8867 265.535 33.64C265.115 33.3867 264.582 33.26 263.935 33.26C263.295 33.26 262.739 33.3967 262.265 33.67C261.799 33.9367 261.435 34.3233 261.175 34.83C260.922 35.3367 260.795 35.9433 260.795 36.65C260.795 37.3767 260.919 38.0033 261.165 38.53C261.412 39.05 261.772 39.45 262.245 39.73C262.725 40.0033 263.309 40.14 263.995 40.14C264.462 40.14 264.865 40.0967 265.205 40.01C265.545 39.9233 265.822 39.8067 266.035 39.66C266.255 39.5067 266.419 39.3433 266.525 39.17C266.639 38.9967 266.705 38.8233 266.725 38.65H269.345C269.305 39.0967 269.155 39.5333 268.895 39.96C268.642 40.38 268.285 40.7633 267.825 41.11C267.365 41.45 266.805 41.7233 266.145 41.93C265.492 42.13 264.745 42.23 263.905 42.23C262.765 42.23 261.769 41.9967 260.915 41.53C260.062 41.0633 259.395 40.4133 258.915 39.58C258.442 38.7467 258.205 37.7933 258.205 36.72C258.205 35.62 258.445 34.6567 258.925 33.83C259.412 33.0033 260.085 32.36 260.945 31.9C261.805 31.4333 262.792 31.2 263.905 31.2C265.052 31.2 266.042 31.4333 266.875 31.9C267.715 32.3667 268.362 33.0167 268.815 33.85C269.269 34.6767 269.495 35.64 269.495 36.74C269.495 36.88 269.492 37.03 269.485 37.19C269.479 37.35 269.469 37.4667 269.455 37.54H259.655ZM280.632 31.38L277.302 42H273.772L270.362 31.38H273.082L275.752 41.08H275.332L277.912 31.38H280.632ZM282.82 37.54V35.67H290.25L289.95 36.17C289.95 36.13 289.95 36.0867 289.95 36.04C289.95 35.9867 289.95 35.9433 289.95 35.91C289.95 35.45 289.846 35.02 289.64 34.62C289.433 34.2133 289.12 33.8867 288.7 33.64C288.28 33.3867 287.746 33.26 287.1 33.26C286.46 33.26 285.903 33.3967 285.43 33.67C284.963 33.9367 284.6 34.3233 284.34 34.83C284.086 35.3367 283.96 35.9433 283.96 36.65C283.96 37.3767 284.083 38.0033 284.33 38.53C284.576 39.05 284.936 39.45 285.41 39.73C285.89 40.0033 286.473 40.14 287.16 40.14C287.626 40.14 288.03 40.0967 288.37 40.01C288.71 39.9233 288.986 39.8067 289.2 39.66C289.42 39.5067 289.583 39.3433 289.69 39.17C289.803 38.9967 289.87 38.8233 289.89 38.65H292.51C292.47 39.0967 292.32 39.5333 292.06 39.96C291.806 40.38 291.45 40.7633 290.99 41.11C290.53 41.45 289.97 41.7233 289.31 41.93C288.656 42.13 287.91 42.23 287.07 42.23C285.93 42.23 284.933 41.9967 284.08 41.53C283.226 41.0633 282.56 40.4133 282.08 39.58C281.606 38.7467 281.37 37.7933 281.37 36.72C281.37 35.62 281.61 34.6567 282.09 33.83C282.576 33.0033 283.25 32.36 284.11 31.9C284.97 31.4333 285.956 31.2 287.07 31.2C288.216 31.2 289.206 31.4333 290.04 31.9C290.88 32.3667 291.526 33.0167 291.98 33.85C292.433 34.6767 292.66 35.64 292.66 36.74C292.66 36.88 292.656 37.03 292.65 37.19C292.643 37.35 292.633 37.4667 292.62 37.54H282.82ZM297.568 26.37V42H294.978V26.37H297.568ZM305.478 42.21C304.358 42.21 303.371 41.9767 302.518 41.51C301.664 41.0367 300.994 40.3833 300.508 39.55C300.028 38.7167 299.788 37.7633 299.788 36.69C299.788 35.61 300.028 34.66 300.508 33.84C300.994 33.0133 301.664 32.3667 302.518 31.9C303.371 31.4333 304.358 31.2 305.478 31.2C306.598 31.2 307.584 31.4333 308.438 31.9C309.291 32.3667 309.958 33.0133 310.438 33.84C310.924 34.66 311.168 35.61 311.168 36.69C311.168 37.7633 310.924 38.7167 310.438 39.55C309.958 40.3833 309.291 41.0367 308.438 41.51C307.584 41.9767 306.598 42.21 305.478 42.21ZM305.478 40.06C306.084 40.06 306.614 39.92 307.068 39.64C307.521 39.36 307.874 38.97 308.128 38.47C308.381 37.9633 308.508 37.37 308.508 36.69C308.508 36.01 308.381 35.4233 308.128 34.93C307.874 34.43 307.521 34.0433 307.068 33.77C306.614 33.4967 306.084 33.36 305.478 33.36C304.878 33.36 304.348 33.4967 303.888 33.77C303.434 34.0433 303.081 34.43 302.828 34.93C302.574 35.4233 302.448 36.01 302.448 36.69C302.448 37.37 302.574 37.9633 302.828 38.47C303.081 38.97 303.434 39.36 303.888 39.64C304.348 39.92 304.878 40.06 305.478 40.06ZM313.343 46.37V31.38H315.973V46.37H313.343ZM319.323 42.22C318.497 42.22 317.73 42.0067 317.023 41.58C316.323 41.1467 315.757 40.5567 315.323 39.81C314.897 39.0633 314.683 38.2233 314.683 37.29C314.683 37.2633 314.683 37.24 314.683 37.22C314.683 37.1933 314.683 37.17 314.683 37.15L315.983 37.12C315.983 37.1333 315.983 37.15 315.983 37.17C315.983 37.19 315.983 37.2067 315.983 37.22C315.983 37.74 316.113 38.2033 316.373 38.61C316.633 39.01 316.97 39.3267 317.383 39.56C317.803 39.7867 318.25 39.9 318.723 39.9C319.49 39.9 320.143 39.6367 320.683 39.11C321.223 38.5833 321.493 37.7667 321.493 36.66C321.493 35.5467 321.223 34.7333 320.683 34.22C320.15 33.7 319.497 33.44 318.723 33.44C318.257 33.44 317.813 33.5533 317.393 33.78C316.98 34 316.64 34.3067 316.373 34.7C316.113 35.0933 315.983 35.5533 315.983 36.08L314.683 36.02C314.683 35.08 314.897 34.2467 315.323 33.52C315.757 32.7933 316.323 32.2267 317.023 31.82C317.73 31.4067 318.497 31.2 319.323 31.2C320.183 31.2 320.983 31.41 321.723 31.83C322.47 32.25 323.07 32.8667 323.523 33.68C323.983 34.4933 324.213 35.4867 324.213 36.66C324.213 37.8667 323.99 38.8833 323.543 39.71C323.097 40.5367 322.503 41.1633 321.763 41.59C321.023 42.01 320.21 42.22 319.323 42.22ZM327.37 37.54V35.67H334.8L334.5 36.17C334.5 36.13 334.5 36.0867 334.5 36.04C334.5 35.9867 334.5 35.9433 334.5 35.91C334.5 35.45 334.397 35.02 334.19 34.62C333.984 34.2133 333.67 33.8867 333.25 33.64C332.83 33.3867 332.297 33.26 331.65 33.26C331.01 33.26 330.454 33.3967 329.98 33.67C329.514 33.9367 329.15 34.3233 328.89 34.83C328.637 35.3367 328.51 35.9433 328.51 36.65C328.51 37.3767 328.634 38.0033 328.88 38.53C329.127 39.05 329.487 39.45 329.96 39.73C330.44 40.0033 331.024 40.14 331.71 40.14C332.177 40.14 332.58 40.0967 332.92 40.01C333.26 39.9233 333.537 39.8067 333.75 39.66C333.97 39.5067 334.134 39.3433 334.24 39.17C334.354 38.9967 334.42 38.8233 334.44 38.65H337.06C337.02 39.0967 336.87 39.5333 336.61 39.96C336.357 40.38 336 40.7633 335.54 41.11C335.08 41.45 334.52 41.7233 333.86 41.93C333.207 42.13 332.46 42.23 331.62 42.23C330.48 42.23 329.484 41.9967 328.63 41.53C327.777 41.0633 327.11 40.4133 326.63 39.58C326.157 38.7467 325.92 37.7933 325.92 36.72C325.92 35.62 326.16 34.6567 326.64 33.83C327.127 33.0033 327.8 32.36 328.66 31.9C329.52 31.4333 330.507 31.2 331.62 31.2C332.767 31.2 333.757 31.4333 334.59 31.9C335.43 32.3667 336.077 33.0167 336.53 33.85C336.984 34.6767 337.21 35.64 337.21 36.74C337.21 36.88 337.207 37.03 337.2 37.19C337.194 37.35 337.184 37.4667 337.17 37.54H327.37ZM339.379 42V31.38H342.009V34.91L341.399 34.57C341.465 34.11 341.589 33.6767 341.769 33.27C341.949 32.8567 342.189 32.4967 342.489 32.19C342.789 31.8767 343.152 31.6333 343.579 31.46C344.005 31.2867 344.492 31.2 345.039 31.2C345.472 31.2 345.812 31.2333 346.059 31.3C346.312 31.36 346.469 31.41 346.529 31.45L346.049 33.86C345.982 33.8133 345.845 33.7567 345.639 33.69C345.439 33.6167 345.169 33.58 344.829 33.58C344.289 33.58 343.835 33.6733 343.469 33.86C343.109 34.04 342.822 34.2867 342.609 34.6C342.395 34.9067 342.242 35.2467 342.149 35.62C342.055 35.9867 342.009 36.3533 342.009 36.72V42H339.379Z" fill="#25324B"/>
<path d="M136.168 62.9H132.76L133.072 62.124V73.5H131.712V62.124L132.096 62.9H128.624V61.7H136.168V62.9ZM137.102 69.796V68.58H143.67L143.43 68.98C143.43 68.948 143.43 68.9187 143.43 68.892C143.43 68.86 143.43 68.8307 143.43 68.804C143.43 68.3133 143.326 67.8653 143.118 67.46C142.915 67.0493 142.611 66.7213 142.206 66.476C141.8 66.2307 141.299 66.108 140.702 66.108C140.099 66.108 139.568 66.236 139.11 66.492C138.651 66.748 138.294 67.1107 138.038 67.58C137.782 68.044 137.654 68.5987 137.654 69.244C137.654 69.9 137.776 70.4653 138.022 70.94C138.272 71.4147 138.627 71.78 139.086 72.036C139.544 72.292 140.088 72.42 140.718 72.42C141.166 72.42 141.555 72.3747 141.886 72.284C142.216 72.188 142.488 72.0627 142.702 71.908C142.92 71.748 143.086 71.5747 143.198 71.388C143.31 71.2013 143.376 71.0147 143.398 70.828H144.758C144.731 71.1693 144.624 71.508 144.438 71.844C144.251 72.18 143.987 72.4867 143.646 72.764C143.304 73.036 142.886 73.2547 142.39 73.42C141.894 73.5853 141.323 73.668 140.678 73.668C139.824 73.668 139.072 73.4813 138.422 73.108C137.771 72.7347 137.259 72.2173 136.886 71.556C136.518 70.8947 136.334 70.1347 136.334 69.276C136.334 68.4067 136.52 67.644 136.894 66.988C137.267 66.3267 137.782 65.8093 138.438 65.436C139.094 65.0627 139.843 64.876 140.686 64.876C141.544 64.876 142.288 65.0627 142.918 65.436C143.547 65.8093 144.032 66.3213 144.374 66.972C144.715 67.6173 144.886 68.3533 144.886 69.18C144.886 69.2653 144.883 69.3773 144.878 69.516C144.872 69.6547 144.864 69.748 144.854 69.796H137.102ZM147.005 73.5V65.004H148.365V67.612L147.917 67.452C147.949 67.1373 148.029 66.828 148.157 66.524C148.285 66.2147 148.461 65.9373 148.685 65.692C148.915 65.4413 149.2 65.244 149.541 65.1C149.883 64.9507 150.283 64.876 150.741 64.876C151.083 64.876 151.36 64.9053 151.573 64.964C151.792 65.0173 151.928 65.06 151.981 65.092L151.629 66.428C151.576 66.3907 151.467 66.3427 151.301 66.284C151.141 66.2253 150.912 66.196 150.613 66.196C150.171 66.196 149.803 66.276 149.509 66.436C149.221 66.596 148.992 66.8093 148.821 67.076C148.656 67.3373 148.539 67.6227 148.469 67.932C148.4 68.2413 148.365 68.548 148.365 68.852V73.5H147.005ZM153.443 73.5V65.004H154.803V67.612L154.355 67.452C154.387 67.1373 154.467 66.828 154.595 66.524C154.723 66.2147 154.899 65.9373 155.123 65.692C155.352 65.4413 155.637 65.244 155.979 65.1C156.32 64.9507 156.72 64.876 157.179 64.876C157.52 64.876 157.797 64.9053 158.011 64.964C158.229 65.0173 158.365 65.06 158.419 65.092L158.067 66.428C158.013 66.3907 157.904 66.3427 157.739 66.284C157.579 66.2253 157.349 66.196 157.051 66.196C156.608 66.196 156.24 66.276 155.947 66.436C155.659 66.596 155.429 66.8093 155.259 67.076C155.093 67.3373 154.976 67.6227 154.907 67.932C154.837 68.2413 154.803 68.548 154.803 68.852V73.5H153.443ZM162.692 73.66C162.047 73.66 161.481 73.5587 160.996 73.356C160.516 73.1533 160.143 72.8627 159.876 72.484C159.609 72.1 159.476 71.6413 159.476 71.108C159.476 70.5533 159.62 70.092 159.908 69.724C160.196 69.3507 160.601 69.06 161.124 68.852C161.647 68.644 162.255 68.5053 162.948 68.436C163.993 68.3293 164.737 68.2253 165.18 68.124C165.623 68.0173 165.844 67.8467 165.844 67.612C165.844 67.6067 165.844 67.604 165.844 67.604C165.844 67.5987 165.844 67.5933 165.844 67.588C165.844 67.0973 165.644 66.732 165.244 66.492C164.844 66.2467 164.265 66.124 163.508 66.124C162.719 66.124 162.105 66.2627 161.668 66.54C161.231 66.812 161.012 67.2547 161.012 67.868H159.668C159.668 67.2333 159.831 66.6947 160.156 66.252C160.481 65.804 160.932 65.4627 161.508 65.228C162.089 64.9933 162.759 64.876 163.516 64.876C164.209 64.876 164.833 64.9827 165.388 65.196C165.948 65.404 166.391 65.716 166.716 66.132C167.047 66.5427 167.212 67.052 167.212 67.66C167.212 67.772 167.212 67.884 167.212 67.996C167.212 68.1027 167.212 68.212 167.212 68.324V71.9C167.212 72.0867 167.22 72.268 167.236 72.444C167.252 72.62 167.279 72.7747 167.316 72.908C167.364 73.068 167.417 73.1987 167.476 73.3C167.535 73.396 167.583 73.4627 167.62 73.5H166.252C166.225 73.4733 166.185 73.412 166.132 73.316C166.079 73.2147 166.028 73.0973 165.98 72.964C165.943 72.8573 165.913 72.724 165.892 72.564C165.871 72.3987 165.86 72.228 165.86 72.052L166.084 72.204C165.919 72.492 165.676 72.7453 165.356 72.964C165.041 73.1827 164.66 73.3533 164.212 73.476C163.764 73.5987 163.257 73.66 162.692 73.66ZM162.908 72.436C163.457 72.436 163.953 72.3533 164.396 72.188C164.839 72.0173 165.191 71.7667 165.452 71.436C165.713 71.1053 165.844 70.6947 165.844 70.204V68.516L166.148 69.028C165.807 69.1613 165.38 69.2707 164.868 69.356C164.361 69.436 163.831 69.5027 163.276 69.556C162.471 69.6307 161.863 69.772 161.452 69.98C161.047 70.188 160.844 70.5373 160.844 71.028C160.844 71.492 161.012 71.844 161.348 72.084C161.684 72.3187 162.204 72.436 162.908 72.436ZM170.522 73.5V66.204H168.666V65.004H170.522V63.908C170.522 63.5293 170.565 63.1827 170.65 62.868C170.741 62.548 170.869 62.2653 171.034 62.02C171.205 61.7747 171.41 61.5667 171.65 61.396C171.89 61.2253 172.162 61.0973 172.466 61.012C172.775 60.9213 173.111 60.876 173.474 60.876C173.735 60.876 173.943 60.892 174.098 60.924C174.253 60.956 174.357 60.9853 174.41 61.012V62.212C174.346 62.1907 174.239 62.1667 174.09 62.14C173.941 62.1133 173.781 62.1 173.61 62.1C173.247 62.1 172.951 62.156 172.722 62.268C172.498 62.38 172.325 62.5347 172.202 62.732C172.079 62.924 171.994 63.1427 171.946 63.388C171.903 63.6333 171.882 63.8893 171.882 64.156V65.004H174.362V66.204H171.882V73.5H170.522ZM179.529 73.652C178.676 73.652 177.921 73.4627 177.265 73.084C176.615 72.7 176.103 72.1773 175.729 71.516C175.361 70.8493 175.177 70.092 175.177 69.244C175.177 68.396 175.361 67.644 175.729 66.988C176.103 66.332 176.615 65.8173 177.265 65.444C177.921 65.0707 178.676 64.884 179.529 64.884C180.383 64.884 181.135 65.0707 181.785 65.444C182.441 65.8173 182.953 66.332 183.321 66.988C183.695 67.644 183.881 68.396 183.881 69.244C183.881 70.092 183.695 70.8493 183.321 71.516C182.953 72.1773 182.441 72.7 181.785 73.084C181.135 73.4627 180.383 73.652 179.529 73.652ZM179.529 72.404C180.116 72.404 180.633 72.2733 181.081 72.012C181.529 71.7507 181.879 71.3827 182.129 70.908C182.385 70.4333 182.513 69.8787 182.513 69.244C182.513 68.6093 182.385 68.06 182.129 67.596C181.879 67.1267 181.529 66.7667 181.081 66.516C180.633 66.26 180.116 66.132 179.529 66.132C178.948 66.132 178.431 66.26 177.977 66.516C177.529 66.7667 177.177 67.1267 176.921 67.596C176.671 68.06 176.545 68.6093 176.545 69.244C176.545 69.8787 176.671 70.4333 176.921 70.908C177.177 71.3827 177.529 71.7507 177.977 72.012C178.431 72.2733 178.948 72.404 179.529 72.404ZM186.005 73.5V65.004H187.365V67.612L186.917 67.452C186.949 67.1373 187.029 66.828 187.157 66.524C187.285 66.2147 187.461 65.9373 187.685 65.692C187.915 65.4413 188.2 65.244 188.541 65.1C188.883 64.9507 189.283 64.876 189.741 64.876C190.083 64.876 190.36 64.9053 190.573 64.964C190.792 65.0173 190.928 65.06 190.981 65.092L190.629 66.428C190.576 66.3907 190.467 66.3427 190.301 66.284C190.141 66.2253 189.912 66.196 189.613 66.196C189.171 66.196 188.803 66.276 188.509 66.436C188.221 66.596 187.992 66.8093 187.821 67.076C187.656 67.3373 187.539 67.6227 187.469 67.932C187.4 68.2413 187.365 68.548 187.365 68.852V73.5H186.005ZM197.667 73.5V69.748C197.667 69.4173 197.667 69.132 197.667 68.892C197.667 68.6467 197.667 68.4413 197.667 68.276C197.667 68.068 197.651 67.844 197.619 67.604C197.592 67.3587 197.525 67.1293 197.419 66.916C197.312 66.6973 197.144 66.5187 196.915 66.38C196.691 66.2413 196.379 66.172 195.979 66.172C195.573 66.172 195.232 66.252 194.955 66.412C194.677 66.5667 194.453 66.772 194.283 67.028C194.112 67.284 193.989 67.5667 193.915 67.876C193.84 68.18 193.803 68.4813 193.803 68.78L193.035 68.468C193.035 67.828 193.168 67.236 193.435 66.692C193.701 66.148 194.075 65.7107 194.555 65.38C195.04 65.044 195.608 64.876 196.259 64.876C196.904 64.876 197.429 65.0067 197.835 65.268C198.24 65.5293 198.539 65.8893 198.731 66.348C198.923 66.8067 199.019 67.3347 199.019 67.932C199.019 68.1453 199.019 68.42 199.019 68.756C199.019 69.0867 199.019 69.4653 199.019 69.892V73.5H197.667ZM192.443 73.5V65.004H193.803V73.5H192.443ZM202.875 73.5V69.748C202.875 69.3853 202.875 69.0867 202.875 68.852C202.875 68.612 202.875 68.4093 202.875 68.244C202.875 68.036 202.861 67.812 202.835 67.572C202.808 67.332 202.741 67.108 202.635 66.9C202.528 66.6867 202.357 66.5133 202.123 66.38C201.893 66.2413 201.571 66.172 201.155 66.172C200.744 66.172 200.4 66.2493 200.123 66.404C199.851 66.5587 199.632 66.7613 199.467 67.012C199.307 67.2627 199.192 67.5347 199.123 67.828C199.053 68.116 199.019 68.3933 199.019 68.66L198.251 68.364C198.251 67.756 198.379 67.188 198.635 66.66C198.896 66.1267 199.264 65.6973 199.739 65.372C200.219 65.0413 200.787 64.876 201.443 64.876C202.056 64.876 202.568 64.996 202.979 65.236C203.395 65.476 203.707 65.8147 203.915 66.252C204.128 66.684 204.235 67.1987 204.235 67.796C204.235 68.02 204.235 68.2973 204.235 68.628C204.235 68.9587 204.235 69.332 204.235 69.748V73.5H202.875Z" fill="#515B6F"/>
<circle cx="216" cy="69.5" r="2" fill="#515B6F"/>
<path d="M235.136 61.7V73.5H233.768V67.532L234.384 68.212H227.88L228.496 67.532V73.5H227.128V61.7H228.496V67.732L227.88 67.012H234.384L233.768 67.732V61.7H235.136ZM240.458 73.66C239.812 73.66 239.247 73.5587 238.762 73.356C238.282 73.1533 237.908 72.8627 237.642 72.484C237.375 72.1 237.242 71.6413 237.242 71.108C237.242 70.5533 237.386 70.092 237.674 69.724C237.962 69.3507 238.367 69.06 238.89 68.852C239.412 68.644 240.02 68.5053 240.714 68.436C241.759 68.3293 242.503 68.2253 242.946 68.124C243.388 68.0173 243.61 67.8467 243.61 67.612C243.61 67.6067 243.61 67.604 243.61 67.604C243.61 67.5987 243.61 67.5933 243.61 67.588C243.61 67.0973 243.41 66.732 243.01 66.492C242.61 66.2467 242.031 66.124 241.274 66.124C240.484 66.124 239.871 66.2627 239.434 66.54C238.996 66.812 238.778 67.2547 238.778 67.868H237.434C237.434 67.2333 237.596 66.6947 237.922 66.252C238.247 65.804 238.698 65.4627 239.274 65.228C239.855 64.9933 240.524 64.876 241.282 64.876C241.975 64.876 242.599 64.9827 243.154 65.196C243.714 65.404 244.156 65.716 244.482 66.132C244.812 66.5427 244.978 67.052 244.978 67.66C244.978 67.772 244.978 67.884 244.978 67.996C244.978 68.1027 244.978 68.212 244.978 68.324V71.9C244.978 72.0867 244.986 72.268 245.002 72.444C245.018 72.62 245.044 72.7747 245.082 72.908C245.13 73.068 245.183 73.1987 245.242 73.3C245.3 73.396 245.348 73.4627 245.386 73.5H244.018C243.991 73.4733 243.951 73.412 243.898 73.316C243.844 73.2147 243.794 73.0973 243.746 72.964C243.708 72.8573 243.679 72.724 243.658 72.564C243.636 72.3987 243.626 72.228 243.626 72.052L243.85 72.204C243.684 72.492 243.442 72.7453 243.122 72.964C242.807 73.1827 242.426 73.3533 241.978 73.476C241.53 73.5987 241.023 73.66 240.458 73.66ZM240.674 72.436C241.223 72.436 241.719 72.3533 242.162 72.188C242.604 72.0173 242.956 71.7667 243.218 71.436C243.479 71.1053 243.61 70.6947 243.61 70.204V68.516L243.914 69.028C243.572 69.1613 243.146 69.2707 242.634 69.356C242.127 69.436 241.596 69.5027 241.042 69.556C240.236 69.6307 239.628 69.772 239.218 69.98C238.812 70.188 238.61 70.5373 238.61 71.028C238.61 71.492 238.778 71.844 239.114 72.084C239.45 72.3187 239.97 72.436 240.674 72.436ZM252.464 73.5V69.748C252.464 69.4173 252.464 69.132 252.464 68.892C252.464 68.6467 252.464 68.4413 252.464 68.276C252.464 68.068 252.448 67.844 252.416 67.604C252.389 67.3587 252.322 67.1293 252.216 66.916C252.109 66.6973 251.941 66.5187 251.712 66.38C251.488 66.2413 251.176 66.172 250.776 66.172C250.37 66.172 250.029 66.252 249.752 66.412C249.474 66.5667 249.25 66.772 249.08 67.028C248.909 67.284 248.786 67.5667 248.712 67.876C248.637 68.18 248.6 68.4813 248.6 68.78L247.832 68.468C247.832 67.828 247.965 67.236 248.232 66.692C248.498 66.148 248.872 65.7107 249.352 65.38C249.837 65.044 250.405 64.876 251.056 64.876C251.701 64.876 252.226 65.0067 252.632 65.268C253.037 65.5293 253.336 65.8893 253.528 66.348C253.72 66.8067 253.816 67.3347 253.816 67.932C253.816 68.1453 253.816 68.42 253.816 68.756C253.816 69.0867 253.816 69.4653 253.816 69.892V73.5H252.464ZM247.24 73.5V65.004H248.6V73.5H247.24ZM257.672 73.5V69.748C257.672 69.3853 257.672 69.0867 257.672 68.852C257.672 68.612 257.672 68.4093 257.672 68.244C257.672 68.036 257.658 67.812 257.632 67.572C257.605 67.332 257.538 67.108 257.432 66.9C257.325 66.6867 257.154 66.5133 256.92 66.38C256.69 66.2413 256.368 66.172 255.952 66.172C255.541 66.172 255.197 66.2493 254.92 66.404C254.648 66.5587 254.429 66.7613 254.264 67.012C254.104 67.2627 253.989 67.5347 253.92 67.828C253.85 68.116 253.816 68.3933 253.816 68.66L253.048 68.364C253.048 67.756 253.176 67.188 253.432 66.66C253.693 66.1267 254.061 65.6973 254.536 65.372C255.016 65.0413 255.584 64.876 256.24 64.876C256.853 64.876 257.365 64.996 257.776 65.236C258.192 65.476 258.504 65.8147 258.712 66.252C258.925 66.684 259.032 67.1987 259.032 67.796C259.032 68.02 259.032 68.2973 259.032 68.628C259.032 68.9587 259.032 69.332 259.032 69.748V73.5H257.672ZM265.548 73.66C264.892 73.66 264.279 73.5 263.708 73.18C263.137 72.8547 262.673 72.4093 262.316 71.844C261.964 71.2787 261.788 70.6333 261.788 69.908C261.788 69.892 261.788 69.8787 261.788 69.868C261.788 69.8573 261.788 69.844 261.788 69.828L262.764 69.804C262.764 69.8147 262.764 69.828 262.764 69.844C262.764 69.8547 262.764 69.8653 262.764 69.876C262.764 70.3347 262.884 70.7533 263.124 71.132C263.369 71.5107 263.689 71.812 264.084 72.036C264.479 72.26 264.903 72.372 265.356 72.372C266.108 72.372 266.732 72.116 267.228 71.604C267.729 71.0867 267.98 70.3 267.98 69.244C267.98 68.1827 267.732 67.3987 267.236 66.892C266.74 66.38 266.113 66.124 265.356 66.124C264.903 66.124 264.479 66.236 264.084 66.46C263.689 66.6787 263.369 66.9747 263.124 67.348C262.884 67.7213 262.764 68.14 262.764 68.604L261.788 68.572C261.788 67.8413 261.964 67.1987 262.316 66.644C262.673 66.0893 263.137 65.6573 263.708 65.348C264.279 65.0333 264.892 64.876 265.548 64.876C266.236 64.876 266.871 65.0467 267.452 65.388C268.033 65.724 268.5 66.2173 268.852 66.868C269.204 67.5187 269.38 68.3107 269.38 69.244C269.38 70.1933 269.207 70.9987 268.86 71.66C268.513 72.316 268.049 72.8147 267.468 73.156C266.887 73.492 266.247 73.66 265.548 73.66ZM261.396 73.5V60.996H262.764V73.5H261.396ZM274.641 73.652C274.033 73.652 273.527 73.548 273.121 73.34C272.716 73.1267 272.393 72.852 272.153 72.516C271.919 72.18 271.751 71.8173 271.649 71.428C271.553 71.0333 271.505 70.6547 271.505 70.292C271.505 70.0893 271.505 69.8813 271.505 69.668C271.505 69.4493 271.505 69.2307 271.505 69.012V65.004H272.873V68.836C272.873 69.0333 272.873 69.228 272.873 69.42C272.873 69.612 272.873 69.7933 272.873 69.964C272.873 70.396 272.932 70.796 273.049 71.164C273.172 71.532 273.383 71.8307 273.681 72.06C273.98 72.284 274.391 72.396 274.913 72.396C275.404 72.396 275.833 72.2493 276.201 71.956C276.569 71.6573 276.857 71.2867 277.065 70.844C277.273 70.396 277.377 69.9507 277.377 69.508L278.169 69.836C278.169 70.3053 278.087 70.7667 277.921 71.22C277.756 71.668 277.519 72.076 277.209 72.444C276.905 72.812 276.535 73.1053 276.097 73.324C275.665 73.5427 275.18 73.652 274.641 73.652ZM277.377 73.5V65.004H278.737V73.5H277.377ZM281.099 73.5V65.004H282.459V67.612L282.011 67.452C282.043 67.1373 282.123 66.828 282.251 66.524C282.379 66.2147 282.555 65.9373 282.779 65.692C283.008 65.4413 283.294 65.244 283.635 65.1C283.976 64.9507 284.376 64.876 284.835 64.876C285.176 64.876 285.454 64.9053 285.667 64.964C285.886 65.0173 286.022 65.06 286.075 65.092L285.723 66.428C285.67 66.3907 285.56 66.3427 285.395 66.284C285.235 66.2253 285.006 66.196 284.707 66.196C284.264 66.196 283.896 66.276 283.603 66.436C283.315 66.596 283.086 66.8093 282.915 67.076C282.75 67.3373 282.632 67.6227 282.563 67.932C282.494 68.2413 282.459 68.548 282.459 68.852V73.5H281.099ZM292.711 72.98C293.169 73.0173 293.572 73.1027 293.919 73.236C294.271 73.364 294.545 73.5533 294.743 73.804C294.94 74.06 295.039 74.3933 295.039 74.804C295.039 75.2573 294.884 75.6573 294.575 76.004C294.265 76.356 293.796 76.6307 293.167 76.828C292.537 77.0253 291.745 77.124 290.791 77.124C289.441 77.124 288.423 76.9267 287.735 76.532C287.047 76.1427 286.703 75.6093 286.703 74.932C286.703 74.7187 286.727 74.5293 286.775 74.364C286.828 74.204 286.887 74.0733 286.951 73.972L288.247 74.164C288.204 74.2227 288.161 74.3107 288.118 74.428C288.081 74.5507 288.062 74.692 288.062 74.852C288.062 75.2787 288.305 75.5773 288.791 75.748C289.276 75.924 289.964 76.012 290.855 76.012C291.521 76.012 292.068 75.9667 292.495 75.876C292.921 75.7853 293.239 75.6547 293.447 75.484C293.655 75.3133 293.759 75.1133 293.759 74.884C293.759 74.5373 293.612 74.3213 293.319 74.236C293.031 74.156 292.673 74.1 292.247 74.068L289.015 73.828C288.476 73.7853 288.036 73.62 287.695 73.332C287.359 73.0387 287.191 72.684 287.191 72.268C287.191 72.012 287.252 71.7693 287.375 71.54C287.503 71.3107 287.649 71.1187 287.815 70.964C287.985 70.804 288.137 70.708 288.271 70.676L289.343 71.164C289.209 71.1853 289.044 71.2787 288.847 71.444C288.655 71.604 288.559 71.7933 288.559 72.012C288.559 72.2093 288.636 72.372 288.791 72.5C288.945 72.6227 289.252 72.7027 289.711 72.74L292.711 72.98ZM293.887 65.004H295.167L294.639 68.348C294.543 68.972 294.343 69.5373 294.039 70.044C293.735 70.5453 293.319 70.9453 292.791 71.244C292.268 71.5373 291.62 71.684 290.847 71.684C290.041 71.684 289.353 71.5373 288.783 71.244C288.212 70.9507 287.775 70.5507 287.471 70.044C287.167 69.532 287.015 68.956 287.015 68.316C287.015 67.6653 287.172 67.0813 287.487 66.564C287.807 66.0413 288.249 65.6307 288.815 65.332C289.38 65.028 290.028 64.876 290.759 64.876C291.415 64.876 291.988 64.9907 292.479 65.22C292.969 65.444 293.356 65.7267 293.639 66.068C293.927 66.4093 294.087 66.7533 294.119 67.1L293.607 67.132L293.887 65.004ZM290.839 70.468C291.356 70.468 291.799 70.3827 292.167 70.212C292.54 70.0413 292.825 69.7933 293.023 69.468C293.225 69.1427 293.327 68.748 293.327 68.284C293.327 67.836 293.225 67.4493 293.023 67.124C292.825 66.7933 292.54 66.54 292.167 66.364C291.799 66.1827 291.359 66.092 290.847 66.092C290.356 66.092 289.921 66.1853 289.543 66.372C289.169 66.5533 288.876 66.8093 288.663 67.14C288.455 67.4707 288.351 67.86 288.351 68.308C288.351 68.7613 288.449 69.1507 288.647 69.476C288.849 69.796 289.135 70.0413 289.503 70.212C289.876 70.3827 290.321 70.468 290.839 70.468ZM297.189 75.66L296.981 75.276C297.162 75.196 297.357 75.0573 297.565 74.86C297.773 74.6627 297.951 74.4413 298.101 74.196C298.25 73.956 298.325 73.7293 298.325 73.516C298.325 73.4573 298.317 73.4013 298.301 73.348C298.29 73.2947 298.271 73.244 298.245 73.196H298.621C298.546 73.3773 298.423 73.508 298.253 73.588C298.082 73.668 297.919 73.708 297.765 73.708C297.498 73.708 297.271 73.6307 297.085 73.476C296.898 73.3213 296.805 73.1 296.805 72.812C296.805 72.524 296.906 72.2947 297.109 72.124C297.317 71.9533 297.583 71.868 297.909 71.868C298.255 71.868 298.527 71.972 298.725 72.18C298.927 72.388 299.029 72.6813 299.029 73.06C299.029 73.4333 298.933 73.7987 298.741 74.156C298.549 74.5133 298.311 74.8253 298.029 75.092C297.746 75.3587 297.466 75.548 297.189 75.66ZM309.724 73.66C308.844 73.66 308.044 73.42 307.324 72.94C306.604 72.46 306.031 71.7693 305.604 70.868C305.178 69.9667 304.964 68.8813 304.964 67.612C304.964 66.3427 305.18 65.2573 305.612 64.356C306.044 63.4547 306.628 62.764 307.364 62.284C308.106 61.7987 308.935 61.556 309.852 61.556C310.599 61.556 311.231 61.6867 311.748 61.948C312.271 62.204 312.695 62.5373 313.02 62.948C313.351 63.3533 313.591 63.7853 313.74 64.244C313.89 64.6973 313.964 65.124 313.964 65.524C313.964 65.54 313.964 65.556 313.964 65.572C313.964 65.588 313.964 65.604 313.964 65.62H312.636C312.636 65.604 312.636 65.588 312.636 65.572C312.636 65.556 312.636 65.54 312.636 65.524C312.636 65.204 312.58 64.884 312.468 64.564C312.362 64.2387 312.194 63.9453 311.964 63.684C311.735 63.4173 311.444 63.204 311.092 63.044C310.746 62.884 310.332 62.804 309.852 62.804C309.207 62.804 308.618 62.98 308.084 63.332C307.556 63.684 307.132 64.2173 306.812 64.932C306.498 65.6413 306.34 66.5347 306.34 67.612C306.34 68.4387 306.428 69.156 306.604 69.764C306.78 70.3667 307.023 70.8653 307.332 71.26C307.642 71.6547 308.002 71.948 308.412 72.14C308.828 72.332 309.276 72.428 309.756 72.428C310.391 72.428 310.911 72.3187 311.316 72.1C311.727 71.8813 312.044 71.6093 312.268 71.284C312.492 70.9533 312.636 70.628 312.7 70.308V69.068H309.812V67.924H313.932V73.5H312.916L312.844 72.188C312.802 72.268 312.714 72.388 312.58 72.548C312.447 72.708 312.258 72.8733 312.012 73.044C311.772 73.2147 311.463 73.3613 311.084 73.484C310.706 73.6013 310.252 73.66 309.724 73.66ZM316.758 69.796V68.58H323.326L323.086 68.98C323.086 68.948 323.086 68.9187 323.086 68.892C323.086 68.86 323.086 68.8307 323.086 68.804C323.086 68.3133 322.982 67.8653 322.774 67.46C322.571 67.0493 322.267 66.7213 321.862 66.476C321.456 66.2307 320.955 66.108 320.358 66.108C319.755 66.108 319.224 66.236 318.766 66.492C318.307 66.748 317.95 67.1107 317.694 67.58C317.438 68.044 317.31 68.5987 317.31 69.244C317.31 69.9 317.432 70.4653 317.678 70.94C317.928 71.4147 318.283 71.78 318.742 72.036C319.2 72.292 319.744 72.42 320.374 72.42C320.822 72.42 321.211 72.3747 321.542 72.284C321.872 72.188 322.144 72.0627 322.358 71.908C322.576 71.748 322.742 71.5747 322.854 71.388C322.966 71.2013 323.032 71.0147 323.054 70.828H324.414C324.387 71.1693 324.28 71.508 324.094 71.844C323.907 72.18 323.643 72.4867 323.302 72.764C322.96 73.036 322.542 73.2547 322.046 73.42C321.55 73.5853 320.979 73.668 320.334 73.668C319.48 73.668 318.728 73.4813 318.078 73.108C317.427 72.7347 316.915 72.2173 316.542 71.556C316.174 70.8947 315.99 70.1347 315.99 69.276C315.99 68.4067 316.176 67.644 316.55 66.988C316.923 66.3267 317.438 65.8093 318.094 65.436C318.75 65.0627 319.499 64.876 320.342 64.876C321.2 64.876 321.944 65.0627 322.574 65.436C323.203 65.8093 323.688 66.3213 324.03 66.972C324.371 67.6173 324.542 68.3533 324.542 69.18C324.542 69.2653 324.539 69.3773 324.534 69.516C324.528 69.6547 324.52 69.748 324.51 69.796H316.758ZM326.662 73.5V65.004H328.022V67.612L327.574 67.452C327.606 67.1373 327.686 66.828 327.814 66.524C327.942 66.2147 328.118 65.9373 328.342 65.692C328.571 65.4413 328.856 65.244 329.198 65.1C329.539 64.9507 329.939 64.876 330.398 64.876C330.739 64.876 331.016 64.9053 331.23 64.964C331.448 65.0173 331.584 65.06 331.638 65.092L331.286 66.428C331.232 66.3907 331.123 66.3427 330.958 66.284C330.798 66.2253 330.568 66.196 330.27 66.196C329.827 66.196 329.459 66.276 329.166 66.436C328.878 66.596 328.648 66.8093 328.478 67.076C328.312 67.3373 328.195 67.6227 328.126 67.932C328.056 68.2413 328.022 68.548 328.022 68.852V73.5H326.662ZM338.323 73.5V69.748C338.323 69.4173 338.323 69.132 338.323 68.892C338.323 68.6467 338.323 68.4413 338.323 68.276C338.323 68.068 338.307 67.844 338.275 67.604C338.248 67.3587 338.182 67.1293 338.075 66.916C337.968 66.6973 337.8 66.5187 337.571 66.38C337.347 66.2413 337.035 66.172 336.635 66.172C336.23 66.172 335.888 66.252 335.611 66.412C335.334 66.5667 335.11 66.772 334.939 67.028C334.768 67.284 334.646 67.5667 334.571 67.876C334.496 68.18 334.459 68.4813 334.459 68.78L333.691 68.468C333.691 67.828 333.824 67.236 334.091 66.692C334.358 66.148 334.731 65.7107 335.211 65.38C335.696 65.044 336.264 64.876 336.915 64.876C337.56 64.876 338.086 65.0067 338.491 65.268C338.896 65.5293 339.195 65.8893 339.387 66.348C339.579 66.8067 339.675 67.3347 339.675 67.932C339.675 68.1453 339.675 68.42 339.675 68.756C339.675 69.0867 339.675 69.4653 339.675 69.892V73.5H338.323ZM333.099 73.5V65.004H334.459V73.5H333.099ZM343.531 73.5V69.748C343.531 69.3853 343.531 69.0867 343.531 68.852C343.531 68.612 343.531 68.4093 343.531 68.244C343.531 68.036 343.518 67.812 343.491 67.572C343.464 67.332 343.398 67.108 343.291 66.9C343.184 66.6867 343.014 66.5133 342.779 66.38C342.55 66.2413 342.227 66.172 341.811 66.172C341.4 66.172 341.056 66.2493 340.779 66.404C340.507 66.5587 340.288 66.7613 340.123 67.012C339.963 67.2627 339.848 67.5347 339.779 67.828C339.71 68.116 339.675 68.3933 339.675 68.66L338.907 68.364C338.907 67.756 339.035 67.188 339.291 66.66C339.552 66.1267 339.92 65.6973 340.395 65.372C340.875 65.0413 341.443 64.876 342.099 64.876C342.712 64.876 343.224 64.996 343.635 65.236C344.051 65.476 344.363 65.8147 344.571 66.252C344.784 66.684 344.891 67.1987 344.891 67.796C344.891 68.02 344.891 68.2973 344.891 68.628C344.891 68.9587 344.891 69.332 344.891 69.748V73.5H343.531ZM350.223 73.66C349.578 73.66 349.013 73.5587 348.527 73.356C348.047 73.1533 347.674 72.8627 347.407 72.484C347.141 72.1 347.007 71.6413 347.007 71.108C347.007 70.5533 347.151 70.092 347.439 69.724C347.727 69.3507 348.133 69.06 348.655 68.852C349.178 68.644 349.786 68.5053 350.479 68.436C351.525 68.3293 352.269 68.2253 352.711 68.124C353.154 68.0173 353.375 67.8467 353.375 67.612C353.375 67.6067 353.375 67.604 353.375 67.604C353.375 67.5987 353.375 67.5933 353.375 67.588C353.375 67.0973 353.175 66.732 352.775 66.492C352.375 66.2467 351.797 66.124 351.039 66.124C350.25 66.124 349.637 66.2627 349.199 66.54C348.762 66.812 348.543 67.2547 348.543 67.868H347.199C347.199 67.2333 347.362 66.6947 347.687 66.252C348.013 65.804 348.463 65.4627 349.039 65.228C349.621 64.9933 350.29 64.876 351.047 64.876C351.741 64.876 352.365 64.9827 352.919 65.196C353.479 65.404 353.922 65.716 354.247 66.132C354.578 66.5427 354.743 67.052 354.743 67.66C354.743 67.772 354.743 67.884 354.743 67.996C354.743 68.1027 354.743 68.212 354.743 68.324V71.9C354.743 72.0867 354.751 72.268 354.767 72.444C354.783 72.62 354.81 72.7747 354.847 72.908C354.895 73.068 354.949 73.1987 355.007 73.3C355.066 73.396 355.114 73.4627 355.151 73.5H353.783C353.757 73.4733 353.717 73.412 353.663 73.316C353.61 73.2147 353.559 73.0973 353.511 72.964C353.474 72.8573 353.445 72.724 353.423 72.564C353.402 72.3987 353.391 72.228 353.391 72.052L353.615 72.204C353.45 72.492 353.207 72.7453 352.887 72.964C352.573 73.1827 352.191 73.3533 351.743 73.476C351.295 73.5987 350.789 73.66 350.223 73.66ZM350.439 72.436C350.989 72.436 351.485 72.3533 351.927 72.188C352.37 72.0173 352.722 71.7667 352.983 71.436C353.245 71.1053 353.375 70.6947 353.375 70.204V68.516L353.679 69.028C353.338 69.1613 352.911 69.2707 352.399 69.356C351.893 69.436 351.362 69.5027 350.807 69.556C350.002 69.6307 349.394 69.772 348.983 69.98C348.578 70.188 348.375 70.5373 348.375 71.028C348.375 71.492 348.543 71.844 348.879 72.084C349.215 72.3187 349.735 72.436 350.439 72.436ZM363.085 73.5V69.428C363.085 69.1827 363.085 68.9827 363.085 68.828C363.085 68.668 363.085 68.516 363.085 68.372C363.085 67.9293 363.011 67.5427 362.861 67.212C362.712 66.8813 362.477 66.6253 362.157 66.444C361.837 66.2627 361.419 66.172 360.901 66.172C360.448 66.172 360.027 66.2893 359.637 66.524C359.253 66.7533 358.944 67.0653 358.709 67.46C358.48 67.8493 358.365 68.2867 358.365 68.772L357.589 68.476C357.589 67.8093 357.752 67.204 358.077 66.66C358.408 66.116 358.845 65.684 359.389 65.364C359.939 65.0387 360.536 64.876 361.181 64.876C361.837 64.876 362.411 65.0013 362.901 65.252C363.392 65.5027 363.771 65.8627 364.037 66.332C364.309 66.796 364.445 67.356 364.445 68.012C364.445 68.2467 364.445 68.5027 364.445 68.78C364.445 69.0573 364.445 69.316 364.445 69.556V73.5H363.085ZM357.005 73.5V65.004H358.365V73.5H357.005ZM366.761 77.084C366.548 77.084 366.353 77.0707 366.177 77.044C366.001 77.0227 365.892 77.0013 365.849 76.98V75.796C365.919 75.828 366.033 75.8547 366.193 75.876C366.353 75.8973 366.513 75.908 366.673 75.908C367.015 75.908 367.303 75.836 367.537 75.692C367.772 75.5533 367.969 75.3613 368.129 75.116C368.289 74.876 368.42 74.604 368.521 74.3L368.777 73.548L365.849 65.004H367.273L369.625 72.324H369.433L371.737 65.004H373.137L370.025 74.228C369.849 74.7453 369.636 75.22 369.385 75.652C369.14 76.084 368.809 76.4307 368.393 76.692C367.983 76.9533 367.439 77.084 366.761 77.084Z" fill="#515B6F"/>
<rect x="128" y="91" width="83" height="34" rx="17" fill="#56CDAD" fill-opacity="0.1"/>
<path d="M139.904 103.145L140.737 102.228V106.701L140.163 106.204H144.377V107.681H140.163L140.737 107.149V112H138.903V101.675H145V103.145H139.904ZM148.83 112.14C148.303 112.14 147.864 112.051 147.514 111.874C147.169 111.697 146.896 111.463 146.695 111.174C146.499 110.885 146.359 110.565 146.275 110.215C146.196 109.865 146.156 109.515 146.156 109.165C146.156 108.992 146.156 108.813 146.156 108.626C146.156 108.439 146.156 108.25 146.156 108.059V104.566H148.004V107.772C148.004 107.94 148.004 108.101 148.004 108.255C148.004 108.409 148.004 108.554 148.004 108.689C148.004 109.02 148.044 109.328 148.123 109.613C148.203 109.893 148.347 110.119 148.557 110.292C148.772 110.465 149.073 110.551 149.46 110.551C149.829 110.551 150.146 110.444 150.412 110.229C150.678 110.01 150.884 109.734 151.028 109.403C151.178 109.072 151.252 108.736 151.252 108.395L151.882 108.815C151.882 109.268 151.812 109.695 151.672 110.096C151.532 110.493 151.329 110.845 151.063 111.153C150.797 111.461 150.475 111.704 150.097 111.881C149.724 112.054 149.302 112.14 148.83 112.14ZM151.252 112V104.566H153.093V112H151.252ZM156.783 101.059V112H154.97V101.059H156.783ZM160.584 101.059V112H158.771V101.059H160.584ZM162.103 108.605V107.464H167.122V108.605H162.103ZM174.393 103.145H171.124L171.803 102.228V112H169.955V102.228L170.669 103.145H167.372V101.675H174.393V103.145ZM175.776 112V104.566H177.596V112H175.776ZM176.693 103.194C176.394 103.194 176.133 103.115 175.909 102.956C175.689 102.793 175.58 102.566 175.58 102.277C175.58 101.992 175.689 101.771 175.909 101.612C176.133 101.453 176.394 101.374 176.693 101.374C176.987 101.374 177.243 101.453 177.463 101.612C177.682 101.771 177.792 101.992 177.792 102.277C177.792 102.566 177.682 102.793 177.463 102.956C177.243 103.115 176.987 103.194 176.693 103.194ZM184.04 112V108.983C184.04 108.708 184.04 108.467 184.04 108.262C184.04 108.052 184.04 107.877 184.04 107.737C184.04 107.555 184.028 107.366 184.005 107.17C183.982 106.969 183.93 106.785 183.851 106.617C183.772 106.449 183.648 106.314 183.48 106.211C183.317 106.104 183.09 106.05 182.801 106.05C182.521 106.05 182.283 106.108 182.087 106.225C181.896 106.337 181.737 106.489 181.611 106.68C181.49 106.867 181.401 107.081 181.345 107.324C181.289 107.562 181.261 107.807 181.261 108.059L180.645 107.646C180.645 107.035 180.759 106.489 180.988 106.008C181.217 105.527 181.541 105.147 181.961 104.867C182.386 104.582 182.887 104.44 183.466 104.44C184.063 104.44 184.537 104.566 184.887 104.818C185.237 105.065 185.487 105.401 185.636 105.826C185.79 106.251 185.867 106.727 185.867 107.254C185.867 107.45 185.867 107.711 185.867 108.038C185.867 108.36 185.867 108.74 185.867 109.179V112H184.04ZM179.42 112V104.566H181.261V112H179.42ZM188.632 112V108.99C188.632 108.696 188.632 108.446 188.632 108.241C188.632 108.036 188.632 107.863 188.632 107.723C188.632 107.527 188.62 107.331 188.597 107.135C188.574 106.934 188.522 106.755 188.443 106.596C188.364 106.433 188.24 106.302 188.072 106.204C187.904 106.101 187.675 106.05 187.386 106.05C187.101 106.05 186.861 106.106 186.665 106.218C186.474 106.33 186.32 106.479 186.203 106.666C186.086 106.853 186 107.063 185.944 107.296C185.893 107.529 185.867 107.763 185.867 107.996L185.251 107.59C185.251 106.997 185.363 106.463 185.587 105.987C185.811 105.511 186.133 105.135 186.553 104.86C186.973 104.58 187.472 104.44 188.051 104.44C188.634 104.44 189.103 104.559 189.458 104.797C189.813 105.035 190.069 105.362 190.228 105.777C190.391 106.188 190.473 106.657 190.473 107.184C190.473 107.389 190.473 107.651 190.473 107.968C190.473 108.285 190.473 108.661 190.473 109.095V112H188.632ZM192.93 108.878V107.569H198.131L197.921 107.919C197.921 107.891 197.921 107.861 197.921 107.828C197.921 107.791 197.921 107.76 197.921 107.737C197.921 107.415 197.849 107.114 197.704 106.834C197.56 106.549 197.34 106.321 197.046 106.148C196.752 105.971 196.379 105.882 195.926 105.882C195.478 105.882 195.089 105.978 194.757 106.169C194.431 106.356 194.176 106.626 193.994 106.981C193.817 107.336 193.728 107.76 193.728 108.255C193.728 108.764 193.815 109.202 193.987 109.571C194.16 109.935 194.412 110.215 194.743 110.411C195.079 110.602 195.488 110.698 195.968 110.698C196.295 110.698 196.577 110.668 196.815 110.607C197.053 110.546 197.247 110.465 197.396 110.362C197.55 110.255 197.665 110.14 197.739 110.019C197.819 109.898 197.865 109.776 197.879 109.655H199.713C199.685 109.968 199.58 110.273 199.398 110.572C199.221 110.866 198.971 111.134 198.649 111.377C198.327 111.615 197.935 111.806 197.473 111.951C197.016 112.091 196.493 112.161 195.905 112.161C195.107 112.161 194.41 111.998 193.812 111.671C193.215 111.344 192.748 110.889 192.412 110.306C192.081 109.723 191.915 109.055 191.915 108.304C191.915 107.534 192.083 106.86 192.419 106.281C192.76 105.702 193.231 105.252 193.833 104.93C194.435 104.603 195.126 104.44 195.905 104.44C196.708 104.44 197.401 104.603 197.984 104.93C198.572 105.257 199.025 105.712 199.342 106.295C199.66 106.874 199.818 107.548 199.818 108.318C199.818 108.416 199.816 108.521 199.811 108.633C199.807 108.745 199.8 108.827 199.79 108.878H192.93Z" fill="#56CDAD"/>
<rect x="219" y="91" width="1" height="34" fill="#D6DDEB"/>
<rect x="228.5" y="91.5" width="91" height="33" rx="16.5" stroke="#FFB836"/>
<path d="M246.225 101.675H249.361V112H247.604V102.851L247.646 102.865L245.427 112H242.963L240.716 102.858L240.758 102.837V112H239.001V101.675H242.137L244.23 110.992H244.111L246.225 101.675ZM253.831 112.154C253.276 112.154 252.788 112.068 252.368 111.895C251.948 111.718 251.619 111.463 251.381 111.132C251.143 110.801 251.024 110.402 251.024 109.935C251.024 109.426 251.162 109.009 251.437 108.682C251.717 108.351 252.093 108.096 252.564 107.919C253.036 107.737 253.558 107.62 254.132 107.569C254.982 107.485 255.574 107.406 255.91 107.331C256.251 107.252 256.421 107.126 256.421 106.953C256.421 106.948 256.421 106.946 256.421 106.946C256.421 106.941 256.421 106.939 256.421 106.939C256.421 106.612 256.274 106.36 255.98 106.183C255.686 106.006 255.271 105.917 254.734 105.917C254.17 105.917 253.736 106.017 253.432 106.218C253.134 106.414 252.984 106.727 252.984 107.156H251.164C251.164 106.573 251.318 106.08 251.626 105.679C251.939 105.273 252.366 104.965 252.907 104.755C253.449 104.545 254.062 104.44 254.748 104.44C255.388 104.44 255.973 104.536 256.505 104.727C257.037 104.918 257.464 105.208 257.786 105.595C258.108 105.982 258.269 106.465 258.269 107.044C258.269 107.142 258.269 107.24 258.269 107.338C258.269 107.436 258.269 107.534 258.269 107.632V110.432C258.269 110.609 258.274 110.784 258.283 110.957C258.297 111.125 258.323 111.277 258.36 111.412C258.407 111.561 258.463 111.687 258.528 111.79C258.594 111.893 258.645 111.963 258.682 112H256.862C256.83 111.967 256.783 111.904 256.722 111.811C256.666 111.713 256.615 111.601 256.568 111.475C256.522 111.335 256.487 111.186 256.463 111.027C256.44 110.864 256.428 110.684 256.428 110.488L256.792 110.74C256.652 111.025 256.438 111.274 256.148 111.489C255.864 111.699 255.523 111.862 255.126 111.979C254.73 112.096 254.298 112.154 253.831 112.154ZM254.279 110.705C254.662 110.705 255.017 110.64 255.343 110.509C255.67 110.378 255.934 110.178 256.134 109.907C256.335 109.632 256.435 109.279 256.435 108.85V107.856L256.883 108.36C256.585 108.472 256.225 108.565 255.805 108.64C255.385 108.71 254.961 108.766 254.531 108.808C253.981 108.859 253.565 108.955 253.285 109.095C253.01 109.235 252.872 109.464 252.872 109.781C252.872 110.089 252.989 110.32 253.222 110.474C253.456 110.628 253.808 110.705 254.279 110.705ZM259.979 112V104.566H261.82V107.037L261.393 106.799C261.439 106.477 261.526 106.174 261.652 105.889C261.778 105.6 261.946 105.348 262.156 105.133C262.366 104.914 262.62 104.743 262.919 104.622C263.217 104.501 263.558 104.44 263.941 104.44C264.244 104.44 264.482 104.463 264.655 104.51C264.832 104.552 264.942 104.587 264.984 104.615L264.648 106.302C264.601 106.269 264.505 106.23 264.361 106.183C264.221 106.132 264.032 106.106 263.794 106.106C263.416 106.106 263.098 106.171 262.842 106.302C262.59 106.428 262.389 106.601 262.24 106.82C262.09 107.035 261.983 107.273 261.918 107.534C261.852 107.791 261.82 108.047 261.82 108.304V112H259.979ZM266.145 112V101.059H267.895V107.471L267.496 107.275L270.569 104.566H272.858L269.218 107.807L269.631 107.051L272.823 112H270.877L268.427 108.031L268.875 108.108L267.685 109.172L267.895 108.353V112H266.145ZM274.186 108.878V107.569H279.387L279.177 107.919C279.177 107.891 279.177 107.861 279.177 107.828C279.177 107.791 279.177 107.76 279.177 107.737C279.177 107.415 279.105 107.114 278.96 106.834C278.816 106.549 278.596 106.321 278.302 106.148C278.008 105.971 277.635 105.882 277.182 105.882C276.734 105.882 276.345 105.978 276.013 106.169C275.687 106.356 275.432 106.626 275.25 106.981C275.073 107.336 274.984 107.76 274.984 108.255C274.984 108.764 275.071 109.202 275.243 109.571C275.416 109.935 275.668 110.215 275.999 110.411C276.335 110.602 276.744 110.698 277.224 110.698C277.551 110.698 277.833 110.668 278.071 110.607C278.309 110.546 278.503 110.465 278.652 110.362C278.806 110.255 278.921 110.14 278.995 110.019C279.075 109.898 279.121 109.776 279.135 109.655H280.969C280.941 109.968 280.836 110.273 280.654 110.572C280.477 110.866 280.227 111.134 279.905 111.377C279.583 111.615 279.191 111.806 278.729 111.951C278.272 112.091 277.749 112.161 277.161 112.161C276.363 112.161 275.666 111.998 275.068 111.671C274.471 111.344 274.004 110.889 273.668 110.306C273.337 109.723 273.171 109.055 273.171 108.304C273.171 107.534 273.339 106.86 273.675 106.281C274.016 105.702 274.487 105.252 275.089 104.93C275.691 104.603 276.382 104.44 277.161 104.44C277.964 104.44 278.657 104.603 279.24 104.93C279.828 105.257 280.281 105.712 280.598 106.295C280.916 106.874 281.074 107.548 281.074 108.318C281.074 108.416 281.072 108.521 281.067 108.633C281.063 108.745 281.056 108.827 281.046 108.878H274.186ZM285.926 112.14C285.66 112.14 285.389 112.114 285.114 112.063C284.839 112.012 284.587 111.916 284.358 111.776C284.129 111.636 283.945 111.431 283.805 111.16C283.665 110.889 283.595 110.532 283.595 110.089C283.595 109.986 283.595 109.884 283.595 109.781C283.595 109.674 283.595 109.564 283.595 109.452V106.036H281.838V104.566H282.552C282.795 104.566 282.986 104.557 283.126 104.538C283.266 104.515 283.369 104.463 283.434 104.384C283.499 104.305 283.541 104.181 283.56 104.013C283.583 103.84 283.595 103.602 283.595 103.299V102.116H285.443V104.566H287.655V106.036H285.443V109.018C285.443 109.107 285.443 109.195 285.443 109.284C285.443 109.368 285.443 109.45 285.443 109.529C285.443 109.874 285.485 110.152 285.569 110.362C285.653 110.572 285.851 110.677 286.164 110.677C286.313 110.677 286.453 110.663 286.584 110.635C286.719 110.607 286.82 110.579 286.885 110.551V111.993C286.796 112.026 286.668 112.058 286.5 112.091C286.332 112.124 286.141 112.14 285.926 112.14ZM289.01 112V104.566H290.83V112H289.01ZM289.927 103.194C289.628 103.194 289.367 103.115 289.143 102.956C288.924 102.793 288.814 102.566 288.814 102.277C288.814 101.992 288.924 101.771 289.143 101.612C289.367 101.453 289.628 101.374 289.927 101.374C290.221 101.374 290.478 101.453 290.697 101.612C290.916 101.771 291.026 101.992 291.026 102.277C291.026 102.566 290.916 102.793 290.697 102.956C290.478 103.115 290.221 103.194 289.927 103.194ZM297.911 112V108.703C297.911 108.516 297.911 108.353 297.911 108.213C297.911 108.068 297.911 107.938 297.911 107.821C297.911 107.485 297.862 107.184 297.764 106.918C297.671 106.647 297.508 106.435 297.274 106.281C297.046 106.127 296.728 106.05 296.322 106.05C295.968 106.05 295.653 106.136 295.377 106.309C295.102 106.477 294.885 106.71 294.726 107.009C294.572 107.303 294.495 107.644 294.495 108.031L293.872 107.646C293.872 107.025 294.012 106.475 294.292 105.994C294.577 105.509 294.957 105.128 295.433 104.853C295.909 104.578 296.437 104.44 297.015 104.44C297.613 104.44 298.114 104.557 298.52 104.79C298.931 105.023 299.239 105.355 299.444 105.784C299.654 106.213 299.759 106.717 299.759 107.296C299.759 107.52 299.759 107.772 299.759 108.052C299.759 108.332 299.759 108.607 299.759 108.878V112H297.911ZM292.654 112V104.566H294.495V112H292.654ZM306.526 111.265C306.964 111.307 307.349 111.389 307.681 111.51C308.012 111.631 308.271 111.811 308.458 112.049C308.644 112.292 308.738 112.614 308.738 113.015C308.738 113.463 308.586 113.85 308.283 114.177C307.979 114.504 307.534 114.756 306.946 114.933C306.362 115.11 305.644 115.199 304.79 115.199C303.548 115.199 302.594 115.019 301.927 114.66C301.259 114.305 300.926 113.822 300.926 113.211C300.926 113.038 300.947 112.882 300.989 112.742C301.031 112.602 301.082 112.485 301.143 112.392L302.83 112.637C302.802 112.674 302.774 112.733 302.746 112.812C302.718 112.896 302.704 112.996 302.704 113.113C302.704 113.402 302.897 113.61 303.285 113.736C303.677 113.867 304.197 113.932 304.846 113.932C305.322 113.932 305.718 113.899 306.036 113.834C306.358 113.769 306.6 113.675 306.764 113.554C306.932 113.433 307.016 113.29 307.016 113.127C307.016 112.884 306.906 112.728 306.687 112.658C306.467 112.588 306.206 112.541 305.903 112.518L303.082 112.259C302.578 112.208 302.162 112.058 301.836 111.811C301.514 111.564 301.353 111.237 301.353 110.831C301.353 110.584 301.418 110.355 301.549 110.145C301.684 109.935 301.838 109.76 302.011 109.62C302.183 109.475 302.33 109.387 302.452 109.354L303.502 109.872C303.404 109.886 303.287 109.949 303.152 110.061C303.021 110.173 302.956 110.306 302.956 110.46C302.956 110.605 303.021 110.726 303.152 110.824C303.282 110.917 303.534 110.983 303.908 111.02L306.526 111.265ZM307.359 104.566H309.011L308.339 107.45C308.213 107.991 308.01 108.477 307.73 108.906C307.45 109.335 307.076 109.674 306.61 109.921C306.143 110.168 305.555 110.292 304.846 110.292C304.108 110.292 303.471 110.173 302.935 109.935C302.403 109.692 301.992 109.354 301.703 108.92C301.413 108.481 301.269 107.977 301.269 107.408C301.269 106.825 301.416 106.311 301.71 105.868C302.008 105.42 302.417 105.07 302.935 104.818C303.457 104.566 304.048 104.44 304.706 104.44C305.238 104.44 305.716 104.529 306.141 104.706C306.565 104.879 306.904 105.105 307.156 105.385C307.412 105.665 307.55 105.964 307.569 106.281L307.156 106.358L307.359 104.566ZM304.839 108.871C305.198 108.871 305.508 108.813 305.77 108.696C306.031 108.579 306.234 108.411 306.379 108.192C306.523 107.968 306.596 107.697 306.596 107.38C306.596 107.067 306.523 106.799 306.379 106.575C306.234 106.351 306.031 106.181 305.77 106.064C305.508 105.943 305.2 105.882 304.846 105.882C304.5 105.882 304.195 105.943 303.929 106.064C303.663 106.185 303.453 106.36 303.299 106.589C303.149 106.813 303.075 107.081 303.075 107.394C303.075 107.707 303.147 107.975 303.292 108.199C303.441 108.418 303.646 108.586 303.908 108.703C304.174 108.815 304.484 108.871 304.839 108.871Z" fill="#FFB836"/>
<rect x="328.5" y="91.5" width="67" height="33" rx="16.5" stroke="#4640DE"/>
<path d="M338.903 112V101.675H341.99C342.676 101.675 343.299 101.799 343.859 102.046C344.419 102.289 344.9 102.636 345.301 103.089C345.702 103.542 346.013 104.085 346.232 104.72C346.451 105.35 346.561 106.052 346.561 106.827C346.561 107.602 346.451 108.306 346.232 108.941C346.013 109.571 345.702 110.115 345.301 110.572C344.9 111.029 344.419 111.382 343.859 111.629C343.299 111.876 342.676 112 341.99 112H338.903ZM340.751 111.447L339.918 110.53H341.752C342.312 110.53 342.811 110.381 343.25 110.082C343.693 109.779 344.043 109.352 344.3 108.801C344.557 108.246 344.685 107.588 344.685 106.827C344.685 106.062 344.557 105.404 344.3 104.853C344.043 104.302 343.693 103.88 343.25 103.586C342.811 103.292 342.312 103.145 341.752 103.145H339.918L340.751 102.228V111.447ZM348.784 108.878V107.569H353.985L353.775 107.919C353.775 107.891 353.775 107.861 353.775 107.828C353.775 107.791 353.775 107.76 353.775 107.737C353.775 107.415 353.702 107.114 353.558 106.834C353.413 106.549 353.194 106.321 352.9 106.148C352.606 105.971 352.232 105.882 351.78 105.882C351.332 105.882 350.942 105.978 350.611 106.169C350.284 106.356 350.03 106.626 349.848 106.981C349.67 107.336 349.582 107.76 349.582 108.255C349.582 108.764 349.668 109.202 349.841 109.571C350.013 109.935 350.265 110.215 350.597 110.411C350.933 110.602 351.341 110.698 351.822 110.698C352.148 110.698 352.431 110.668 352.669 110.607C352.907 110.546 353.1 110.465 353.25 110.362C353.404 110.255 353.518 110.14 353.593 110.019C353.672 109.898 353.719 109.776 353.733 109.655H355.567C355.539 109.968 355.434 110.273 355.252 110.572C355.074 110.866 354.825 111.134 354.503 111.377C354.181 111.615 353.789 111.806 353.327 111.951C352.869 112.091 352.347 112.161 351.759 112.161C350.961 112.161 350.263 111.998 349.666 111.671C349.068 111.344 348.602 110.889 348.266 110.306C347.934 109.723 347.769 109.055 347.769 108.304C347.769 107.534 347.937 106.86 348.273 106.281C348.613 105.702 349.085 105.252 349.687 104.93C350.289 104.603 350.979 104.44 351.759 104.44C352.561 104.44 353.254 104.603 353.838 104.93C354.426 105.257 354.878 105.712 355.196 106.295C355.513 106.874 355.672 107.548 355.672 108.318C355.672 108.416 355.669 108.521 355.665 108.633C355.66 108.745 355.653 108.827 355.644 108.878H348.784ZM360.193 112.154C359.749 112.154 359.327 112.105 358.926 112.007C358.529 111.909 358.174 111.762 357.862 111.566C357.554 111.37 357.309 111.127 357.127 110.838C356.949 110.544 356.861 110.206 356.861 109.823C356.861 109.795 356.861 109.767 356.861 109.739C356.861 109.711 356.861 109.685 356.861 109.662H358.695C358.695 109.685 358.695 109.706 358.695 109.725C358.695 109.739 358.695 109.76 358.695 109.788C358.695 110.091 358.832 110.32 359.108 110.474C359.388 110.623 359.768 110.698 360.249 110.698C360.51 110.698 360.755 110.67 360.984 110.614C361.217 110.558 361.404 110.472 361.544 110.355C361.688 110.238 361.761 110.089 361.761 109.907C361.761 109.613 361.609 109.403 361.306 109.277C361.007 109.151 360.536 109.037 359.892 108.934C359.537 108.873 359.187 108.792 358.842 108.689C358.496 108.586 358.181 108.449 357.897 108.276C357.617 108.103 357.39 107.889 357.218 107.632C357.05 107.375 356.966 107.063 356.966 106.694C356.966 106.204 357.11 105.793 357.4 105.462C357.694 105.126 358.086 104.872 358.576 104.699C359.07 104.526 359.614 104.44 360.207 104.44C360.776 104.44 361.306 104.533 361.796 104.72C362.286 104.907 362.68 105.175 362.979 105.525C363.282 105.875 363.434 106.297 363.434 106.792C363.434 106.811 363.434 106.832 363.434 106.855C363.434 106.874 363.434 106.89 363.434 106.904H361.614C361.614 106.89 361.614 106.876 361.614 106.862C361.614 106.848 361.614 106.832 361.614 106.813C361.614 106.598 361.546 106.423 361.411 106.288C361.275 106.153 361.1 106.052 360.886 105.987C360.671 105.922 360.445 105.889 360.207 105.889C359.997 105.889 359.78 105.912 359.556 105.959C359.332 106.001 359.145 106.078 358.996 106.19C358.846 106.297 358.772 106.449 358.772 106.645C358.772 106.832 358.849 106.983 359.003 107.1C359.157 107.217 359.371 107.315 359.647 107.394C359.922 107.469 360.239 107.536 360.599 107.597C360.939 107.653 361.282 107.73 361.628 107.828C361.978 107.926 362.297 108.057 362.587 108.22C362.876 108.383 363.109 108.598 363.287 108.864C363.469 109.125 363.56 109.45 363.56 109.837C363.56 110.248 363.466 110.598 363.28 110.887C363.093 111.176 362.839 111.417 362.517 111.608C362.199 111.795 361.84 111.932 361.439 112.021C361.037 112.11 360.622 112.154 360.193 112.154ZM365.043 112V104.566H366.863V112H365.043ZM365.96 103.194C365.662 103.194 365.4 103.115 365.176 102.956C364.957 102.793 364.847 102.566 364.847 102.277C364.847 101.992 364.957 101.771 365.176 101.612C365.4 101.453 365.662 101.374 365.96 101.374C366.254 101.374 366.511 101.453 366.73 101.612C366.95 101.771 367.059 101.992 367.059 102.277C367.059 102.566 366.95 102.793 366.73 102.956C366.511 103.115 366.254 103.194 365.96 103.194ZM373.686 111.265C374.124 111.307 374.509 111.389 374.841 111.51C375.172 111.631 375.431 111.811 375.618 112.049C375.804 112.292 375.898 112.614 375.898 113.015C375.898 113.463 375.746 113.85 375.443 114.177C375.139 114.504 374.694 114.756 374.106 114.933C373.522 115.11 372.804 115.199 371.95 115.199C370.708 115.199 369.754 115.019 369.087 114.66C368.419 114.305 368.086 113.822 368.086 113.211C368.086 113.038 368.107 112.882 368.149 112.742C368.191 112.602 368.242 112.485 368.303 112.392L369.99 112.637C369.962 112.674 369.934 112.733 369.906 112.812C369.878 112.896 369.864 112.996 369.864 113.113C369.864 113.402 370.057 113.61 370.445 113.736C370.837 113.867 371.357 113.932 372.006 113.932C372.482 113.932 372.878 113.899 373.196 113.834C373.518 113.769 373.76 113.675 373.924 113.554C374.092 113.433 374.176 113.29 374.176 113.127C374.176 112.884 374.066 112.728 373.847 112.658C373.627 112.588 373.366 112.541 373.063 112.518L370.242 112.259C369.738 112.208 369.322 112.058 368.996 111.811C368.674 111.564 368.513 111.237 368.513 110.831C368.513 110.584 368.578 110.355 368.709 110.145C368.844 109.935 368.998 109.76 369.171 109.62C369.343 109.475 369.49 109.387 369.612 109.354L370.662 109.872C370.564 109.886 370.447 109.949 370.312 110.061C370.181 110.173 370.116 110.306 370.116 110.46C370.116 110.605 370.181 110.726 370.312 110.824C370.442 110.917 370.694 110.983 371.068 111.02L373.686 111.265ZM374.519 104.566H376.171L375.499 107.45C375.373 107.991 375.17 108.477 374.89 108.906C374.61 109.335 374.236 109.674 373.77 109.921C373.303 110.168 372.715 110.292 372.006 110.292C371.268 110.292 370.631 110.173 370.095 109.935C369.563 109.692 369.152 109.354 368.863 108.92C368.573 108.481 368.429 107.977 368.429 107.408C368.429 106.825 368.576 106.311 368.87 105.868C369.168 105.42 369.577 105.07 370.095 104.818C370.617 104.566 371.208 104.44 371.866 104.44C372.398 104.44 372.876 104.529 373.301 104.706C373.725 104.879 374.064 105.105 374.316 105.385C374.572 105.665 374.71 105.964 374.729 106.281L374.316 106.358L374.519 104.566ZM371.999 108.871C372.358 108.871 372.668 108.813 372.93 108.696C373.191 108.579 373.394 108.411 373.539 108.192C373.683 107.968 373.756 107.697 373.756 107.38C373.756 107.067 373.683 106.799 373.539 106.575C373.394 106.351 373.191 106.181 372.93 106.064C372.668 105.943 372.36 105.882 372.006 105.882C371.66 105.882 371.355 105.943 371.089 106.064C370.823 106.185 370.613 106.36 370.459 106.589C370.309 106.813 370.235 107.081 370.235 107.394C370.235 107.707 370.307 107.975 370.452 108.199C370.601 108.418 370.806 108.586 371.068 108.703C371.334 108.815 371.644 108.871 371.999 108.871ZM382.667 112V108.703C382.667 108.516 382.667 108.353 382.667 108.213C382.667 108.068 382.667 107.938 382.667 107.821C382.667 107.485 382.618 107.184 382.52 106.918C382.427 106.647 382.264 106.435 382.03 106.281C381.802 106.127 381.484 106.05 381.078 106.05C380.724 106.05 380.409 106.136 380.133 106.309C379.858 106.477 379.641 106.71 379.482 107.009C379.328 107.303 379.251 107.644 379.251 108.031L378.628 107.646C378.628 107.025 378.768 106.475 379.048 105.994C379.333 105.509 379.713 105.128 380.189 104.853C380.665 104.578 381.193 104.44 381.771 104.44C382.369 104.44 382.87 104.557 383.276 104.79C383.687 105.023 383.995 105.355 384.2 105.784C384.41 106.213 384.515 106.717 384.515 107.296C384.515 107.52 384.515 107.772 384.515 108.052C384.515 108.332 384.515 108.607 384.515 108.878V112H382.667ZM377.41 112V104.566H379.251V112H377.41Z" fill="#4640DE"/>
<defs>
<clipPath id="clip0_251_1124">
<rect width="45.6" height="51.2" fill="white" transform="translate(49.5996 30.3999)"/>
</clipPath>
</defs>
</svg>
