<svg width="244" height="149" viewBox="0 0 244 149" fill="none" xmlns="http://www.w3.org/2000/svg">
<rect width="580" height="149" fill="white"/>
<g clip-path="url(#clip0_251_1150)">
<path fill-rule="evenodd" clip-rule="evenodd" d="M55.2002 76.9201L72.3933 81.5998L72.4134 42.9131L55.2204 38.2334L55.2002 76.9201Z" fill="#FF6550"/>
<path fill-rule="evenodd" clip-rule="evenodd" d="M83.6707 35.7247L64.1094 30.3999V37.445L75.4269 40.5273L75.4169 67.3356L83.6607 69.5781C86.4926 70.3461 88.7904 68.206 88.8004 64.7961L88.8105 43.3125C88.8004 39.8924 86.5027 36.5029 83.6707 35.7247Z" fill="#FF6550"/>
</g>
<path d="M140.33 27.25V42H137.69V34.8L138.88 35.7H130.74L131.93 34.82V42H129.29V27.25H131.93V34.52L130.74 33.6H138.88L137.69 34.51V27.25H140.33ZM142.903 42V27.25H148.583C150.07 27.25 151.187 27.59 151.933 28.27C152.68 28.95 153.053 29.95 153.053 31.27C153.053 32.0433 152.907 32.7 152.613 33.24C152.32 33.78 151.963 34.1967 151.543 34.49C151.123 34.7833 150.723 34.95 150.343 34.99C150.73 35.0167 151.103 35.1167 151.463 35.29C151.823 35.4633 152.117 35.7367 152.343 36.11C152.577 36.4767 152.693 36.9733 152.693 37.6C152.693 38.1 152.693 38.6 152.693 39.1C152.693 39.5933 152.693 40.09 152.693 40.59C152.693 40.9033 152.72 41.1933 152.773 41.46C152.827 41.72 152.893 41.9 152.973 42H150.323C150.257 41.88 150.197 41.6967 150.143 41.45C150.097 41.1967 150.073 40.91 150.073 40.59C150.073 40.1367 150.073 39.6933 150.073 39.26C150.073 38.82 150.073 38.37 150.073 37.91C150.073 37.3033 149.903 36.8433 149.563 36.53C149.223 36.2167 148.71 36.06 148.023 36.06H144.773L145.473 35.17V42H142.903ZM145.473 34.95L144.773 33.96H148.043C148.477 33.96 148.867 33.86 149.213 33.66C149.56 33.4533 149.833 33.1667 150.033 32.8C150.24 32.4333 150.343 32.0033 150.343 31.51C150.343 30.79 150.137 30.25 149.723 29.89C149.31 29.53 148.723 29.35 147.963 29.35H144.703L145.473 28.42V34.95ZM170.824 27.25H175.304V42H172.794V28.93L172.854 28.95L169.684 42H166.164L162.954 28.94L163.014 28.91V42H160.504V27.25H164.984L167.974 40.56H167.804L170.824 27.25ZM181.69 42.22C180.897 42.22 180.2 42.0967 179.6 41.85C179 41.5967 178.53 41.2333 178.19 40.76C177.85 40.2867 177.68 39.7167 177.68 39.05C177.68 38.3233 177.877 37.7267 178.27 37.26C178.67 36.7867 179.207 36.4233 179.88 36.17C180.554 35.91 181.3 35.7433 182.12 35.67C183.334 35.55 184.18 35.4367 184.66 35.33C185.147 35.2167 185.39 35.0367 185.39 34.79C185.39 34.7833 185.39 34.78 185.39 34.78C185.39 34.7733 185.39 34.77 185.39 34.77C185.39 34.3033 185.18 33.9433 184.76 33.69C184.34 33.4367 183.747 33.31 182.98 33.31C182.174 33.31 181.554 33.4533 181.12 33.74C180.694 34.02 180.48 34.4667 180.48 35.08H177.88C177.88 34.2467 178.1 33.5433 178.54 32.97C178.987 32.39 179.597 31.95 180.37 31.65C181.144 31.35 182.02 31.2 183 31.2C183.914 31.2 184.75 31.3367 185.51 31.61C186.27 31.8833 186.88 32.2967 187.34 32.85C187.8 33.4033 188.03 34.0933 188.03 34.92C188.03 35.06 188.03 35.2 188.03 35.34C188.03 35.48 188.03 35.62 188.03 35.76V39.76C188.03 40.0133 188.037 40.2633 188.05 40.51C188.07 40.75 188.107 40.9667 188.16 41.16C188.227 41.3733 188.307 41.5533 188.4 41.7C188.494 41.8467 188.567 41.9467 188.62 42H186.02C185.974 41.9533 185.907 41.8633 185.82 41.73C185.74 41.59 185.667 41.43 185.6 41.25C185.534 41.05 185.484 40.8367 185.45 40.61C185.417 40.3767 185.4 40.12 185.4 39.84L185.92 40.2C185.72 40.6067 185.414 40.9633 185 41.27C184.594 41.57 184.107 41.8033 183.54 41.97C182.974 42.1367 182.357 42.22 181.69 42.22ZM182.33 40.15C182.877 40.15 183.384 40.0567 183.85 39.87C184.317 39.6833 184.694 39.3967 184.98 39.01C185.267 38.6167 185.41 38.1133 185.41 37.5V36.08L186.05 36.8C185.624 36.96 185.11 37.0933 184.51 37.2C183.91 37.3 183.304 37.38 182.69 37.44C181.904 37.5133 181.31 37.65 180.91 37.85C180.517 38.05 180.32 38.3767 180.32 38.83C180.32 39.27 180.487 39.6 180.82 39.82C181.154 40.04 181.657 40.15 182.33 40.15ZM197.982 42V37.29C197.982 37.0233 197.982 36.79 197.982 36.59C197.982 36.3833 197.982 36.1967 197.982 36.03C197.982 35.55 197.912 35.12 197.772 34.74C197.639 34.3533 197.406 34.05 197.072 33.83C196.746 33.61 196.292 33.5 195.712 33.5C195.206 33.5 194.756 33.6233 194.362 33.87C193.969 34.11 193.659 34.4433 193.432 34.87C193.212 35.29 193.102 35.7767 193.102 36.33L192.212 35.78C192.212 34.8933 192.412 34.1067 192.812 33.42C193.219 32.7267 193.762 32.1833 194.442 31.79C195.122 31.3967 195.876 31.2 196.702 31.2C197.556 31.2 198.272 31.3667 198.852 31.7C199.439 32.0333 199.879 32.5067 200.172 33.12C200.472 33.7333 200.622 34.4533 200.622 35.28C200.622 35.6 200.622 35.96 200.622 36.36C200.622 36.76 200.622 37.1533 200.622 37.54V42H197.982ZM190.472 42V31.38H193.102V42H190.472ZM206.788 42.22C205.995 42.22 205.298 42.0967 204.698 41.85C204.098 41.5967 203.628 41.2333 203.288 40.76C202.948 40.2867 202.778 39.7167 202.778 39.05C202.778 38.3233 202.975 37.7267 203.368 37.26C203.768 36.7867 204.305 36.4233 204.978 36.17C205.651 35.91 206.398 35.7433 207.218 35.67C208.431 35.55 209.278 35.4367 209.758 35.33C210.245 35.2167 210.488 35.0367 210.488 34.79C210.488 34.7833 210.488 34.78 210.488 34.78C210.488 34.7733 210.488 34.77 210.488 34.77C210.488 34.3033 210.278 33.9433 209.858 33.69C209.438 33.4367 208.845 33.31 208.078 33.31C207.271 33.31 206.651 33.4533 206.218 33.74C205.791 34.02 205.578 34.4667 205.578 35.08H202.978C202.978 34.2467 203.198 33.5433 203.638 32.97C204.085 32.39 204.695 31.95 205.468 31.65C206.241 31.35 207.118 31.2 208.098 31.2C209.011 31.2 209.848 31.3367 210.608 31.61C211.368 31.8833 211.978 32.2967 212.438 32.85C212.898 33.4033 213.128 34.0933 213.128 34.92C213.128 35.06 213.128 35.2 213.128 35.34C213.128 35.48 213.128 35.62 213.128 35.76V39.76C213.128 40.0133 213.135 40.2633 213.148 40.51C213.168 40.75 213.205 40.9667 213.258 41.16C213.325 41.3733 213.405 41.5533 213.498 41.7C213.591 41.8467 213.665 41.9467 213.718 42H211.118C211.071 41.9533 211.005 41.8633 210.918 41.73C210.838 41.59 210.765 41.43 210.698 41.25C210.631 41.05 210.581 40.8367 210.548 40.61C210.515 40.3767 210.498 40.12 210.498 39.84L211.018 40.2C210.818 40.6067 210.511 40.9633 210.098 41.27C209.691 41.57 209.205 41.8033 208.638 41.97C208.071 42.1367 207.455 42.22 206.788 42.22ZM207.428 40.15C207.975 40.15 208.481 40.0567 208.948 39.87C209.415 39.6833 209.791 39.3967 210.078 39.01C210.365 38.6167 210.508 38.1133 210.508 37.5V36.08L211.148 36.8C210.721 36.96 210.208 37.0933 209.608 37.2C209.008 37.3 208.401 37.38 207.788 37.44C207.001 37.5133 206.408 37.65 206.008 37.85C205.615 38.05 205.418 38.3767 205.418 38.83C205.418 39.27 205.585 39.6 205.918 39.82C206.251 40.04 206.755 40.15 207.428 40.15ZM222.71 40.95C223.337 41.01 223.887 41.1267 224.36 41.3C224.833 41.4733 225.203 41.73 225.47 42.07C225.737 42.4167 225.87 42.8767 225.87 43.45C225.87 44.09 225.653 44.6433 225.22 45.11C224.787 45.5767 224.15 45.9367 223.31 46.19C222.477 46.4433 221.45 46.57 220.23 46.57C218.457 46.57 217.093 46.3133 216.14 45.8C215.187 45.2933 214.71 44.6033 214.71 43.73C214.71 43.4833 214.74 43.26 214.8 43.06C214.86 42.86 214.933 42.6933 215.02 42.56L217.43 42.91C217.39 42.9633 217.35 43.0467 217.31 43.16C217.27 43.28 217.25 43.4233 217.25 43.59C217.25 44.0033 217.527 44.3 218.08 44.48C218.64 44.6667 219.383 44.76 220.31 44.76C220.99 44.76 221.557 44.7133 222.01 44.62C222.47 44.5267 222.817 44.3933 223.05 44.22C223.29 44.0467 223.41 43.8433 223.41 43.61C223.41 43.2633 223.253 43.04 222.94 42.94C222.627 42.84 222.253 42.7733 221.82 42.74L217.79 42.37C217.07 42.2967 216.477 42.0833 216.01 41.73C215.55 41.3767 215.32 40.91 215.32 40.33C215.32 39.9767 215.413 39.65 215.6 39.35C215.793 39.05 216.013 38.8 216.26 38.6C216.507 38.3933 216.717 38.2667 216.89 38.22L218.39 38.96C218.25 38.98 218.083 39.07 217.89 39.23C217.703 39.39 217.61 39.58 217.61 39.8C217.61 40.0067 217.703 40.18 217.89 40.32C218.077 40.4533 218.437 40.5467 218.97 40.6L222.71 40.95ZM223.9 31.38H226.26L225.3 35.5C225.12 36.2733 224.83 36.9667 224.43 37.58C224.03 38.1933 223.497 38.6767 222.83 39.03C222.163 39.3833 221.323 39.56 220.31 39.56C219.257 39.56 218.347 39.39 217.58 39.05C216.82 38.7033 216.233 38.22 215.82 37.6C215.407 36.9733 215.2 36.2533 215.2 35.44C215.2 34.6067 215.41 33.8733 215.83 33.24C216.257 32.6 216.84 32.1 217.58 31.74C218.327 31.38 219.17 31.2 220.11 31.2C220.87 31.2 221.553 31.3267 222.16 31.58C222.767 31.8267 223.25 32.15 223.61 32.55C223.977 32.95 224.173 33.3767 224.2 33.83L223.61 33.94L223.9 31.38ZM220.3 37.53C220.813 37.53 221.257 37.4467 221.63 37.28C222.003 37.1133 222.293 36.8733 222.5 36.56C222.707 36.24 222.81 35.8533 222.81 35.4C222.81 34.9533 222.707 34.57 222.5 34.25C222.293 33.93 222.003 33.6867 221.63 33.52C221.257 33.3467 220.817 33.26 220.31 33.26C219.817 33.26 219.38 33.3467 219 33.52C218.62 33.6933 218.32 33.9433 218.1 34.27C217.887 34.59 217.78 34.9733 217.78 35.42C217.78 35.8667 217.883 36.25 218.09 36.57C218.303 36.8833 218.597 37.1233 218.97 37.29C219.35 37.45 219.793 37.53 220.3 37.53ZM228.581 37.54V35.67H236.011L235.711 36.17C235.711 36.13 235.711 36.0867 235.711 36.04C235.711 35.9867 235.711 35.9433 235.711 35.91C235.711 35.45 235.608 35.02 235.401 34.62C235.195 34.2133 234.881 33.8867 234.461 33.64C234.041 33.3867 233.508 33.26 232.861 33.26C232.221 33.26 231.665 33.3967 231.191 33.67C230.725 33.9367 230.361 34.3233 230.101 34.83C229.848 35.3367 229.721 35.9433 229.721 36.65C229.721 37.3767 229.845 38.0033 230.091 38.53C230.338 39.05 230.698 39.45 231.171 39.73C231.651 40.0033 232.235 40.14 232.921 40.14C233.388 40.14 233.791 40.0967 234.131 40.01C234.471 39.9233 234.748 39.8067 234.961 39.66C235.181 39.5067 235.345 39.3433 235.451 39.17C235.565 38.9967 235.631 38.8233 235.651 38.65H238.271C238.231 39.0967 238.081 39.5333 237.821 39.96C237.568 40.38 237.211 40.7633 236.751 41.11C236.291 41.45 235.731 41.7233 235.071 41.93C234.418 42.13 233.671 42.23 232.831 42.23C231.691 42.23 230.695 41.9967 229.841 41.53C228.988 41.0633 228.321 40.4133 227.841 39.58C227.368 38.7467 227.131 37.7933 227.131 36.72C227.131 35.62 227.371 34.6567 227.851 33.83C228.338 33.0033 229.011 32.36 229.871 31.9C230.731 31.4333 231.718 31.2 232.831 31.2C233.978 31.2 234.968 31.4333 235.801 31.9C236.641 32.3667 237.288 33.0167 237.741 33.85C238.195 34.6767 238.421 35.64 238.421 36.74C238.421 36.88 238.418 37.03 238.411 37.19C238.405 37.35 238.395 37.4667 238.381 37.54H228.581ZM240.59 42V31.38H243.22V34.91L242.61 34.57C242.676 34.11 242.8 33.6767 242.98 33.27C243.16 32.8567 243.4 32.4967 243.7 32.19C244 31.8767 244.363 31.6333 244.79 31.46C245.216 31.2867 245.703 31.2 246.25 31.2C246.683 31.2 247.023 31.2333 247.27 31.3C247.523 31.36 247.68 31.41 247.74 31.45L247.26 33.86C247.193 33.8133 247.056 33.7567 246.85 33.69C246.65 33.6167 246.38 33.58 246.04 33.58C245.5 33.58 245.046 33.6733 244.68 33.86C244.32 34.04 244.033 34.2867 243.82 34.6C243.606 34.9067 243.453 35.2467 243.36 35.62C243.266 35.9867 243.22 36.3533 243.22 36.72V42H240.59Z" fill="#25324B"/>
<path d="M130.496 73.5H129.128V61.7H132.44C133.352 61.7 134.109 61.8707 134.712 62.212C135.315 62.548 135.765 63.0013 136.064 63.572C136.363 64.1427 136.512 64.7773 136.512 65.476C136.512 66.1747 136.357 66.82 136.048 67.412C135.744 68.004 135.288 68.4813 134.68 68.844C134.077 69.2013 133.331 69.38 132.44 69.38H130.496V73.5ZM130.496 68.876L129.88 68.18H132.272C132.912 68.18 133.443 68.068 133.864 67.844C134.291 67.6147 134.608 67.2973 134.816 66.892C135.029 66.4867 135.136 66.0147 135.136 65.476C135.136 64.932 135.035 64.468 134.832 64.084C134.629 63.7 134.317 63.4067 133.896 63.204C133.475 63.0013 132.933 62.9 132.272 62.9H129.88L130.496 62.124V68.876ZM140.973 73.66C140.328 73.66 139.763 73.5587 139.277 73.356C138.797 73.1533 138.424 72.8627 138.157 72.484C137.891 72.1 137.757 71.6413 137.757 71.108C137.757 70.5533 137.901 70.092 138.189 69.724C138.477 69.3507 138.883 69.06 139.405 68.852C139.928 68.644 140.536 68.5053 141.229 68.436C142.275 68.3293 143.019 68.2253 143.461 68.124C143.904 68.0173 144.125 67.8467 144.125 67.612C144.125 67.6067 144.125 67.604 144.125 67.604C144.125 67.5987 144.125 67.5933 144.125 67.588C144.125 67.0973 143.925 66.732 143.525 66.492C143.125 66.2467 142.547 66.124 141.789 66.124C141 66.124 140.387 66.2627 139.949 66.54C139.512 66.812 139.293 67.2547 139.293 67.868H137.949C137.949 67.2333 138.112 66.6947 138.437 66.252C138.763 65.804 139.213 65.4627 139.789 65.228C140.371 64.9933 141.04 64.876 141.797 64.876C142.491 64.876 143.115 64.9827 143.669 65.196C144.229 65.404 144.672 65.716 144.997 66.132C145.328 66.5427 145.493 67.052 145.493 67.66C145.493 67.772 145.493 67.884 145.493 67.996C145.493 68.1027 145.493 68.212 145.493 68.324V71.9C145.493 72.0867 145.501 72.268 145.517 72.444C145.533 72.62 145.56 72.7747 145.597 72.908C145.645 73.068 145.699 73.1987 145.757 73.3C145.816 73.396 145.864 73.4627 145.901 73.5H144.533C144.507 73.4733 144.467 73.412 144.413 73.316C144.36 73.2147 144.309 73.0973 144.261 72.964C144.224 72.8573 144.195 72.724 144.173 72.564C144.152 72.3987 144.141 72.228 144.141 72.052L144.365 72.204C144.2 72.492 143.957 72.7453 143.637 72.964C143.323 73.1827 142.941 73.3533 142.493 73.476C142.045 73.5987 141.539 73.66 140.973 73.66ZM141.189 72.436C141.739 72.436 142.235 72.3533 142.677 72.188C143.12 72.0173 143.472 71.7667 143.733 71.436C143.995 71.1053 144.125 70.6947 144.125 70.204V68.516L144.429 69.028C144.088 69.1613 143.661 69.2707 143.149 69.356C142.643 69.436 142.112 69.5027 141.557 69.556C140.752 69.6307 140.144 69.772 139.733 69.98C139.328 70.188 139.125 70.5373 139.125 71.028C139.125 71.492 139.293 71.844 139.629 72.084C139.965 72.3187 140.485 72.436 141.189 72.436ZM151.787 73.66C150.977 73.66 150.241 73.484 149.579 73.132C148.918 72.7747 148.393 72.2653 148.003 71.604C147.619 70.9427 147.427 70.156 147.427 69.244C147.427 68.332 147.619 67.5507 148.003 66.9C148.393 66.244 148.918 65.7427 149.579 65.396C150.241 65.0493 150.977 64.876 151.787 64.876C152.406 64.876 152.958 64.972 153.443 65.164C153.929 65.3507 154.339 65.6013 154.675 65.916C155.011 66.2307 155.267 66.5773 155.443 66.956C155.625 67.3293 155.715 67.7027 155.715 68.076C155.715 68.0813 155.715 68.0893 155.715 68.1C155.715 68.1107 155.715 68.1213 155.715 68.132H154.363C154.363 68.1053 154.361 68.076 154.355 68.044C154.35 68.0067 154.345 67.9693 154.339 67.932C154.297 67.5747 154.161 67.2627 153.931 66.996C153.702 66.724 153.403 66.5107 153.035 66.356C152.667 66.2013 152.249 66.124 151.779 66.124C151.251 66.124 150.761 66.2387 150.307 66.468C149.859 66.692 149.497 67.036 149.219 67.5C148.947 67.9587 148.811 68.54 148.811 69.244C148.811 69.9427 148.947 70.5267 149.219 70.996C149.491 71.4653 149.851 71.82 150.299 72.06C150.753 72.2947 151.246 72.412 151.779 72.412C152.355 72.412 152.83 72.3213 153.203 72.14C153.577 71.9587 153.857 71.7187 154.043 71.42C154.235 71.116 154.342 70.7907 154.363 70.444H155.715C155.715 70.828 155.63 71.212 155.459 71.596C155.289 71.9747 155.038 72.3213 154.707 72.636C154.377 72.9453 153.966 73.1933 153.475 73.38C152.99 73.5667 152.427 73.66 151.787 73.66ZM157.833 73.5V60.996H159.129V68.66L158.737 68.484L162.801 65.004H164.561L160.489 68.588L160.849 67.892L164.593 73.5H163.129L159.969 68.644L160.249 68.804L158.929 69.948L159.129 69.3V73.5H157.833ZM166.086 69.796V68.58H172.654L172.414 68.98C172.414 68.948 172.414 68.9187 172.414 68.892C172.414 68.86 172.414 68.8307 172.414 68.804C172.414 68.3133 172.31 67.8653 172.102 67.46C171.899 67.0493 171.595 66.7213 171.19 66.476C170.785 66.2307 170.283 66.108 169.686 66.108C169.083 66.108 168.553 66.236 168.094 66.492C167.635 66.748 167.278 67.1107 167.022 67.58C166.766 68.044 166.638 68.5987 166.638 69.244C166.638 69.9 166.761 70.4653 167.006 70.94C167.257 71.4147 167.611 71.78 168.07 72.036C168.529 72.292 169.073 72.42 169.702 72.42C170.15 72.42 170.539 72.3747 170.87 72.284C171.201 72.188 171.473 72.0627 171.686 71.908C171.905 71.748 172.07 71.5747 172.182 71.388C172.294 71.2013 172.361 71.0147 172.382 70.828H173.742C173.715 71.1693 173.609 71.508 173.422 71.844C173.235 72.18 172.971 72.4867 172.63 72.764C172.289 73.036 171.87 73.2547 171.374 73.42C170.878 73.5853 170.307 73.668 169.662 73.668C168.809 73.668 168.057 73.4813 167.406 73.108C166.755 72.7347 166.243 72.2173 165.87 71.556C165.502 70.8947 165.318 70.1347 165.318 69.276C165.318 68.4067 165.505 67.644 165.878 66.988C166.251 66.3267 166.766 65.8093 167.422 65.436C168.078 65.0627 168.827 64.876 169.67 64.876C170.529 64.876 171.273 65.0627 171.902 65.436C172.531 65.8093 173.017 66.3213 173.358 66.972C173.699 67.6173 173.87 68.3533 173.87 69.18C173.87 69.2653 173.867 69.3773 173.862 69.516C173.857 69.6547 173.849 69.748 173.838 69.796H166.086ZM175.99 73.5V65.004H177.35V67.612L176.902 67.452C176.934 67.1373 177.014 66.828 177.142 66.524C177.27 66.2147 177.446 65.9373 177.67 65.692C177.899 65.4413 178.184 65.244 178.526 65.1C178.867 64.9507 179.267 64.876 179.726 64.876C180.067 64.876 180.344 64.9053 180.558 64.964C180.776 65.0173 180.912 65.06 180.966 65.092L180.614 66.428C180.56 66.3907 180.451 66.3427 180.286 66.284C180.126 66.2253 179.896 66.196 179.598 66.196C179.155 66.196 178.787 66.276 178.494 66.436C178.206 66.596 177.976 66.8093 177.806 67.076C177.64 67.3373 177.523 67.6227 177.454 67.932C177.384 68.2413 177.35 68.548 177.35 68.852V73.5H175.99Z" fill="#515B6F"/>
<circle cx="192" cy="69.5" r="2" fill="#515B6F"/>
<path d="M203.128 73.5V61.7H204.496V73.076L203.88 72.3H209.152V73.5H203.128ZM214.204 73.652C213.596 73.652 213.089 73.548 212.684 73.34C212.278 73.1267 211.956 72.852 211.716 72.516C211.481 72.18 211.313 71.8173 211.212 71.428C211.116 71.0333 211.068 70.6547 211.068 70.292C211.068 70.0893 211.068 69.8813 211.068 69.668C211.068 69.4493 211.068 69.2307 211.068 69.012V65.004H212.436V68.836C212.436 69.0333 212.436 69.228 212.436 69.42C212.436 69.612 212.436 69.7933 212.436 69.964C212.436 70.396 212.494 70.796 212.612 71.164C212.734 71.532 212.945 71.8307 213.244 72.06C213.542 72.284 213.953 72.396 214.476 72.396C214.966 72.396 215.396 72.2493 215.764 71.956C216.132 71.6573 216.42 71.2867 216.628 70.844C216.836 70.396 216.94 69.9507 216.94 69.508L217.732 69.836C217.732 70.3053 217.649 70.7667 217.484 71.22C217.318 71.668 217.081 72.076 216.772 72.444C216.468 72.812 216.097 73.1053 215.66 73.324C215.228 73.5427 214.742 73.652 214.204 73.652ZM216.94 73.5V65.004H218.3V73.5H216.94ZM224.694 73.66C223.883 73.66 223.147 73.484 222.486 73.132C221.824 72.7747 221.299 72.2653 220.91 71.604C220.526 70.9427 220.334 70.156 220.334 69.244C220.334 68.332 220.526 67.5507 220.91 66.9C221.299 66.244 221.824 65.7427 222.486 65.396C223.147 65.0493 223.883 64.876 224.694 64.876C225.312 64.876 225.864 64.972 226.35 65.164C226.835 65.3507 227.246 65.6013 227.582 65.916C227.918 66.2307 228.174 66.5773 228.35 66.956C228.531 67.3293 228.622 67.7027 228.622 68.076C228.622 68.0813 228.622 68.0893 228.622 68.1C228.622 68.1107 228.622 68.1213 228.622 68.132H227.27C227.27 68.1053 227.267 68.076 227.262 68.044C227.256 68.0067 227.251 67.9693 227.246 67.932C227.203 67.5747 227.067 67.2627 226.838 66.996C226.608 66.724 226.31 66.5107 225.942 66.356C225.574 66.2013 225.155 66.124 224.686 66.124C224.158 66.124 223.667 66.2387 223.214 66.468C222.766 66.692 222.403 67.036 222.126 67.5C221.854 67.9587 221.718 68.54 221.718 69.244C221.718 69.9427 221.854 70.5267 222.126 70.996C222.398 71.4653 222.758 71.82 223.206 72.06C223.659 72.2947 224.152 72.412 224.686 72.412C225.262 72.412 225.736 72.3213 226.11 72.14C226.483 71.9587 226.763 71.7187 226.95 71.42C227.142 71.116 227.248 70.7907 227.27 70.444H228.622C228.622 70.828 228.536 71.212 228.366 71.596C228.195 71.9747 227.944 72.3213 227.614 72.636C227.283 72.9453 226.872 73.1933 226.382 73.38C225.896 73.5667 225.334 73.66 224.694 73.66ZM231.18 69.796V68.58H237.748L237.508 68.98C237.508 68.948 237.508 68.9187 237.508 68.892C237.508 68.86 237.508 68.8307 237.508 68.804C237.508 68.3133 237.404 67.8653 237.196 67.46C236.993 67.0493 236.689 66.7213 236.284 66.476C235.878 66.2307 235.377 66.108 234.78 66.108C234.177 66.108 233.646 66.236 233.188 66.492C232.729 66.748 232.372 67.1107 232.116 67.58C231.86 68.044 231.732 68.5987 231.732 69.244C231.732 69.9 231.854 70.4653 232.1 70.94C232.35 71.4147 232.705 71.78 233.164 72.036C233.622 72.292 234.166 72.42 234.796 72.42C235.244 72.42 235.633 72.3747 235.964 72.284C236.294 72.188 236.566 72.0627 236.78 71.908C236.998 71.748 237.164 71.5747 237.276 71.388C237.388 71.2013 237.454 71.0147 237.476 70.828H238.836C238.809 71.1693 238.702 71.508 238.516 71.844C238.329 72.18 238.065 72.4867 237.724 72.764C237.382 73.036 236.964 73.2547 236.468 73.42C235.972 73.5853 235.401 73.668 234.756 73.668C233.902 73.668 233.15 73.4813 232.5 73.108C231.849 72.7347 231.337 72.2173 230.964 71.556C230.596 70.8947 230.412 70.1347 230.412 69.276C230.412 68.4067 230.598 67.644 230.972 66.988C231.345 66.3267 231.86 65.8093 232.516 65.436C233.172 65.0627 233.921 64.876 234.764 64.876C235.622 64.876 236.366 65.0627 236.996 65.436C237.625 65.8093 238.11 66.3213 238.452 66.972C238.793 67.6173 238.964 68.3533 238.964 69.18C238.964 69.2653 238.961 69.3773 238.956 69.516C238.95 69.6547 238.942 69.748 238.932 69.796H231.18ZM241.083 73.5V65.004H242.443V67.612L241.995 67.452C242.027 67.1373 242.107 66.828 242.235 66.524C242.363 66.2147 242.539 65.9373 242.763 65.692C242.993 65.4413 243.278 65.244 243.619 65.1C243.961 64.9507 244.361 64.876 244.819 64.876C245.161 64.876 245.438 64.9053 245.651 64.964C245.87 65.0173 246.006 65.06 246.059 65.092L245.707 66.428C245.654 66.3907 245.545 66.3427 245.379 66.284C245.219 66.2253 244.99 66.196 244.691 66.196C244.249 66.196 243.881 66.276 243.587 66.436C243.299 66.596 243.07 66.8093 242.899 67.076C242.734 67.3373 242.617 67.6227 242.547 67.932C242.478 68.2413 242.443 68.548 242.443 68.852V73.5H241.083ZM253.601 73.5V69.428C253.601 69.1827 253.601 68.9827 253.601 68.828C253.601 68.668 253.601 68.516 253.601 68.372C253.601 67.9293 253.526 67.5427 253.377 67.212C253.228 66.8813 252.993 66.6253 252.673 66.444C252.353 66.2627 251.934 66.172 251.417 66.172C250.964 66.172 250.542 66.2893 250.153 66.524C249.769 66.7533 249.46 67.0653 249.225 67.46C248.996 67.8493 248.881 68.2867 248.881 68.772L248.105 68.476C248.105 67.8093 248.268 67.204 248.593 66.66C248.924 66.116 249.361 65.684 249.905 65.364C250.454 65.0387 251.052 64.876 251.697 64.876C252.353 64.876 252.926 65.0013 253.417 65.252C253.908 65.5027 254.286 65.8627 254.553 66.332C254.825 66.796 254.961 67.356 254.961 68.012C254.961 68.2467 254.961 68.5027 254.961 68.78C254.961 69.0573 254.961 69.316 254.961 69.556V73.5H253.601ZM247.521 73.5V65.004H248.881V73.5H247.521ZM257.485 75.66L257.277 75.276C257.459 75.196 257.653 75.0573 257.861 74.86C258.069 74.6627 258.248 74.4413 258.397 74.196C258.547 73.956 258.621 73.7293 258.621 73.516C258.621 73.4573 258.613 73.4013 258.597 73.348C258.587 73.2947 258.568 73.244 258.541 73.196H258.917C258.843 73.3773 258.72 73.508 258.549 73.588C258.379 73.668 258.216 73.708 258.061 73.708C257.795 73.708 257.568 73.6307 257.381 73.476C257.195 73.3213 257.101 73.1 257.101 72.812C257.101 72.524 257.203 72.2947 257.405 72.124C257.613 71.9533 257.88 71.868 258.205 71.868C258.552 71.868 258.824 71.972 259.021 72.18C259.224 72.388 259.325 72.6813 259.325 73.06C259.325 73.4333 259.229 73.7987 259.037 74.156C258.845 74.5133 258.608 74.8253 258.325 75.092C258.043 75.3587 257.763 75.548 257.485 75.66ZM269.149 73.66C268.333 73.66 267.634 73.532 267.053 73.276C266.477 73.0147 266.034 72.6227 265.725 72.1C265.416 71.5773 265.261 70.9267 265.261 70.148C265.261 70.0413 265.261 69.9507 265.261 69.876C265.261 69.8013 265.261 69.7107 265.261 69.604H266.629C266.629 69.7053 266.629 69.7907 266.629 69.86C266.629 69.9293 266.629 70.0173 266.629 70.124C266.629 70.94 266.842 71.5293 267.269 71.892C267.696 72.2493 268.317 72.428 269.133 72.428C269.976 72.428 270.613 72.284 271.045 71.996C271.477 71.708 271.693 71.2413 271.693 70.596C271.693 70.1427 271.568 69.7667 271.317 69.468C271.072 69.164 270.73 68.908 270.293 68.7C269.856 68.4867 269.346 68.292 268.765 68.116C268.109 67.9133 267.522 67.6573 267.005 67.348C266.493 67.0387 266.088 66.6573 265.789 66.204C265.496 65.7453 265.349 65.188 265.349 64.532C265.349 63.892 265.504 63.3507 265.813 62.908C266.128 62.4653 266.565 62.1293 267.125 61.9C267.685 61.6707 268.336 61.556 269.077 61.556C269.861 61.556 270.541 61.6787 271.117 61.924C271.698 62.164 272.146 62.532 272.461 63.028C272.781 63.5187 272.941 64.1373 272.941 64.884C272.941 65.0013 272.941 65.1027 272.941 65.188C272.941 65.268 272.941 65.3667 272.941 65.484H271.573C271.573 65.3827 271.573 65.292 271.573 65.212C271.573 65.132 271.573 65.0413 271.573 64.94C271.573 64.1613 271.362 63.6093 270.941 63.284C270.52 62.9533 269.906 62.788 269.101 62.788C268.328 62.788 267.73 62.924 267.309 63.196C266.888 63.468 266.677 63.9133 266.677 64.532C266.677 64.996 266.805 65.38 267.061 65.684C267.322 65.9827 267.677 66.2387 268.125 66.452C268.573 66.66 269.085 66.86 269.661 67.052C270.36 67.2813 270.96 67.5427 271.461 67.836C271.968 68.124 272.354 68.484 272.621 68.916C272.893 69.348 273.029 69.892 273.029 70.548C273.029 71.204 272.872 71.764 272.557 72.228C272.248 72.692 271.802 73.0467 271.221 73.292C270.645 73.5373 269.954 73.66 269.149 73.66ZM281.908 73.5L279.532 65.004H280.74L282.988 72.9H282.74L284.228 65.004H285.644L283.812 73.5H281.908ZM276.164 73.5L274.316 65.004H275.732L277.236 72.9H276.988L279.212 65.004H280.42L278.076 73.5H276.164ZM287.429 73.5V65.004H288.773V73.5H287.429ZM288.109 63.052C287.858 63.052 287.64 62.9827 287.453 62.844C287.272 62.7 287.181 62.5053 287.181 62.26C287.181 62.02 287.272 61.8307 287.453 61.692C287.64 61.548 287.858 61.476 288.109 61.476C288.36 61.476 288.576 61.548 288.757 61.692C288.938 61.8307 289.029 62.02 289.029 62.26C289.029 62.5053 288.938 62.7 288.757 62.844C288.576 62.9827 288.36 63.052 288.109 63.052ZM294.662 73.628C294.401 73.628 294.145 73.5987 293.894 73.54C293.643 73.4813 293.417 73.3773 293.214 73.228C293.017 73.0733 292.859 72.8573 292.742 72.58C292.625 72.2973 292.566 71.9347 292.566 71.492C292.566 71.38 292.566 71.2653 292.566 71.148C292.566 71.0253 292.566 70.8973 292.566 70.764V66.204H290.494V65.004H291.822C292.003 65.004 292.145 64.9987 292.246 64.988C292.347 64.972 292.419 64.9373 292.462 64.884C292.51 64.8253 292.539 64.7373 292.55 64.62C292.561 64.4973 292.566 64.3293 292.566 64.116V62.188H293.934V65.004H296.59V66.204H293.934V70.324C293.934 70.4413 293.934 70.556 293.934 70.668C293.934 70.78 293.934 70.884 293.934 70.98C293.934 71.4333 293.987 71.788 294.094 72.044C294.206 72.3 294.454 72.428 294.838 72.428C294.993 72.428 295.139 72.4147 295.278 72.388C295.417 72.3613 295.521 72.3347 295.59 72.308V73.492C295.499 73.524 295.371 73.5533 295.206 73.58C295.046 73.612 294.865 73.628 294.662 73.628ZM299.229 72.252H304.269V73.5H297.709V72.3L302.693 66.22L302.701 66.252H297.909V65.004H304.197V66.204L299.237 72.268L299.229 72.252ZM306.211 69.796V68.58H312.779L312.539 68.98C312.539 68.948 312.539 68.9187 312.539 68.892C312.539 68.86 312.539 68.8307 312.539 68.804C312.539 68.3133 312.435 67.8653 312.227 67.46C312.024 67.0493 311.72 66.7213 311.315 66.476C310.91 66.2307 310.408 66.108 309.811 66.108C309.208 66.108 308.678 66.236 308.219 66.492C307.76 66.748 307.403 67.1107 307.147 67.58C306.891 68.044 306.763 68.5987 306.763 69.244C306.763 69.9 306.886 70.4653 307.131 70.94C307.382 71.4147 307.736 71.78 308.195 72.036C308.654 72.292 309.198 72.42 309.827 72.42C310.275 72.42 310.664 72.3747 310.995 72.284C311.326 72.188 311.598 72.0627 311.811 71.908C312.03 71.748 312.195 71.5747 312.307 71.388C312.419 71.2013 312.486 71.0147 312.507 70.828H313.867C313.84 71.1693 313.734 71.508 313.547 71.844C313.36 72.18 313.096 72.4867 312.755 72.764C312.414 73.036 311.995 73.2547 311.499 73.42C311.003 73.5853 310.432 73.668 309.787 73.668C308.934 73.668 308.182 73.4813 307.531 73.108C306.88 72.7347 306.368 72.2173 305.995 71.556C305.627 70.8947 305.443 70.1347 305.443 69.276C305.443 68.4067 305.63 67.644 306.003 66.988C306.376 66.3267 306.891 65.8093 307.547 65.436C308.203 65.0627 308.952 64.876 309.795 64.876C310.654 64.876 311.398 65.0627 312.027 65.436C312.656 65.8093 313.142 66.3213 313.483 66.972C313.824 67.6173 313.995 68.3533 313.995 69.18C313.995 69.2653 313.992 69.3773 313.987 69.516C313.982 69.6547 313.974 69.748 313.963 69.796H306.211ZM316.115 73.5V65.004H317.475V67.612L317.027 67.452C317.059 67.1373 317.139 66.828 317.267 66.524C317.395 66.2147 317.571 65.9373 317.795 65.692C318.024 65.4413 318.309 65.244 318.651 65.1C318.992 64.9507 319.392 64.876 319.851 64.876C320.192 64.876 320.469 64.9053 320.683 64.964C320.901 65.0173 321.037 65.06 321.091 65.092L320.739 66.428C320.685 66.3907 320.576 66.3427 320.411 66.284C320.251 66.2253 320.021 66.196 319.723 66.196C319.28 66.196 318.912 66.276 318.619 66.436C318.331 66.596 318.101 66.8093 317.931 67.076C317.765 67.3373 317.648 67.6227 317.579 67.932C317.509 68.2413 317.475 68.548 317.475 68.852V73.5H316.115ZM324.016 60.996V73.5H322.672V60.996H324.016ZM329.473 73.66C328.828 73.66 328.263 73.5587 327.777 73.356C327.297 73.1533 326.924 72.8627 326.657 72.484C326.391 72.1 326.257 71.6413 326.257 71.108C326.257 70.5533 326.401 70.092 326.689 69.724C326.977 69.3507 327.383 69.06 327.905 68.852C328.428 68.644 329.036 68.5053 329.729 68.436C330.775 68.3293 331.519 68.2253 331.961 68.124C332.404 68.0173 332.625 67.8467 332.625 67.612C332.625 67.6067 332.625 67.604 332.625 67.604C332.625 67.5987 332.625 67.5933 332.625 67.588C332.625 67.0973 332.425 66.732 332.025 66.492C331.625 66.2467 331.047 66.124 330.289 66.124C329.5 66.124 328.887 66.2627 328.449 66.54C328.012 66.812 327.793 67.2547 327.793 67.868H326.449C326.449 67.2333 326.612 66.6947 326.937 66.252C327.263 65.804 327.713 65.4627 328.289 65.228C328.871 64.9933 329.54 64.876 330.297 64.876C330.991 64.876 331.615 64.9827 332.169 65.196C332.729 65.404 333.172 65.716 333.497 66.132C333.828 66.5427 333.993 67.052 333.993 67.66C333.993 67.772 333.993 67.884 333.993 67.996C333.993 68.1027 333.993 68.212 333.993 68.324V71.9C333.993 72.0867 334.001 72.268 334.017 72.444C334.033 72.62 334.06 72.7747 334.097 72.908C334.145 73.068 334.199 73.1987 334.257 73.3C334.316 73.396 334.364 73.4627 334.401 73.5H333.033C333.007 73.4733 332.967 73.412 332.913 73.316C332.86 73.2147 332.809 73.0973 332.761 72.964C332.724 72.8573 332.695 72.724 332.673 72.564C332.652 72.3987 332.641 72.228 332.641 72.052L332.865 72.204C332.7 72.492 332.457 72.7453 332.137 72.964C331.823 73.1827 331.441 73.3533 330.993 73.476C330.545 73.5987 330.039 73.66 329.473 73.66ZM329.689 72.436C330.239 72.436 330.735 72.3533 331.177 72.188C331.62 72.0173 331.972 71.7667 332.233 71.436C332.495 71.1053 332.625 70.6947 332.625 70.204V68.516L332.929 69.028C332.588 69.1613 332.161 69.2707 331.649 69.356C331.143 69.436 330.612 69.5027 330.057 69.556C329.252 69.6307 328.644 69.772 328.233 69.98C327.828 70.188 327.625 70.5373 327.625 71.028C327.625 71.492 327.793 71.844 328.129 72.084C328.465 72.3187 328.985 72.436 329.689 72.436ZM342.335 73.5V69.428C342.335 69.1827 342.335 68.9827 342.335 68.828C342.335 68.668 342.335 68.516 342.335 68.372C342.335 67.9293 342.261 67.5427 342.111 67.212C341.962 66.8813 341.727 66.6253 341.407 66.444C341.087 66.2627 340.669 66.172 340.151 66.172C339.698 66.172 339.277 66.2893 338.887 66.524C338.503 66.7533 338.194 67.0653 337.959 67.46C337.73 67.8493 337.615 68.2867 337.615 68.772L336.839 68.476C336.839 67.8093 337.002 67.204 337.327 66.66C337.658 66.116 338.095 65.684 338.639 65.364C339.189 65.0387 339.786 64.876 340.431 64.876C341.087 64.876 341.661 65.0013 342.151 65.252C342.642 65.5027 343.021 65.8627 343.287 66.332C343.559 66.796 343.695 67.356 343.695 68.012C343.695 68.2467 343.695 68.5027 343.695 68.78C343.695 69.0573 343.695 69.316 343.695 69.556V73.5H342.335ZM336.255 73.5V65.004H337.615V73.5H336.255ZM349.572 73.66C348.873 73.66 348.233 73.492 347.652 73.156C347.07 72.8147 346.606 72.316 346.26 71.66C345.913 70.9987 345.74 70.1933 345.74 69.244C345.74 68.3107 345.916 67.5187 346.268 66.868C346.62 66.2173 347.086 65.724 347.668 65.388C348.249 65.0467 348.884 64.876 349.572 64.876C350.228 64.876 350.841 65.0333 351.412 65.348C351.988 65.6573 352.452 66.0893 352.804 66.644C353.156 67.1987 353.332 67.8413 353.332 68.572C353.332 68.588 353.332 68.604 353.332 68.62C353.332 68.636 353.332 68.652 353.332 68.668L352.356 68.708C352.356 68.692 352.356 68.676 352.356 68.66C352.356 68.6387 352.356 68.62 352.356 68.604C352.356 68.14 352.233 67.7213 351.988 67.348C351.748 66.9747 351.43 66.6787 351.036 66.46C350.641 66.236 350.217 66.124 349.764 66.124C349.006 66.124 348.38 66.38 347.884 66.892C347.388 67.3987 347.14 68.1827 347.14 69.244C347.14 70.3 347.388 71.0867 347.884 71.604C348.385 72.116 349.012 72.372 349.764 72.372C350.238 72.372 350.67 72.2573 351.06 72.028C351.454 71.7987 351.769 71.492 352.004 71.108C352.238 70.7187 352.356 70.284 352.356 69.804L353.332 69.828C353.332 70.5533 353.164 71.2067 352.828 71.788C352.492 72.364 352.038 72.82 351.468 73.156C350.902 73.492 350.27 73.66 349.572 73.66ZM352.356 73.5V60.996H353.724V73.5H352.356Z" fill="#515B6F"/>
<rect x="128" y="91" width="83" height="34" rx="17" fill="#56CDAD" fill-opacity="0.1"/>
<path d="M139.904 103.145L140.737 102.228V106.701L140.163 106.204H144.377V107.681H140.163L140.737 107.149V112H138.903V101.675H145V103.145H139.904ZM148.83 112.14C148.303 112.14 147.864 112.051 147.514 111.874C147.169 111.697 146.896 111.463 146.695 111.174C146.499 110.885 146.359 110.565 146.275 110.215C146.196 109.865 146.156 109.515 146.156 109.165C146.156 108.992 146.156 108.813 146.156 108.626C146.156 108.439 146.156 108.25 146.156 108.059V104.566H148.004V107.772C148.004 107.94 148.004 108.101 148.004 108.255C148.004 108.409 148.004 108.554 148.004 108.689C148.004 109.02 148.044 109.328 148.123 109.613C148.203 109.893 148.347 110.119 148.557 110.292C148.772 110.465 149.073 110.551 149.46 110.551C149.829 110.551 150.146 110.444 150.412 110.229C150.678 110.01 150.884 109.734 151.028 109.403C151.178 109.072 151.252 108.736 151.252 108.395L151.882 108.815C151.882 109.268 151.812 109.695 151.672 110.096C151.532 110.493 151.329 110.845 151.063 111.153C150.797 111.461 150.475 111.704 150.097 111.881C149.724 112.054 149.302 112.14 148.83 112.14ZM151.252 112V104.566H153.093V112H151.252ZM156.783 101.059V112H154.97V101.059H156.783ZM160.584 101.059V112H158.771V101.059H160.584ZM162.103 108.605V107.464H167.122V108.605H162.103ZM174.393 103.145H171.124L171.803 102.228V112H169.955V102.228L170.669 103.145H167.372V101.675H174.393V103.145ZM175.776 112V104.566H177.596V112H175.776ZM176.693 103.194C176.394 103.194 176.133 103.115 175.909 102.956C175.689 102.793 175.58 102.566 175.58 102.277C175.58 101.992 175.689 101.771 175.909 101.612C176.133 101.453 176.394 101.374 176.693 101.374C176.987 101.374 177.243 101.453 177.463 101.612C177.682 101.771 177.792 101.992 177.792 102.277C177.792 102.566 177.682 102.793 177.463 102.956C177.243 103.115 176.987 103.194 176.693 103.194ZM184.04 112V108.983C184.04 108.708 184.04 108.467 184.04 108.262C184.04 108.052 184.04 107.877 184.04 107.737C184.04 107.555 184.028 107.366 184.005 107.17C183.982 106.969 183.93 106.785 183.851 106.617C183.772 106.449 183.648 106.314 183.48 106.211C183.317 106.104 183.09 106.05 182.801 106.05C182.521 106.05 182.283 106.108 182.087 106.225C181.896 106.337 181.737 106.489 181.611 106.68C181.49 106.867 181.401 107.081 181.345 107.324C181.289 107.562 181.261 107.807 181.261 108.059L180.645 107.646C180.645 107.035 180.759 106.489 180.988 106.008C181.217 105.527 181.541 105.147 181.961 104.867C182.386 104.582 182.887 104.44 183.466 104.44C184.063 104.44 184.537 104.566 184.887 104.818C185.237 105.065 185.487 105.401 185.636 105.826C185.79 106.251 185.867 106.727 185.867 107.254C185.867 107.45 185.867 107.711 185.867 108.038C185.867 108.36 185.867 108.74 185.867 109.179V112H184.04ZM179.42 112V104.566H181.261V112H179.42ZM188.632 112V108.99C188.632 108.696 188.632 108.446 188.632 108.241C188.632 108.036 188.632 107.863 188.632 107.723C188.632 107.527 188.62 107.331 188.597 107.135C188.574 106.934 188.522 106.755 188.443 106.596C188.364 106.433 188.24 106.302 188.072 106.204C187.904 106.101 187.675 106.05 187.386 106.05C187.101 106.05 186.861 106.106 186.665 106.218C186.474 106.33 186.32 106.479 186.203 106.666C186.086 106.853 186 107.063 185.944 107.296C185.893 107.529 185.867 107.763 185.867 107.996L185.251 107.59C185.251 106.997 185.363 106.463 185.587 105.987C185.811 105.511 186.133 105.135 186.553 104.86C186.973 104.58 187.472 104.44 188.051 104.44C188.634 104.44 189.103 104.559 189.458 104.797C189.813 105.035 190.069 105.362 190.228 105.777C190.391 106.188 190.473 106.657 190.473 107.184C190.473 107.389 190.473 107.651 190.473 107.968C190.473 108.285 190.473 108.661 190.473 109.095V112H188.632ZM192.93 108.878V107.569H198.131L197.921 107.919C197.921 107.891 197.921 107.861 197.921 107.828C197.921 107.791 197.921 107.76 197.921 107.737C197.921 107.415 197.849 107.114 197.704 106.834C197.56 106.549 197.34 106.321 197.046 106.148C196.752 105.971 196.379 105.882 195.926 105.882C195.478 105.882 195.089 105.978 194.757 106.169C194.431 106.356 194.176 106.626 193.994 106.981C193.817 107.336 193.728 107.76 193.728 108.255C193.728 108.764 193.815 109.202 193.987 109.571C194.16 109.935 194.412 110.215 194.743 110.411C195.079 110.602 195.488 110.698 195.968 110.698C196.295 110.698 196.577 110.668 196.815 110.607C197.053 110.546 197.247 110.465 197.396 110.362C197.55 110.255 197.665 110.14 197.739 110.019C197.819 109.898 197.865 109.776 197.879 109.655H199.713C199.685 109.968 199.58 110.273 199.398 110.572C199.221 110.866 198.971 111.134 198.649 111.377C198.327 111.615 197.935 111.806 197.473 111.951C197.016 112.091 196.493 112.161 195.905 112.161C195.107 112.161 194.41 111.998 193.812 111.671C193.215 111.344 192.748 110.889 192.412 110.306C192.081 109.723 191.915 109.055 191.915 108.304C191.915 107.534 192.083 106.86 192.419 106.281C192.76 105.702 193.231 105.252 193.833 104.93C194.435 104.603 195.126 104.44 195.905 104.44C196.708 104.44 197.401 104.603 197.984 104.93C198.572 105.257 199.025 105.712 199.342 106.295C199.66 106.874 199.818 107.548 199.818 108.318C199.818 108.416 199.816 108.521 199.811 108.633C199.807 108.745 199.8 108.827 199.79 108.878H192.93Z" fill="#56CDAD"/>
<rect x="219" y="91" width="1" height="34" fill="#D6DDEB"/>
<rect x="228.5" y="91.5" width="91" height="33" rx="16.5" stroke="#FFB836"/>
<path d="M246.225 101.675H249.361V112H247.604V102.851L247.646 102.865L245.427 112H242.963L240.716 102.858L240.758 102.837V112H239.001V101.675H242.137L244.23 110.992H244.111L246.225 101.675ZM253.831 112.154C253.276 112.154 252.788 112.068 252.368 111.895C251.948 111.718 251.619 111.463 251.381 111.132C251.143 110.801 251.024 110.402 251.024 109.935C251.024 109.426 251.162 109.009 251.437 108.682C251.717 108.351 252.093 108.096 252.564 107.919C253.036 107.737 253.558 107.62 254.132 107.569C254.982 107.485 255.574 107.406 255.91 107.331C256.251 107.252 256.421 107.126 256.421 106.953C256.421 106.948 256.421 106.946 256.421 106.946C256.421 106.941 256.421 106.939 256.421 106.939C256.421 106.612 256.274 106.36 255.98 106.183C255.686 106.006 255.271 105.917 254.734 105.917C254.17 105.917 253.736 106.017 253.432 106.218C253.134 106.414 252.984 106.727 252.984 107.156H251.164C251.164 106.573 251.318 106.08 251.626 105.679C251.939 105.273 252.366 104.965 252.907 104.755C253.449 104.545 254.062 104.44 254.748 104.44C255.388 104.44 255.973 104.536 256.505 104.727C257.037 104.918 257.464 105.208 257.786 105.595C258.108 105.982 258.269 106.465 258.269 107.044C258.269 107.142 258.269 107.24 258.269 107.338C258.269 107.436 258.269 107.534 258.269 107.632V110.432C258.269 110.609 258.274 110.784 258.283 110.957C258.297 111.125 258.323 111.277 258.36 111.412C258.407 111.561 258.463 111.687 258.528 111.79C258.594 111.893 258.645 111.963 258.682 112H256.862C256.83 111.967 256.783 111.904 256.722 111.811C256.666 111.713 256.615 111.601 256.568 111.475C256.522 111.335 256.487 111.186 256.463 111.027C256.44 110.864 256.428 110.684 256.428 110.488L256.792 110.74C256.652 111.025 256.438 111.274 256.148 111.489C255.864 111.699 255.523 111.862 255.126 111.979C254.73 112.096 254.298 112.154 253.831 112.154ZM254.279 110.705C254.662 110.705 255.017 110.64 255.343 110.509C255.67 110.378 255.934 110.178 256.134 109.907C256.335 109.632 256.435 109.279 256.435 108.85V107.856L256.883 108.36C256.585 108.472 256.225 108.565 255.805 108.64C255.385 108.71 254.961 108.766 254.531 108.808C253.981 108.859 253.565 108.955 253.285 109.095C253.01 109.235 252.872 109.464 252.872 109.781C252.872 110.089 252.989 110.32 253.222 110.474C253.456 110.628 253.808 110.705 254.279 110.705ZM259.979 112V104.566H261.82V107.037L261.393 106.799C261.439 106.477 261.526 106.174 261.652 105.889C261.778 105.6 261.946 105.348 262.156 105.133C262.366 104.914 262.62 104.743 262.919 104.622C263.217 104.501 263.558 104.44 263.941 104.44C264.244 104.44 264.482 104.463 264.655 104.51C264.832 104.552 264.942 104.587 264.984 104.615L264.648 106.302C264.601 106.269 264.505 106.23 264.361 106.183C264.221 106.132 264.032 106.106 263.794 106.106C263.416 106.106 263.098 106.171 262.842 106.302C262.59 106.428 262.389 106.601 262.24 106.82C262.09 107.035 261.983 107.273 261.918 107.534C261.852 107.791 261.82 108.047 261.82 108.304V112H259.979ZM266.145 112V101.059H267.895V107.471L267.496 107.275L270.569 104.566H272.858L269.218 107.807L269.631 107.051L272.823 112H270.877L268.427 108.031L268.875 108.108L267.685 109.172L267.895 108.353V112H266.145ZM274.186 108.878V107.569H279.387L279.177 107.919C279.177 107.891 279.177 107.861 279.177 107.828C279.177 107.791 279.177 107.76 279.177 107.737C279.177 107.415 279.105 107.114 278.96 106.834C278.816 106.549 278.596 106.321 278.302 106.148C278.008 105.971 277.635 105.882 277.182 105.882C276.734 105.882 276.345 105.978 276.013 106.169C275.687 106.356 275.432 106.626 275.25 106.981C275.073 107.336 274.984 107.76 274.984 108.255C274.984 108.764 275.071 109.202 275.243 109.571C275.416 109.935 275.668 110.215 275.999 110.411C276.335 110.602 276.744 110.698 277.224 110.698C277.551 110.698 277.833 110.668 278.071 110.607C278.309 110.546 278.503 110.465 278.652 110.362C278.806 110.255 278.921 110.14 278.995 110.019C279.075 109.898 279.121 109.776 279.135 109.655H280.969C280.941 109.968 280.836 110.273 280.654 110.572C280.477 110.866 280.227 111.134 279.905 111.377C279.583 111.615 279.191 111.806 278.729 111.951C278.272 112.091 277.749 112.161 277.161 112.161C276.363 112.161 275.666 111.998 275.068 111.671C274.471 111.344 274.004 110.889 273.668 110.306C273.337 109.723 273.171 109.055 273.171 108.304C273.171 107.534 273.339 106.86 273.675 106.281C274.016 105.702 274.487 105.252 275.089 104.93C275.691 104.603 276.382 104.44 277.161 104.44C277.964 104.44 278.657 104.603 279.24 104.93C279.828 105.257 280.281 105.712 280.598 106.295C280.916 106.874 281.074 107.548 281.074 108.318C281.074 108.416 281.072 108.521 281.067 108.633C281.063 108.745 281.056 108.827 281.046 108.878H274.186ZM285.926 112.14C285.66 112.14 285.389 112.114 285.114 112.063C284.839 112.012 284.587 111.916 284.358 111.776C284.129 111.636 283.945 111.431 283.805 111.16C283.665 110.889 283.595 110.532 283.595 110.089C283.595 109.986 283.595 109.884 283.595 109.781C283.595 109.674 283.595 109.564 283.595 109.452V106.036H281.838V104.566H282.552C282.795 104.566 282.986 104.557 283.126 104.538C283.266 104.515 283.369 104.463 283.434 104.384C283.499 104.305 283.541 104.181 283.56 104.013C283.583 103.84 283.595 103.602 283.595 103.299V102.116H285.443V104.566H287.655V106.036H285.443V109.018C285.443 109.107 285.443 109.195 285.443 109.284C285.443 109.368 285.443 109.45 285.443 109.529C285.443 109.874 285.485 110.152 285.569 110.362C285.653 110.572 285.851 110.677 286.164 110.677C286.313 110.677 286.453 110.663 286.584 110.635C286.719 110.607 286.82 110.579 286.885 110.551V111.993C286.796 112.026 286.668 112.058 286.5 112.091C286.332 112.124 286.141 112.14 285.926 112.14ZM289.01 112V104.566H290.83V112H289.01ZM289.927 103.194C289.628 103.194 289.367 103.115 289.143 102.956C288.924 102.793 288.814 102.566 288.814 102.277C288.814 101.992 288.924 101.771 289.143 101.612C289.367 101.453 289.628 101.374 289.927 101.374C290.221 101.374 290.478 101.453 290.697 101.612C290.916 101.771 291.026 101.992 291.026 102.277C291.026 102.566 290.916 102.793 290.697 102.956C290.478 103.115 290.221 103.194 289.927 103.194ZM297.911 112V108.703C297.911 108.516 297.911 108.353 297.911 108.213C297.911 108.068 297.911 107.938 297.911 107.821C297.911 107.485 297.862 107.184 297.764 106.918C297.671 106.647 297.508 106.435 297.274 106.281C297.046 106.127 296.728 106.05 296.322 106.05C295.968 106.05 295.653 106.136 295.377 106.309C295.102 106.477 294.885 106.71 294.726 107.009C294.572 107.303 294.495 107.644 294.495 108.031L293.872 107.646C293.872 107.025 294.012 106.475 294.292 105.994C294.577 105.509 294.957 105.128 295.433 104.853C295.909 104.578 296.437 104.44 297.015 104.44C297.613 104.44 298.114 104.557 298.52 104.79C298.931 105.023 299.239 105.355 299.444 105.784C299.654 106.213 299.759 106.717 299.759 107.296C299.759 107.52 299.759 107.772 299.759 108.052C299.759 108.332 299.759 108.607 299.759 108.878V112H297.911ZM292.654 112V104.566H294.495V112H292.654ZM306.526 111.265C306.964 111.307 307.349 111.389 307.681 111.51C308.012 111.631 308.271 111.811 308.458 112.049C308.644 112.292 308.738 112.614 308.738 113.015C308.738 113.463 308.586 113.85 308.283 114.177C307.979 114.504 307.534 114.756 306.946 114.933C306.362 115.11 305.644 115.199 304.79 115.199C303.548 115.199 302.594 115.019 301.927 114.66C301.259 114.305 300.926 113.822 300.926 113.211C300.926 113.038 300.947 112.882 300.989 112.742C301.031 112.602 301.082 112.485 301.143 112.392L302.83 112.637C302.802 112.674 302.774 112.733 302.746 112.812C302.718 112.896 302.704 112.996 302.704 113.113C302.704 113.402 302.897 113.61 303.285 113.736C303.677 113.867 304.197 113.932 304.846 113.932C305.322 113.932 305.718 113.899 306.036 113.834C306.358 113.769 306.6 113.675 306.764 113.554C306.932 113.433 307.016 113.29 307.016 113.127C307.016 112.884 306.906 112.728 306.687 112.658C306.467 112.588 306.206 112.541 305.903 112.518L303.082 112.259C302.578 112.208 302.162 112.058 301.836 111.811C301.514 111.564 301.353 111.237 301.353 110.831C301.353 110.584 301.418 110.355 301.549 110.145C301.684 109.935 301.838 109.76 302.011 109.62C302.183 109.475 302.33 109.387 302.452 109.354L303.502 109.872C303.404 109.886 303.287 109.949 303.152 110.061C303.021 110.173 302.956 110.306 302.956 110.46C302.956 110.605 303.021 110.726 303.152 110.824C303.282 110.917 303.534 110.983 303.908 111.02L306.526 111.265ZM307.359 104.566H309.011L308.339 107.45C308.213 107.991 308.01 108.477 307.73 108.906C307.45 109.335 307.076 109.674 306.61 109.921C306.143 110.168 305.555 110.292 304.846 110.292C304.108 110.292 303.471 110.173 302.935 109.935C302.403 109.692 301.992 109.354 301.703 108.92C301.413 108.481 301.269 107.977 301.269 107.408C301.269 106.825 301.416 106.311 301.71 105.868C302.008 105.42 302.417 105.07 302.935 104.818C303.457 104.566 304.048 104.44 304.706 104.44C305.238 104.44 305.716 104.529 306.141 104.706C306.565 104.879 306.904 105.105 307.156 105.385C307.412 105.665 307.55 105.964 307.569 106.281L307.156 106.358L307.359 104.566ZM304.839 108.871C305.198 108.871 305.508 108.813 305.77 108.696C306.031 108.579 306.234 108.411 306.379 108.192C306.523 107.968 306.596 107.697 306.596 107.38C306.596 107.067 306.523 106.799 306.379 106.575C306.234 106.351 306.031 106.181 305.77 106.064C305.508 105.943 305.2 105.882 304.846 105.882C304.5 105.882 304.195 105.943 303.929 106.064C303.663 106.185 303.453 106.36 303.299 106.589C303.149 106.813 303.075 107.081 303.075 107.394C303.075 107.707 303.147 107.975 303.292 108.199C303.441 108.418 303.646 108.586 303.908 108.703C304.174 108.815 304.484 108.871 304.839 108.871Z" fill="#FFB836"/>
<defs>
<clipPath id="clip0_251_1150">
<rect width="33.6" height="51.2" fill="white" transform="translate(55.2002 30.3999)"/>
</clipPath>
</defs>
</svg>
